<svg width="20" height="20" viewBox="0 0 20 20" fill="none" xmlns="http://www.w3.org/2000/svg">
<path fill-rule="evenodd" clip-rule="evenodd" d="M-1.06066 -1.06066C-0.474874 -1.64645 0.474874 -1.64645 1.06066 -1.06066L10 7.87868L18.9393 -1.06066C19.5251 -1.64645 20.4749 -1.64645 21.0607 -1.06066C21.6464 -0.474874 21.6464 0.474874 21.0607 1.06066L12.1213 10L21.0607 18.9393C21.6464 19.5251 21.6464 20.4749 21.0607 21.0607C20.4749 21.6464 19.5251 21.6464 18.9393 21.0607L10 12.1213L1.06066 21.0607C0.474874 21.6464 -0.474874 21.6464 -1.06066 21.0607C-1.64645 20.4749 -1.64645 19.5251 -1.06066 18.9393L7.87868 10L-1.06066 1.06066C-1.64645 0.474874 -1.64645 -0.474874 -1.06066 -1.06066Z" fill="white"/>
</svg>
