<svg width="202" height="202" viewBox="0 0 202 202" fill="none" xmlns="http://www.w3.org/2000/svg">
<g clip-path="url(#clip0_137_1176)">
<path opacity="0.8" d="M155.932 165.201C146.318 163.324 138.96 148.992 139.659 136.924C140.379 124.506 149.151 122.785 155.315 107.676C162.317 90.5121 154.454 84.2603 158.069 58.7321C158.884 52.9727 163.603 19.6414 175.489 17.9145C186.479 16.3179 205.115 41.5194 201.552 62.5083C199.012 77.4744 187.055 79.2827 184.145 96.7344C181.593 112.047 189.954 115.719 187.626 130.549C184.793 148.602 168.554 167.664 155.931 165.2L155.932 165.201Z" fill="#74E6B4"/>
<g style="mix-blend-mode:soft-light">
<path d="M153.577 169.088C163.58 151.606 170.649 121.199 174.816 98.7679C179.329 74.4828 181.509 54.0575 181.531 53.8538L180.703 53.7667C180.681 53.9697 178.504 74.3684 173.997 98.6218C169.841 120.987 162.8 151.296 152.854 168.675L153.577 169.087L153.577 169.088Z" fill="#F0F0F0"/>
</g>
<path opacity="0.8" d="M112.469 128.029C96.1296 123.257 85.8037 97.8019 92.5125 87.5342C97.0458 80.5964 106.417 85.0925 113.089 77.5097C121.608 67.8287 111.34 54.8097 115.507 34.4607C119.053 17.1436 132.172 -1.17767 142.211 0.0590091C152.72 1.35327 162.704 24.4298 157.163 40.6059C153.56 51.1256 145.266 53.2498 145.191 62.3853C145.103 72.9848 156.223 75.6072 158.24 85.4668C161.863 103.178 134.086 134.34 112.469 128.029Z" fill="#74E6B4"/>
<path d="M121.808 133.221C121.72 133.239 121.627 133.237 121.534 133.213C121.205 133.127 121.008 132.792 121.095 132.463C132.701 88.1741 129.146 40.1668 129.109 39.6867C129.082 39.3484 129.336 39.0525 129.674 39.0273C130.013 39.0014 130.308 39.2541 130.334 39.5917C130.372 40.0733 133.942 88.2871 122.284 132.774C122.222 133.009 122.032 133.177 121.808 133.221V133.221Z" fill="url(#paint0_linear_137_1176)"/>
<g style="mix-blend-mode:soft-light">
<path d="M146.893 48.7775C146.831 48.7897 146.765 48.7818 146.704 48.7515C146.559 48.6788 146.501 48.5025 146.574 48.3578C151.192 39.1864 155.689 25.8917 150.884 14.6378C148.022 7.93543 143.152 5.10863 143.104 5.08056C142.962 5.00066 142.913 4.82142 142.993 4.68033C143.074 4.53924 143.254 4.49029 143.394 4.5702C143.6 4.68753 148.485 7.52368 151.424 14.4067C154.125 20.7327 155.568 31.8037 147.099 48.6205C147.056 48.7048 146.979 48.7595 146.893 48.7767V48.7775Z" fill="#F0F0F0"/>
</g>
<path d="M110.434 124.765C110.342 124.783 110.243 124.757 110.171 124.687C97.8893 112.694 92.5112 102.613 94.1849 94.7239C95.6734 87.7099 102.435 85.1192 102.503 85.094C102.656 85.0386 102.824 85.1149 102.881 85.2667C102.937 85.4186 102.861 85.5878 102.709 85.6439C102.644 85.6684 96.1751 88.1547 94.7587 94.8528C93.1347 102.532 98.458 112.428 110.582 124.267C110.698 124.381 110.7 124.567 110.587 124.683C110.543 124.727 110.49 124.754 110.434 124.766V124.765Z" fill="#F0F0F0"/>
<path d="M30.3262 96.8884C30.3262 135.651 62.9826 167.075 103.267 167.075C143.551 167.075 178.012 134.278 178.012 95.5157C178.012 56.7533 143.551 26.7023 103.267 26.7023C62.9826 26.7023 30.3262 58.126 30.3262 96.8884Z" fill="white"/>
<path d="M172.284 79.8225C172.328 79.8225 172.371 79.8175 172.414 79.8067C172.683 79.7376 172.843 79.4727 172.772 79.2128C171.987 76.3767 170.984 73.5636 169.792 70.8519C169.683 70.6058 169.386 70.4935 169.132 70.5942C168.875 70.6993 168.756 70.983 168.864 71.2306C170.038 73.8997 171.026 76.6697 171.798 79.4633C171.858 79.68 172.062 79.8233 172.284 79.8233V79.8225Z" fill="#BDD0FB"/>
<path d="M161.139 57.8892C161.244 57.8892 161.351 57.8568 161.442 57.792C161.664 57.6307 161.708 57.3262 161.54 57.1132C148.026 39.8688 126.258 29.5751 103.31 29.5751C93.5099 29.5751 84.0302 31.487 75.1366 35.2568C74.8822 35.3648 74.7669 35.6513 74.8786 35.896C74.9903 36.1408 75.288 36.2516 75.5425 36.1451C84.3078 32.4286 93.6504 30.5448 103.31 30.5448C125.944 30.5448 147.411 40.6952 160.736 57.697C160.835 57.8236 160.986 57.8899 161.139 57.8899V57.8892Z" fill="#BDD0FB"/>
<path d="M40.25 96.8884C40.25 130.442 68.5181 157.642 103.388 157.642C138.258 157.642 168.088 129.253 168.088 95.7C168.088 62.147 138.258 36.135 103.388 36.135C68.5181 36.135 40.25 63.3354 40.25 96.8884Z" fill="#DD8BF1"/>
<path d="M40.25 96.8884C40.25 63.3354 68.5181 36.135 103.388 36.135C122.27 36.135 139.672 43.7653 151.662 56.0867L103.025 95.0269L93.0263 156.823C63.0866 152.065 40.25 127.045 40.25 96.8884Z" fill="#BDD0FB"/>
<path d="M48.8438 92.6652C48.8438 122.946 74.8852 147.494 107.008 147.494C139.131 147.494 166.611 121.874 166.611 91.5926C166.611 61.3113 139.131 37.836 107.008 37.836C74.8852 37.836 48.8438 62.3838 48.8438 92.6652Z" fill="#74E6B4"/>
<path d="M151.952 93.7377C152.108 96.3169 154.407 98.2857 157.087 98.1352C159.767 97.9848 161.813 95.7727 161.657 93.1943C161.501 90.6151 159.202 88.6463 156.522 88.7968C153.842 88.9465 151.795 91.1593 151.952 93.7377Z" fill="white"/>
<path opacity="0.78" d="M46.9342 99.6188C47.0899 102.198 49.3893 104.167 52.0694 104.016C54.7494 103.866 56.7959 101.654 56.6394 99.0746C56.4837 96.4954 54.1843 94.5267 51.5042 94.6771C48.8242 94.8269 46.7778 97.0396 46.9342 99.6181V99.6188Z" fill="white"/>
<path d="M112.875 141.593C110.234 142.057 108.484 144.493 108.967 147.035C109.449 149.576 111.981 151.261 114.622 150.796C117.263 150.332 119.013 147.896 118.531 145.354C118.048 142.813 115.516 141.13 112.875 141.593Z" fill="white"/>
<path d="M93.9728 42.0175C91.3317 42.4818 89.5815 44.9177 90.0645 47.4594C90.5467 50.0005 93.079 51.6842 95.7201 51.2199C98.3613 50.7556 100.111 48.3197 99.6285 45.7779C99.1462 43.2369 96.614 41.5532 93.9728 42.0168V42.0175Z" fill="white"/>
<path opacity="0.78" d="M78.3147 144.267C77.8202 145.466 77.9442 146.589 78.5901 146.774C79.2359 146.96 80.1608 146.139 80.6545 144.94C81.1483 143.74 81.025 142.617 80.3792 142.431C79.7326 142.245 78.8085 143.067 78.3147 144.266V144.267Z" fill="white"/>
<path d="M120.564 49.8191C120.071 51.0183 120.194 52.1412 120.84 52.327C121.486 52.5127 122.41 51.6914 122.904 50.4921C123.398 49.2929 123.275 48.1699 122.629 47.9835C121.982 47.7978 121.058 48.6191 120.564 49.8183V49.8191Z" fill="white"/>
<path opacity="0.78" d="M56.255 126.312C55.186 127.091 54.6851 128.112 55.137 128.594C55.589 129.075 56.8223 128.835 57.8913 128.057C58.9603 127.279 59.4606 126.258 59.0086 125.776C58.5566 125.295 57.3233 125.534 56.2543 126.312H56.255Z" fill="white"/>
<path d="M143.327 66.7014C142.258 67.4795 141.757 68.501 142.209 68.9826C142.661 69.4648 143.895 69.2244 144.964 68.4463C146.033 67.6681 146.534 66.6467 146.082 66.1651C145.63 65.6835 144.396 65.924 143.327 66.7014Z" fill="white"/>
<path opacity="0.78" d="M53.4848 72.8351C52.2745 72.2808 51.1018 72.324 50.866 72.9323C50.6296 73.5406 51.4196 74.4828 52.6299 75.0371C53.8402 75.5914 55.013 75.5482 55.2494 74.9406C55.4858 74.3324 54.6958 73.3901 53.4855 72.8358L53.4848 72.8351Z" fill="white"/>
<path opacity="0.78" d="M148.589 119.722C147.379 119.168 146.206 119.211 145.97 119.819C145.733 120.427 146.523 121.369 147.733 121.924C148.944 122.479 150.116 122.435 150.352 121.827C150.589 121.219 149.799 120.277 148.588 119.722H148.589Z" fill="white"/>
<path d="M73.581 52.8582C72.8458 51.7792 71.82 51.2307 71.2902 51.6323C70.7604 52.034 70.9269 53.234 71.6622 54.313C72.3974 55.3913 73.4232 55.9406 73.953 55.5389C74.4828 55.1372 74.3163 53.9373 73.581 52.8582Z" fill="#91B3FA"/>
<path d="M129.56 140.446C128.824 139.367 127.799 138.818 127.269 139.22C126.739 139.621 126.905 140.821 127.641 141.9C128.376 142.979 129.402 143.528 129.931 143.126C130.461 142.725 130.295 141.525 129.56 140.446Z" fill="white"/>
<path d="M105.354 95.006L144.403 113.746C145.16 114.109 146.045 113.564 146.019 112.751L145.866 107.914C145.836 106.973 146.987 106.452 147.722 107.074L175.956 130.994C176.82 131.726 176.11 133.085 174.984 132.854L138.619 125.382C137.749 125.204 137.434 124.166 138.068 123.565L142.325 119.525C142.851 119.025 142.738 118.181 142.098 117.827L104.297 96.9021C103.771 96.6105 103.582 95.9677 103.873 95.4545C104.161 94.9463 104.815 94.7483 105.354 95.0067V95.006Z" fill="url(#paint1_linear_137_1176)"/>
<path opacity="0.72" d="M171.566 130.882C171.929 130.882 172.257 130.687 172.423 130.359C172.621 129.966 172.52 129.516 172.169 129.238L165.991 124.323C165.777 124.152 165.459 124.182 165.283 124.388C165.105 124.595 165.136 124.899 165.35 125.071L171.529 129.986C163.296 128.177 144.015 124.134 143.615 124.095C143.345 124.065 143.091 124.261 143.063 124.528C143.036 124.791 143.231 125.026 143.502 125.058C144.08 125.147 158.856 128.237 171.353 130.86C171.425 130.875 171.496 130.883 171.566 130.883V130.882Z" fill="white"/>
<path d="M101.282 93.1604L101.359 56.4214C101.346 55.608 100.435 55.1027 99.6973 55.4986L95.3046 57.8546C94.4504 58.3131 93.4391 57.5688 93.6755 56.6554L102.761 21.5295C103.039 20.4548 104.619 20.4368 104.923 21.5051L114.757 56.0104C114.992 56.836 114.18 57.5825 113.333 57.3176L107.647 55.5389C106.945 55.3186 106.217 55.8038 106.185 56.5143L103.516 93.1913C103.49 93.7751 102.984 94.2315 102.376 94.2193C101.775 94.207 101.291 93.7391 101.282 93.1604Z" fill="url(#paint2_linear_137_1176)"/>
<path opacity="0.72" d="M111.738 52.6416C111.799 52.6416 111.861 52.6315 111.922 52.6085C112.178 52.512 112.305 52.2363 112.211 51.9894C112.028 51.4574 108.082 37.4113 104.753 25.5254C104.635 25.105 104.264 24.8286 103.799 24.8394C103.345 24.8509 102.976 25.1453 102.88 25.5721L101.187 33.1117C101.129 33.373 101.301 33.6314 101.574 33.6876C101.842 33.7452 102.113 33.5789 102.172 33.3161L103.865 25.7766C105.983 33.6429 111.122 51.9736 111.269 52.3342C111.347 52.5257 111.537 52.6416 111.738 52.6416Z" fill="white"/>
<path d="M103.715 100.125C106.582 100.125 108.906 97.8888 108.906 95.1298C108.906 92.3708 106.582 90.1342 103.715 90.1342C100.848 90.1342 98.5234 92.3708 98.5234 95.1298C98.5234 97.8888 100.848 100.125 103.715 100.125Z" fill="url(#paint3_linear_137_1176)"/>
<path d="M49.985 191.435C53.3404 191.725 59.1647 192.195 63.7557 192.397C66.5158 192.519 68.1045 192.249 69.0199 191.882C69.0185 191.985 69.0156 192.082 69.0113 192.173C68.9897 192.655 68.5968 193.041 68.1088 193.068C59.4336 193.552 52.5338 193.235 50.0772 193.086C49.5691 193.056 49.267 192.504 49.5265 192.072C49.6563 191.856 49.8141 191.644 49.985 191.434V191.435Z" fill="url(#paint4_linear_137_1176)"/>
<path d="M63.7551 192.398C59.1641 192.196 53.3398 191.725 49.9844 191.436C53.2836 187.394 63.7551 184.669 63.7551 184.669H66.7127C68.7469 187.598 69.0417 190.386 69.0193 191.884C68.1039 192.249 66.5152 192.519 63.7551 192.398V192.398Z" fill="url(#paint5_linear_137_1176)"/>
<path d="M67.2106 179.847L66.9338 185.317C66.9035 185.909 66.4602 186.406 65.8662 186.491C65.2752 186.576 64.4837 186.586 63.6446 186.308C63.1285 186.136 62.7451 185.702 62.6499 185.172L61.6934 179.848H67.2106V179.847Z" fill="url(#paint6_linear_137_1176)"/>
<path d="M101.534 197.745C102.99 197.483 103.648 196.507 103.924 195.464C103.926 195.473 103.927 195.483 103.93 195.492C104.144 196.593 103.648 197.733 102.655 198.275C101.456 198.931 100.145 199.042 99.1267 198.988C98.0347 198.929 97.032 198.346 96.4806 197.413L96.4727 197.398C97.569 198.099 99.108 198.181 101.535 197.744L101.534 197.745Z" fill="url(#paint7_linear_137_1176)"/>
<path d="M94.6749 181.532H97.1142C100.829 181.435 103.162 191.548 103.926 195.464C103.65 196.507 102.992 197.483 101.536 197.745C99.1094 198.182 97.5704 198.099 96.4741 197.399C94.4673 193.99 93.4718 188.998 92.9939 186.084C92.4497 182.77 94.6756 181.532 94.6756 181.532H94.6749Z" fill="url(#paint8_linear_137_1176)"/>
<path d="M96.8005 176.456L98.1549 181.836C98.3207 182.495 98.005 183.177 97.3945 183.49C96.6369 183.878 95.57 184.287 94.5897 184.168C94.1284 184.113 93.7456 183.788 93.5935 183.355L91.6055 177.696L96.8012 176.456H96.8005Z" fill="url(#paint9_linear_137_1176)"/>
<path d="M49.1582 105.608C49.1582 105.608 61.2617 181.158 61.062 181.574C61.062 181.574 64.4045 183.091 68.049 181.767C68.049 181.767 66.9548 141.38 64.3901 125.895C64.3901 125.895 85.0462 161.993 91.6057 179.98C91.6057 179.98 95.0268 179.572 97.8589 177.711C97.8589 177.711 75.6184 112.736 69.6845 104.082L49.1582 105.608Z" fill="url(#paint10_linear_137_1176)"/>
<path d="M47.2491 52.8553C46.3841 52.9064 45.5314 53.072 44.714 53.3549C35.8441 56.4243 28.878 55.6519 23.523 53.2361C22.2817 54.8817 20.2829 58.3038 19.4121 64.0567C29.1599 71.3018 41.4183 69.3928 45.4269 68.4973C44.3773 76.273 44.3874 88.5736 48.6728 106.606C48.7852 107.078 49.191 107.427 49.6798 107.468C52.4182 107.694 61.5843 108.231 70.3971 106.254C70.7929 106.166 71.0091 105.741 70.852 105.372L70.7719 105.183C70.0374 103.457 69.7087 101.59 69.814 99.7195C70.134 94.0393 71.6643 81.2046 74.9261 72.4082C75.1157 72.7285 75.293 73.0445 75.4646 73.3591C76.0549 67.5738 78.2743 61.8828 79.8407 56.1435C67.0784 52.093 51.9021 52.5832 47.2484 52.8553H47.2491Z" fill="url(#paint11_linear_137_1176)"/>
<path d="M67.1603 42.3508C67.1603 42.3508 68.052 51.7641 68.837 54.5491C68.9559 54.9716 68.7721 55.4172 68.3879 55.6361C67.0558 56.3962 63.8603 57.6365 59.4892 55.4971C58.7814 55.1509 58.3554 54.4138 58.3885 53.6335L58.7734 44.5369L67.1603 42.3508Z" fill="url(#paint12_linear_137_1176)"/>
<path d="M58.5809 30.3079C58.5809 30.3079 55.7293 36.8498 55.5375 40.2827C55.3458 43.7163 54.6055 45.9442 58.5809 46.6352C62.5562 47.3263 65.9052 45.3489 67.7195 41.9289C67.7195 41.9289 70.5625 36.659 69.9246 34.501C69.2866 32.3429 58.5809 30.3079 58.5809 30.3079Z" fill="url(#paint13_linear_137_1176)"/>
<path d="M66.361 39.47L66.1346 39.3706C65.8463 39.2439 65.7231 38.9013 65.8679 38.622C66.4287 37.5401 67.5215 35.0617 66.1094 34.4837C64.7795 33.9388 63.34 33.6328 61.9726 33.1959C60.7032 32.7899 58.238 32.3652 57.5755 31.0277C57.3838 30.6412 57.5935 30.1848 57.8004 29.8062C58.1868 29.0971 58.5731 28.3874 58.9595 27.6783C59.286 27.0787 59.6241 26.4647 60.1445 26.022C61.3361 25.0092 62.7576 25.8982 64.076 26.1415C68.9805 27.0456 72.2228 29.0273 72.3035 32.412C72.3086 32.6272 72.5378 32.7467 72.7216 32.6344C73.0834 32.4141 73.663 32.3105 74.4379 32.9612C75.7851 34.0921 75.2337 37.0261 72.2812 39.439C72.1406 39.5535 72.142 39.7723 72.2941 39.8709C72.8297 40.2186 73.6277 41.0471 71.5596 42.1506C69.4209 43.2923 67.8243 43.1987 67.2094 43.0972C67.0566 43.072 66.9578 42.9237 66.991 42.7726L67.6477 39.7982C67.6851 39.6298 67.5561 39.4707 67.3838 39.4707H66.3617L66.361 39.47Z" fill="url(#paint14_linear_137_1176)"/>
<path d="M66.2383 40.0977C66.2383 40.0977 67.326 35.919 69.2023 37.0909C71.0787 38.2628 68.2285 41.7727 66.7205 41.9289L66.2383 40.0977Z" fill="url(#paint15_linear_137_1176)"/>
<path d="M56.2227 31.4201C60.8864 17.6115 80.2378 26.3164 73.857 38.3478C67.1584 35.3187 59.3554 30.4648 56.2227 31.4201Z" fill="url(#paint16_linear_137_1176)"/>
<path d="M67.6256 35.0912L55.4638 36.6871C55.1545 36.7274 54.8467 36.6036 54.6535 36.3589C53.2501 34.5802 51.461 33.5933 49.3655 33.2319C49.1003 33.1866 49.0923 32.8079 49.354 32.7475L56.6906 31.0357C56.6985 31.0335 56.7072 31.0328 56.7151 31.0321C60.4591 30.7139 64.0943 32.4027 67.6919 34.8048C67.8116 34.8847 67.7683 35.0718 67.6249 35.0912H67.6256Z" fill="url(#paint17_linear_137_1176)"/>
<path d="M70.2719 104.815C73.0615 104.868 75.3509 102.625 75.3509 99.839V77.6918C75.3509 74.7823 73.0089 72.4147 70.0953 72.383C61.3509 72.288 43.3157 72.283 28.5589 73.5247C26.5449 73.6939 24.9793 75.3423 24.9058 77.3593L23.5268 98.7708C23.4245 101.603 25.6662 103.969 28.5041 104.023L70.2712 104.815H70.2719Z" fill="url(#paint18_linear_137_1176)"/>
<path d="M70.2863 80.0881C70.3238 81.9727 70.2675 84.9629 70.2214 86.8942C70.1976 87.8991 69.3139 88.665 68.3141 88.5484L61.1173 87.7062C60.1586 87.5939 59.4832 86.7114 59.6266 85.7583L60.5097 79.8736C60.6351 79.0379 61.3538 78.4203 62.1993 78.4203H68.5772C69.5063 78.4203 70.2675 79.1603 70.2856 80.0881H70.2863Z" fill="white"/>
<path opacity="0.37" d="M51.4803 91.2398L45.4773 91.8862C44.6375 91.9769 43.9203 91.2852 43.9823 90.4437L45.2949 72.6112C47.8113 72.5313 50.2938 72.4737 52.6884 72.4327V89.8966C52.6884 90.5869 52.1673 91.1664 51.4803 91.2405V91.2398Z" fill="white"/>
<path d="M49.0195 88.1496C49.0008 88.4707 48.7348 88.7176 48.4169 88.7176C48.4053 88.7176 48.3931 88.7176 48.3816 88.7161C48.0485 88.6967 47.7941 88.4116 47.8135 88.0791L48.7189 72.5155C49.1247 72.5054 49.5277 72.4968 49.9299 72.4874L49.0188 88.1489L49.0195 88.1496Z" fill="white"/>
<path d="M66.9586 85.7058C67.0639 85.7058 67.1525 85.6244 67.1597 85.5172L67.4711 80.6151C67.4784 80.5042 67.394 80.4092 67.283 80.402C67.1662 80.3926 67.0768 80.479 67.0696 80.5899L66.7582 85.492C66.751 85.6028 66.8354 85.6978 66.9464 85.705C66.9507 85.705 66.955 85.705 66.9586 85.705V85.7058Z" fill="url(#paint19_linear_137_1176)"/>
<path d="M66.3172 85.7057C66.4253 85.7057 66.5147 85.6201 66.5183 85.5114L66.6812 80.5157C66.6848 80.4049 66.5976 80.3113 66.4866 80.3077C66.3583 80.3012 66.2826 80.3912 66.2782 80.5021L66.1153 85.4977C66.1117 85.6086 66.199 85.7022 66.31 85.7057H66.3165H66.3172Z" fill="url(#paint20_linear_137_1176)"/>
<path d="M65.4498 85.705C65.3388 85.7 65.253 85.6057 65.258 85.4948C65.338 83.8161 65.4901 80.615 65.4923 80.5063C65.493 80.3962 65.5831 80.3069 65.6934 80.3069C65.8037 80.3069 65.8945 80.3969 65.8945 80.5078C65.8945 80.5906 65.6985 84.6922 65.6595 85.5135C65.6545 85.6215 65.5658 85.705 65.4584 85.705C65.4555 85.705 65.4519 85.705 65.449 85.705H65.4498Z" fill="url(#paint21_linear_137_1176)"/>
<path d="M64.1168 85.9066C64.3323 85.9066 64.5111 85.736 64.5183 85.5186C64.6884 80.6777 64.6589 80.569 64.6387 80.4963C64.5803 80.2818 64.3569 80.1558 64.1442 80.2141C63.9474 80.2681 63.8242 80.4589 63.8508 80.6554C63.8638 80.9462 63.7737 83.7629 63.7132 85.4898C63.7052 85.7115 63.8789 85.898 64.101 85.9059C64.106 85.9059 64.1111 85.9059 64.1154 85.9059L64.1168 85.9066Z" fill="url(#paint22_linear_137_1176)"/>
<path d="M63.2441 85.7057C63.3551 85.7057 63.4452 85.6157 63.4452 85.5049V80.6028C63.4452 80.492 63.3551 80.402 63.2441 80.402C63.1331 80.402 63.043 80.492 63.043 80.6028V85.5049C63.043 85.6157 63.1331 85.7057 63.2441 85.7057Z" fill="url(#paint23_linear_137_1176)"/>
<path d="M62.5398 85.7058C62.6493 85.7058 62.7387 85.6187 62.7409 85.5092C62.7791 83.8061 62.8692 81.0239 62.9499 80.6892C62.9852 80.6259 62.9852 80.546 62.9427 80.4805C62.8814 80.3869 62.7575 80.3617 62.6637 80.4229C62.5542 80.4949 62.4497 80.5625 62.3379 85.4999C62.3358 85.6107 62.4237 85.7029 62.5347 85.7058H62.5398Z" fill="url(#paint24_linear_137_1176)"/>
<path d="M68.0422 86.152C68.2548 86.152 68.4329 85.9858 68.4437 85.7705L68.7118 80.623C68.7233 80.4013 68.5525 80.2127 68.3305 80.2004C68.12 80.1853 67.9196 80.3595 67.9074 80.5812L67.6392 85.7288C67.6277 85.9505 67.7985 86.1391 68.0205 86.1513C68.0277 86.1513 68.035 86.1513 68.0414 86.1513L68.0422 86.152Z" fill="url(#paint25_linear_137_1176)"/>
<path d="M55.4229 73.2058C57.5112 73.2454 59.2253 71.566 59.2253 69.4807V52.9014C59.2253 50.7232 57.4722 48.951 55.291 48.9272C48.7452 48.856 35.244 48.8524 24.1973 49.7824C22.69 49.9091 21.5173 51.1429 21.4625 52.6531L20.4302 68.6817C20.3538 70.8016 22.0319 72.5731 24.1562 72.6134L55.4236 73.2066L55.4229 73.2058Z" fill="url(#paint26_linear_137_1176)"/>
<path d="M55.4334 54.6945C55.4616 56.1054 55.419 58.3434 55.3851 59.7895C55.3671 60.5417 54.7061 61.1155 53.9572 61.0276L48.5697 60.3971C47.8518 60.3128 47.3465 59.6527 47.4539 58.9387L48.1149 54.5333C48.2086 53.9077 48.747 53.4449 49.3799 53.4449H54.154C54.8496 53.4449 55.419 53.9992 55.4327 54.6938L55.4334 54.6945Z" fill="white"/>
<path opacity="0.37" d="M41.3535 63.0432L36.8599 63.5277C36.2313 63.5953 35.6943 63.0778 35.7411 62.4479L36.7236 49.0986C38.6072 49.0388 40.4655 48.9956 42.2589 48.9647V62.0383C42.2589 62.5552 41.8689 62.9885 41.3542 63.0446L41.3535 63.0432Z" fill="white"/>
<path d="M39.5126 60.7296C39.4989 60.9701 39.2993 61.1551 39.0621 61.1551C39.0535 61.1551 39.0441 61.1551 39.0354 61.1543C38.786 61.1399 38.5957 60.9269 38.6101 60.6778L39.2877 49.0266C39.5919 49.0194 39.8932 49.0122 40.1945 49.0057L39.5126 60.7304V60.7296Z" fill="white"/>
<path d="M52.942 58.8998C53.0205 58.8998 53.0876 58.8387 53.0926 58.7587L53.3254 55.089C53.3305 55.0062 53.2678 54.935 53.1842 54.9292C53.0969 54.9227 53.0299 54.9868 53.0241 55.0703L52.7913 58.74C52.7863 58.8228 52.849 58.8941 52.9326 58.8998C52.9355 58.8998 52.9391 58.8998 52.942 58.8998Z" fill="url(#paint27_linear_137_1176)"/>
<path d="M52.4613 58.8998C52.542 58.8998 52.6091 58.8358 52.6119 58.7544L52.7338 55.0141C52.7367 54.9306 52.6711 54.8615 52.5882 54.8587C52.4923 54.8536 52.4353 54.9213 52.4325 55.0041L52.3106 58.7443C52.3078 58.8278 52.3734 58.8969 52.4562 58.8998H52.4613Z" fill="url(#paint28_linear_137_1176)"/>
<path d="M51.8116 58.8999C51.728 58.8963 51.6639 58.8257 51.6682 58.7429C51.728 57.4868 51.8419 55.0905 51.8433 55.0084C51.8433 54.9264 51.9111 54.8594 51.994 54.8594C52.0769 54.8594 52.1446 54.9271 52.1446 55.0099C52.1446 55.0718 51.9983 58.1419 51.9688 58.7566C51.9652 58.8372 51.8981 58.8999 51.8181 58.8999C51.8159 58.8999 51.8131 58.8999 51.8109 58.8999H51.8116Z" fill="url(#paint29_linear_137_1176)"/>
<path d="M50.8139 59.051C50.9754 59.051 51.1095 58.9229 51.1145 58.7609C51.2421 55.1373 51.2198 55.0559 51.2046 55.0012C51.1614 54.8407 50.9941 54.7464 50.8348 54.7896C50.6871 54.8299 50.5955 54.9724 50.615 55.12C50.6244 55.3381 50.5573 57.4458 50.5119 58.7393C50.5061 58.9056 50.6359 59.0453 50.8024 59.0503C50.806 59.0503 50.8096 59.0503 50.8132 59.0503L50.8139 59.051Z" fill="url(#paint30_linear_137_1176)"/>
<path d="M50.1604 58.8999C50.244 58.8999 50.3111 58.8329 50.3111 58.7494V55.0797C50.3111 54.9962 50.244 54.9293 50.1604 54.9293C50.0768 54.9293 50.0098 54.9962 50.0098 55.0797V58.7494C50.0098 58.8329 50.0768 58.8999 50.1604 58.8999Z" fill="url(#paint31_linear_137_1176)"/>
<path d="M49.6331 58.8999C49.7146 58.8999 49.7823 58.8344 49.7838 58.753C49.8126 57.4782 49.8803 55.395 49.9402 55.1445C49.9668 55.097 49.9661 55.0372 49.9344 54.9883C49.889 54.9185 49.7953 54.8997 49.7261 54.9451C49.6439 54.9991 49.5661 55.0495 49.4824 58.7458C49.481 58.8293 49.5466 58.8977 49.6295 58.8999H49.6331Z" fill="url(#paint32_linear_137_1176)"/>
<path d="M53.7529 59.2346C53.9122 59.2346 54.0448 59.11 54.0535 58.9495L54.2546 55.0962C54.2632 54.93 54.1357 54.7889 53.9691 54.7802C53.8113 54.7694 53.6613 54.899 53.6527 55.0653L53.4516 58.9186C53.4429 59.0848 53.5705 59.2259 53.737 59.2346C53.7421 59.2346 53.7478 59.2346 53.7529 59.2346Z" fill="url(#paint33_linear_137_1176)"/>
<path d="M18.9554 58.5125C19.8737 58.2872 21.9367 55.5 22.1566 56.5186C22.3757 57.5372 21.7536 58.8286 21.8459 59.2612C21.9382 59.6945 22.6309 62.1196 22.0802 63.1375C21.683 63.8717 20.9038 66.1817 20.5008 67.4111C20.3668 67.8193 20.2579 68.3577 19.8305 68.3102C19.403 68.262 19.0722 67.6883 19.0325 67.2607C19.0167 67.0894 18.0363 58.7378 18.9547 58.5125H18.9554Z" fill="url(#paint34_linear_137_1176)"/>
<path d="M84.7658 61.9512C83.6348 59.3591 80.0293 56.2033 79.8404 56.1436C78.274 61.8828 75.5169 66.6229 74.9258 72.4082C78.7916 79.4986 77.905 87.8602 75.4909 91.9266C76.6781 93.6873 78.0664 96.0844 79.2688 99.0666C94.1316 90.1824 88.2482 69.9334 84.7651 61.9519L84.7658 61.9512Z" fill="url(#paint35_linear_137_1176)"/>
<path d="M65.6768 105.496L52.8086 105.216C52.8086 105.216 64.0298 102.048 64.7261 102.911C64.7261 102.911 71.6814 98.3468 75.4924 91.9266C76.6796 93.6874 78.0679 96.0844 79.2703 99.0667C75.8535 101.07 71.3656 104.55 65.6761 105.496H65.6768Z" fill="url(#paint36_linear_137_1176)"/>
<path d="M66.0394 103.27C66.0394 103.27 66.3046 108.39 59.5742 107.646C55.9168 107.243 50.0117 103.836 50.0117 103.836C50.0117 103.836 65.4036 103.795 66.0394 103.27Z" fill="url(#paint37_linear_137_1176)"/>
</g>
<defs>
<linearGradient id="paint0_linear_137_1176" x1="126.394" y1="39.009" x2="125.692" y2="133.269" gradientUnits="userSpaceOnUse">
<stop stop-color="#09005D"/>
<stop offset="1" stop-color="#1A0F91"/>
</linearGradient>
<linearGradient id="paint1_linear_137_1176" x1="293.64" y1="-10.6421" x2="121.865" y2="128.989" gradientUnits="userSpaceOnUse">
<stop stop-color="#FF928E"/>
<stop offset="1" stop-color="#FE7062"/>
</linearGradient>
<linearGradient id="paint2_linear_137_1176" x1="251.329" y1="-62.6949" x2="79.5536" y2="76.9359" gradientUnits="userSpaceOnUse">
<stop stop-color="#FF928E"/>
<stop offset="1" stop-color="#FE7062"/>
</linearGradient>
<linearGradient id="paint3_linear_137_1176" x1="150.005" y1="37.1931" x2="113.974" y2="82.4142" gradientUnits="userSpaceOnUse">
<stop stop-color="#FF928E"/>
<stop offset="0.67" stop-color="#FE7B70"/>
<stop offset="1" stop-color="#FE7062"/>
</linearGradient>
<linearGradient id="paint4_linear_137_1176" x1="69.0192" y1="192.382" x2="49.4314" y2="192.382" gradientUnits="userSpaceOnUse">
<stop stop-color="#4F52FF"/>
<stop offset="1" stop-color="#4042E2"/>
</linearGradient>
<linearGradient id="paint5_linear_137_1176" x1="69.02" y1="188.548" x2="49.9837" y2="188.548" gradientUnits="userSpaceOnUse">
<stop stop-color="#09005D"/>
<stop offset="1" stop-color="#1A0F91"/>
</linearGradient>
<linearGradient id="paint6_linear_137_1176" x1="67.2099" y1="183.195" x2="61.6926" y2="183.195" gradientUnits="userSpaceOnUse">
<stop stop-color="#FEBBBA"/>
<stop offset="1" stop-color="#FF928E"/>
</linearGradient>
<linearGradient id="paint7_linear_137_1176" x1="103.979" y1="197.232" x2="96.4727" y2="197.232" gradientUnits="userSpaceOnUse">
<stop stop-color="#4F52FF"/>
<stop offset="1" stop-color="#4042E2"/>
</linearGradient>
<linearGradient id="paint8_linear_137_1176" x1="103.925" y1="189.772" x2="92.9074" y2="189.772" gradientUnits="userSpaceOnUse">
<stop stop-color="#09005D"/>
<stop offset="1" stop-color="#1A0F91"/>
</linearGradient>
<linearGradient id="paint9_linear_137_1176" x1="98.1982" y1="180.322" x2="91.6047" y2="180.322" gradientUnits="userSpaceOnUse">
<stop stop-color="#FEBBBA"/>
<stop offset="1" stop-color="#FF928E"/>
</linearGradient>
<linearGradient id="paint10_linear_137_1176" x1="132.661" y1="28.3083" x2="79.36" y2="130.728" gradientUnits="userSpaceOnUse">
<stop stop-color="#09005D"/>
<stop offset="1" stop-color="#1A0F91"/>
</linearGradient>
<linearGradient id="paint11_linear_137_1176" x1="19.4128" y1="80.1932" x2="79.8414" y2="80.1932" gradientUnits="userSpaceOnUse">
<stop stop-color="#090056"/>
<stop offset="1" stop-color="#020039"/>
</linearGradient>
<linearGradient id="paint12_linear_137_1176" x1="65.7143" y1="63.5478" x2="62.8645" y2="48.5673" gradientUnits="userSpaceOnUse">
<stop stop-color="#FEBBBA"/>
<stop offset="1" stop-color="#FF928E"/>
</linearGradient>
<linearGradient id="paint13_linear_137_1176" x1="57.9833" y1="36.0659" x2="74.2675" y2="48.5436" gradientUnits="userSpaceOnUse">
<stop stop-color="#FEBBBA"/>
<stop offset="1" stop-color="#FF928E"/>
</linearGradient>
<linearGradient id="paint14_linear_137_1176" x1="71.1516" y1="27.5171" x2="55.9956" y2="47.0579" gradientUnits="userSpaceOnUse">
<stop stop-color="#09005D"/>
<stop offset="1" stop-color="#1A0F91"/>
</linearGradient>
<linearGradient id="paint15_linear_137_1176" x1="60.006" y1="33.427" x2="76.2909" y2="45.9047" gradientUnits="userSpaceOnUse">
<stop stop-color="#FEBBBA"/>
<stop offset="1" stop-color="#FF928E"/>
</linearGradient>
<linearGradient id="paint16_linear_137_1176" x1="110.286" y1="7.65436" x2="70.2673" y2="30.3174" gradientUnits="userSpaceOnUse">
<stop stop-color="#FF928E"/>
<stop offset="1" stop-color="#FE7062"/>
</linearGradient>
<linearGradient id="paint17_linear_137_1176" x1="109.003" y1="5.3937" x2="68.985" y2="28.0561" gradientUnits="userSpaceOnUse">
<stop stop-color="#FF928E"/>
<stop offset="1" stop-color="#FE7062"/>
</linearGradient>
<linearGradient id="paint18_linear_137_1176" x1="24.7531" y1="82.9525" x2="58.3701" y2="126.106" gradientUnits="userSpaceOnUse">
<stop stop-color="#CB236D"/>
<stop offset="1" stop-color="#4C246D"/>
</linearGradient>
<linearGradient id="paint19_linear_137_1176" x1="64.6808" y1="79.5224" x2="77.5386" y2="98.2324" gradientUnits="userSpaceOnUse">
<stop stop-color="#09005D"/>
<stop offset="1" stop-color="#1A0F91"/>
</linearGradient>
<linearGradient id="paint20_linear_137_1176" x1="64.2167" y1="79.8405" x2="77.0745" y2="98.5505" gradientUnits="userSpaceOnUse">
<stop stop-color="#09005D"/>
<stop offset="1" stop-color="#1A0F91"/>
</linearGradient>
<linearGradient id="paint21_linear_137_1176" x1="63.6592" y1="80.2242" x2="76.517" y2="98.9342" gradientUnits="userSpaceOnUse">
<stop stop-color="#09005D"/>
<stop offset="1" stop-color="#1A0F91"/>
</linearGradient>
<linearGradient id="paint22_linear_137_1176" x1="62.6917" y1="80.8886" x2="75.5496" y2="99.5986" gradientUnits="userSpaceOnUse">
<stop stop-color="#09005D"/>
<stop offset="1" stop-color="#1A0F91"/>
</linearGradient>
<linearGradient id="paint23_linear_137_1176" x1="62.0547" y1="81.327" x2="74.9126" y2="100.037" gradientUnits="userSpaceOnUse">
<stop stop-color="#09005D"/>
<stop offset="1" stop-color="#1A0F91"/>
</linearGradient>
<linearGradient id="paint24_linear_137_1176" x1="61.6589" y1="81.5991" x2="74.5167" y2="100.308" gradientUnits="userSpaceOnUse">
<stop stop-color="#09005D"/>
<stop offset="1" stop-color="#1A0F91"/>
</linearGradient>
<linearGradient id="paint25_linear_137_1176" x1="65.3434" y1="79.0667" x2="78.2012" y2="97.7766" gradientUnits="userSpaceOnUse">
<stop stop-color="#09005D"/>
<stop offset="1" stop-color="#1A0F91"/>
</linearGradient>
<linearGradient id="paint26_linear_137_1176" x1="21.3483" y1="56.8394" x2="46.514" y2="89.1437" gradientUnits="userSpaceOnUse">
<stop stop-color="#CB236D"/>
<stop offset="1" stop-color="#4C246D"/>
</linearGradient>
<linearGradient id="paint27_linear_137_1176" x1="51.2365" y1="54.2713" x2="60.8624" y2="68.2773" gradientUnits="userSpaceOnUse">
<stop stop-color="#09005D"/>
<stop offset="1" stop-color="#1A0F91"/>
</linearGradient>
<linearGradient id="paint28_linear_137_1176" x1="50.8884" y1="54.5095" x2="60.5143" y2="68.5156" gradientUnits="userSpaceOnUse">
<stop stop-color="#09005D"/>
<stop offset="1" stop-color="#1A0F91"/>
</linearGradient>
<linearGradient id="paint29_linear_137_1176" x1="50.4716" y1="54.7968" x2="60.0968" y2="68.8036" gradientUnits="userSpaceOnUse">
<stop stop-color="#09005D"/>
<stop offset="1" stop-color="#1A0F91"/>
</linearGradient>
<linearGradient id="paint30_linear_137_1176" x1="49.7471" y1="55.2942" x2="59.3723" y2="69.3009" gradientUnits="userSpaceOnUse">
<stop stop-color="#09005D"/>
<stop offset="1" stop-color="#1A0F91"/>
</linearGradient>
<linearGradient id="paint31_linear_137_1176" x1="49.2695" y1="55.6225" x2="58.8947" y2="69.6285" gradientUnits="userSpaceOnUse">
<stop stop-color="#09005D"/>
<stop offset="1" stop-color="#1A0F91"/>
</linearGradient>
<linearGradient id="paint32_linear_137_1176" x1="48.9735" y1="55.8262" x2="58.5987" y2="69.8322" gradientUnits="userSpaceOnUse">
<stop stop-color="#09005D"/>
<stop offset="1" stop-color="#1A0F91"/>
</linearGradient>
<linearGradient id="paint33_linear_137_1176" x1="51.7331" y1="53.9301" x2="61.3584" y2="67.9361" gradientUnits="userSpaceOnUse">
<stop stop-color="#09005D"/>
<stop offset="1" stop-color="#1A0F91"/>
</linearGradient>
<linearGradient id="paint34_linear_137_1176" x1="25.4577" y1="45.8743" x2="1.40204" y2="118.127" gradientUnits="userSpaceOnUse">
<stop stop-color="#FEBBBA"/>
<stop offset="1" stop-color="#FF928E"/>
</linearGradient>
<linearGradient id="paint35_linear_137_1176" x1="74.9258" y1="77.6047" x2="88.8983" y2="77.6047" gradientUnits="userSpaceOnUse">
<stop stop-color="#090056"/>
<stop offset="1" stop-color="#020039"/>
</linearGradient>
<linearGradient id="paint36_linear_137_1176" x1="-363.471" y1="-994.897" x2="-388.434" y2="-1058.84" gradientUnits="userSpaceOnUse">
<stop stop-color="#FEBBBA"/>
<stop offset="1" stop-color="#FF928E"/>
</linearGradient>
<linearGradient id="paint37_linear_137_1176" x1="63.0667" y1="91.124" x2="88.0312" y2="27.1864" gradientUnits="userSpaceOnUse">
<stop stop-color="#FEBBBA"/>
<stop offset="1" stop-color="#FF928E"/>
</linearGradient>
<clipPath id="clip0_137_1176">
<rect width="202" height="202" fill="white"/>
</clipPath>
</defs>
</svg>
