<svg width="399" height="79" viewBox="0 0 399 79" fill="none" xmlns="http://www.w3.org/2000/svg">
<g opacity="0.05">
<path d="M12.9808 11.7432V48.7199C12.9808 50.3374 13.8141 51.1785 15.4808 51.2432H49.1346C50.3526 51.1785 51.4103 50.6609 52.3077 49.6904C53.2051 48.6552 53.8462 47.4906 54.2308 46.1966C54.6795 44.8378 54.9038 43.4791 54.9038 42.1204C54.9038 40.8264 54.6795 39.5324 54.2308 38.2383C53.8462 36.8796 53.2051 35.715 52.3077 34.7445C51.4103 33.7093 50.3526 33.1916 49.1346 33.1916H24.5192C22.7244 33.1916 21.1859 32.577 19.9038 31.3477C18.6859 30.0536 18.0769 28.5008 18.0769 26.6892C18.0769 24.8776 18.7179 23.3571 20 22.1278C21.2179 20.8337 22.7244 20.1867 24.5192 20.1867H48.75C53.2372 20.2514 56.9231 21.5455 59.8077 24.0688C62.7564 26.5274 64.8397 29.3419 66.0577 32.5123C67.3397 35.6179 67.9808 38.853 67.9808 42.2174C67.9808 45.4525 67.3397 48.6552 66.0577 51.8256C64.7756 54.9312 62.6923 57.7457 59.8077 60.269C56.9231 62.7277 52.6603 64.0541 47.0192 64.2482H6.63462C4.83974 64.2482 3.30128 63.6658 2.01923 62.5012C0.73718 61.2719 0.0641026 59.7514 0 57.9398V11.7432C0 9.93161 0.641026 8.44349 1.92308 7.27887C3.26923 6.04955 4.83974 5.43489 6.63462 5.43489C10.4808 5.75839 12.5962 7.86118 12.9808 11.7432Z" fill="white"/>
<path d="M83.0308 19.2162C84.7615 19.2809 86.2359 19.9279 87.4538 21.1572C88.6718 22.3219 89.3128 23.7776 89.3769 25.5246V59.1044C88.9923 62.9865 86.8769 65.0893 83.0308 65.4128C81.2359 65.4128 79.6654 64.8305 78.3192 63.6658C77.0372 62.4365 76.3962 60.9161 76.3962 59.1044V25.5246C76.4603 23.7129 77.1333 22.2248 78.4154 21.0602C79.6974 19.8309 81.2359 19.2162 83.0308 19.2162ZM74.9538 6.59951C74.9538 4.78788 75.7231 3.23505 77.2615 1.94103C78.8 0.647011 80.659 0 82.8385 0C85.018 0 86.8769 0.647011 88.4154 1.94103C89.9538 3.23505 90.7231 4.78788 90.7231 6.59951C90.7231 8.47584 89.9538 10.061 88.4154 11.355C86.8769 12.6491 85.018 13.2961 82.8385 13.2961C80.659 13.2961 78.8 12.6491 77.2615 11.355C75.7231 10.061 74.9538 8.47584 74.9538 6.59951Z" fill="white"/>
<path d="M119.042 64.2482C113.401 64.0541 109.138 62.7277 106.254 60.269C103.369 57.7457 101.286 54.9312 100.004 51.8256C98.7218 48.6552 98.0808 45.4525 98.0808 42.2174C98.0808 38.853 98.6897 35.6179 99.9077 32.5123C101.19 29.3419 103.273 26.5274 106.158 24.0688C109.106 21.5455 112.824 20.2514 117.312 20.1867H148.465C152.953 20.2514 156.638 21.5455 159.523 24.0688C162.472 26.5274 164.555 29.3419 165.773 32.5123C167.055 35.6179 167.696 38.853 167.696 42.2174C167.696 45.4525 167.055 48.6552 165.773 51.8256C164.491 54.9312 162.408 57.7457 159.523 60.269C156.638 62.7277 152.376 64.0541 146.735 64.2482H119.042ZM116.927 33.1916C115.709 33.1916 114.651 33.7093 113.754 34.7445C112.856 35.715 112.183 36.8796 111.735 38.2383C111.35 39.5324 111.158 40.8264 111.158 42.1204C111.158 43.4791 111.35 44.8378 111.735 46.1966C112.183 47.4906 112.856 48.6552 113.754 49.6904C114.651 50.6609 115.709 51.1785 116.927 51.2432H148.85C150.068 51.1785 151.126 50.6609 152.023 49.6904C152.921 48.6552 153.562 47.4906 153.946 46.1966C154.395 44.8378 154.619 43.4791 154.619 42.1204C154.619 40.8264 154.395 39.5324 153.946 38.2383C153.562 36.8796 152.921 35.715 152.023 34.7445C151.126 33.7093 150.068 33.1916 148.85 33.1916H116.927Z" fill="white"/>
<path d="M196.688 64.2482C191.047 64.0541 186.785 62.7277 183.9 60.269C181.015 57.7457 178.932 54.9312 177.65 51.8256C176.368 48.6552 175.727 45.4525 175.727 42.2174C175.727 38.853 176.336 35.6179 177.554 32.5123C178.836 29.3419 180.919 26.5274 183.804 24.0688C186.753 21.5455 190.471 20.2514 194.958 20.1867H226.112C230.599 20.2514 234.285 21.5455 237.169 24.0688C240.118 26.5274 242.201 29.3419 243.419 32.5123C244.701 35.6179 245.342 38.853 245.342 42.2174C245.342 45.4525 244.701 48.6552 243.419 51.8256C242.137 54.9312 240.054 57.7457 237.169 60.269C234.285 62.7277 230.022 64.0541 224.381 64.2482H196.688ZM194.573 33.1916C193.355 33.1916 192.297 33.7093 191.4 34.7445C190.503 35.715 189.829 36.8796 189.381 38.2383C188.996 39.5324 188.804 40.8264 188.804 42.1204C188.804 43.4791 188.996 44.8378 189.381 46.1966C189.829 47.4906 190.503 48.6552 191.4 49.6904C192.297 50.6609 193.355 51.1785 194.573 51.2432H226.496C227.714 51.1785 228.772 50.6609 229.669 49.6904C230.567 48.6552 231.208 47.4906 231.592 46.1966C232.041 44.8378 232.265 43.4791 232.265 42.1204C232.265 40.8264 232.041 39.5324 231.592 38.2383C231.208 36.8796 230.567 35.715 229.669 34.7445C228.772 33.7093 227.714 33.1916 226.496 33.1916H194.573Z" fill="white"/>
<path d="M267.412 72.6917C267.027 76.5737 264.912 78.6765 261.065 79C259.271 79 257.7 78.3853 256.354 77.156C255.072 75.9914 254.431 74.5033 254.431 72.6917V26.4951C254.495 24.6835 255.168 23.1953 256.45 22.0307C257.732 20.8014 259.271 20.1867 261.065 20.1867H301.45C307.091 20.3808 311.354 21.7396 314.238 24.2629C317.123 26.7215 319.206 29.536 320.488 32.7064C321.771 35.812 322.412 38.9824 322.412 42.2174C322.412 45.5819 321.771 48.8493 320.488 52.0197C319.271 55.1253 317.187 57.9398 314.238 60.4631C311.354 62.9218 307.668 64.1835 303.181 64.2482H278.95C277.155 64.2482 275.649 63.6011 274.431 62.3071C273.149 61.0778 272.508 59.5573 272.508 57.7457C272.508 55.9341 273.117 54.4136 274.335 53.1843C275.617 51.8903 277.155 51.2432 278.95 51.2432H303.565C304.783 51.2432 305.841 50.758 306.738 49.7875C307.636 48.7523 308.277 47.5876 308.662 46.2936C309.11 44.9349 309.335 43.6085 309.335 42.3145C309.335 40.9558 309.11 39.6294 308.662 38.3354C308.277 36.9767 307.636 35.812 306.738 34.8415C305.841 33.8063 304.783 33.2563 303.565 33.1916H269.912C268.245 33.2563 267.412 34.0975 267.412 35.715V72.6917Z" fill="white"/>
<path d="M353.038 5.43489C354.833 5.43489 356.372 6.04955 357.654 7.27887C358.936 8.44349 359.609 9.93161 359.673 11.7432V20.1867H392.365C394.16 20.1867 395.699 20.8014 396.981 22.0307C398.199 23.3247 398.808 24.8776 398.808 26.6892C398.808 28.5008 398.167 30.0536 396.885 31.3477C395.667 32.577 394.16 33.1916 392.365 33.1916H359.673V35.1327C359.609 37.7854 359.769 40.2441 360.154 42.5086C360.603 44.7084 361.628 46.6818 363.231 48.4287C364.833 50.1757 366.853 51.1138 369.288 51.2432H392.75C394.545 51.3079 396.019 51.9873 397.173 53.2813C398.391 54.5753 399 56.1282 399 57.9398C398.936 59.6867 398.295 61.1749 397.077 62.4042C395.923 63.5688 394.481 64.1835 392.75 64.2482H366.019C361.532 63.9894 357.814 62.4689 354.865 59.6867C351.981 56.8399 349.897 53.3784 348.615 49.3022C347.397 45.226 346.756 40.8911 346.692 36.2973V33.1916H335.635C333.84 33.1916 332.333 32.5446 331.115 31.2506C329.833 30.0213 329.192 28.5008 329.192 26.6892C329.192 24.8776 329.801 23.3571 331.019 22.1278C332.301 20.8337 333.84 20.1867 335.635 20.1867H346.692V11.7432C346.756 9.99632 347.397 8.54054 348.615 7.37592C349.833 6.1466 351.308 5.49959 353.038 5.43489Z" fill="white"/>
</g>
</svg>
