<svg width="202" height="201" viewBox="0 0 202 201" fill="none" xmlns="http://www.w3.org/2000/svg">
<path d="M14.0443 177.074C14.0443 178.822 15.469 180.251 17.2107 180.251H188.418C190.159 180.251 191.585 178.822 191.585 177.074L193.009 78.247C193.009 76.4996 190.96 73.0884 187.203 73.3443L19.8805 68.9957C17.6959 68.9389 15.5835 69.7835 14.0357 71.3324C12.4886 72.8814 11.6421 74.9996 11.6936 77.1918L14.045 177.074L14.0443 177.074Z" fill="white"/>
<path d="M17.1693 174.026C17.1693 175.681 18.5174 177.035 20.1646 177.035H184.289C185.936 177.035 187.284 175.681 187.284 174.026L188.629 84.3098C188.47 78.9111 183.758 76.9705 180.901 77.0847L20.5375 72.7635C19.0026 72.7218 17.5185 73.3163 16.4315 74.4052C15.3445 75.4941 14.7463 76.9848 14.785 78.5266L17.17 174.025L17.1693 174.026Z" fill="url(#paint0_linear_137_894)"/>
<path d="M185.511 131.405H185.505C185.262 131.401 185.068 131.201 185.072 130.957L185.178 123.681C185.182 123.439 185.378 123.247 185.617 123.247H185.623C185.866 123.25 186.06 123.45 186.056 123.695L185.95 130.971C185.946 131.212 185.75 131.405 185.511 131.405Z" fill="white"/>
<path d="M185.771 113.575H185.765C185.522 113.571 185.328 113.371 185.333 113.127L185.74 85.2607C185.732 83.6054 185.232 82.2836 184.253 81.3413C182.425 79.5825 179.524 79.6723 179.402 79.6781L128.146 78.2973C127.904 78.2908 127.712 78.0881 127.719 77.8452C127.725 77.6015 127.911 77.3945 128.17 77.4168L179.395 78.7976C179.713 78.7789 182.803 78.725 184.86 80.7052C186.017 81.8192 186.609 83.3538 186.618 85.2657L186.211 113.141C186.207 113.382 186.011 113.575 185.772 113.575H185.771Z" fill="white"/>
<path d="M0.559402 188.455L201.598 188.455C201.821 188.455 202.002 188.273 202.002 188.049V180.178C202.002 179.954 201.821 179.772 201.598 179.772L0.559402 179.772C0.336105 179.772 0.155106 179.954 0.155106 180.178V188.049C0.155106 188.273 0.336105 188.455 0.559402 188.455Z" fill="white"/>
<path opacity="0.9" d="M50.5018 79.159C51.2403 87.0834 52.9727 97.5602 55.0557 106.589H56.3638C53.6703 95.6935 51.1916 80.7734 51.9215 63.5741C52.6578 46.2295 56.8096 25.1711 49.0671 15.1113C42.6233 6.73912 15.2798 5.48703 6.28793 5.30303C5.16448 5.28003 4.52117 6.604 5.22029 7.50389C8.66721 11.9415 15.8859 22.2177 16.5149 31.1915C17.3435 43.0195 26.3297 52.3031 35.2579 56.1679C44.1861 60.0327 48.9948 62.9804 50.5018 79.159V79.159Z" fill="#70E5B2"/>
<g style="mix-blend-mode:soft-light">
<path d="M17.5295 12.6143C23.0602 14.0504 28.2918 16.6315 32.8686 20.1671C35.1613 21.928 37.2393 23.9967 39.0311 26.3068C40.8036 28.6298 42.2927 31.2023 43.326 33.9659L43.7088 35.0038C43.834 35.3503 43.9278 35.7082 44.038 36.0597C44.1403 36.4126 44.2555 36.7684 44.3457 37.1192L44.619 38.17C44.9861 39.5709 45.3475 40.9732 45.6938 42.3798C46.3915 45.1916 47.0448 48.0149 47.6559 50.8476C48.8802 56.5129 49.9329 62.2163 50.6434 67.9829C50.6606 68.1209 50.5647 68.2475 50.4295 68.2647C50.2992 68.2812 50.179 68.1907 50.1561 68.0599L50.1547 68.0519C49.6502 65.2135 49.0913 62.3744 48.4802 59.5525C47.882 56.7271 47.2502 53.9088 46.5883 51.0977L45.5822 46.885L44.5303 42.6846C44.1804 41.2844 43.8168 39.8871 43.4462 38.492L43.1707 37.4455C43.0791 37.0962 42.9696 36.7655 42.8701 36.4241C42.7657 36.0863 42.6784 35.7427 42.5603 35.4099L42.1989 34.4137C41.2279 31.755 39.7968 29.2932 38.128 27.0255C37.2694 25.9093 36.3706 24.8189 35.3738 23.8227L35.0067 23.4418L34.6253 23.0759C34.3698 22.833 34.1208 22.5836 33.8611 22.3457C33.3344 21.8777 32.8128 21.4033 32.2603 20.9642C30.085 19.1673 27.6957 17.642 25.2126 16.3037C22.7296 14.9697 20.117 13.8419 17.4358 13.0074L17.4236 13.0039C17.3192 12.9715 17.2598 12.8579 17.292 12.7508C17.3227 12.6473 17.4286 12.587 17.5303 12.6136L17.5295 12.6143Z" fill="white"/>
</g>
<path opacity="0.9" d="M50.7593 89.8924C55.4356 96.9162 54.8352 100.846 54.9791 104.176C55.0048 104.767 55.0363 105.602 55.1029 106.589H56.3802C56.1197 105.234 55.9344 103.868 55.8685 102.528C55.4134 93.3346 53.3862 77.6432 45.6365 68.2569C37.8869 58.8705 29.4002 58.0137 18.7066 66.5469C9.79559 73.6577 4.23702 77.2465 0.976863 77.9135C0.169696 78.0788 -0.242474 79.011 0.150376 79.7514C2.24128 83.6902 8.15263 92.7387 18.0784 92.1019C30.739 91.2897 46.083 82.8694 50.7593 89.8931V89.8924Z" fill="#70E5B2"/>
<g style="mix-blend-mode:soft-light">
<path d="M22.328 77.8517C23.0285 77.1696 23.7706 76.555 24.5362 75.962C25.3019 75.3705 26.0905 74.8077 26.9112 74.2938C28.5477 73.2595 30.2944 72.3776 32.1549 71.7695C33.0852 71.469 34.0433 71.2376 35.0237 71.1097C36.0033 70.9882 37.0051 70.9717 37.9983 71.0982C38.2452 71.1391 38.4956 71.1628 38.7404 71.2196C38.9837 71.2786 39.2348 71.326 39.471 71.395L40.8663 71.8378L42.2316 72.3812L43.5555 73.0316C45.2907 73.9668 46.86 75.2311 48.1659 76.7196C49.4825 78.2046 50.5123 79.9153 51.3595 81.687L51.6772 82.3526C51.7867 82.5732 51.8654 82.8061 51.9613 83.0325C52.1416 83.4897 52.3355 83.9411 52.503 84.4018L52.9731 85.7955C53.1398 86.2569 53.2458 86.7363 53.3803 87.2064C53.9112 89.0903 54.2762 91.0116 54.5925 92.9343C54.6104 93.0413 54.5395 93.1434 54.4343 93.1614C54.3341 93.1786 54.239 93.1132 54.2154 93.014L54.2139 93.0076C53.7681 91.123 53.3388 89.2355 52.7255 87.4105C52.4472 86.4884 52.0944 85.5957 51.7667 84.6958C51.5899 84.2508 51.3881 83.8174 51.2006 83.3783C51.1019 83.1612 51.0182 82.9362 50.9065 82.7263L50.5802 82.0917C49.7165 80.3983 48.6689 78.8112 47.4167 77.4233C46.1637 76.0354 44.6768 74.8904 43.0488 74.0135L41.8002 73.4083L40.5064 72.9015L39.1776 72.4875C38.9572 72.4236 38.7404 72.3812 38.5221 72.3258C38.3039 72.2733 38.0792 72.2518 37.8581 72.2122C36.9665 72.0929 36.0541 72.1001 35.1482 72.2058C34.2408 72.305 33.3378 72.5005 32.4512 72.7657C30.6744 73.2947 28.9613 74.0846 27.3162 75.0039C26.4969 75.4704 25.6847 75.9577 24.8962 76.4853C24.1105 77.0136 23.3333 77.5714 22.5934 78.1579L22.5884 78.1615C22.5011 78.2305 22.3752 78.2147 22.3072 78.1248C22.2442 78.0414 22.2543 77.9228 22.3272 77.851L22.328 77.8517Z" fill="white"/>
</g>
<path d="M166.958 0.73099L48.1528 5.95137e-06C44.2486 -0.0237133 41.1258 3.2517 41.3191 7.16897L49.4923 176.716H181.7L189.041 25.2344L166.958 0.73099Z" fill="#70E5B2"/>
<path d="M171.898 24.5085C168.028 24.3719 165.053 21.021 165.357 17.144L166.631 0.954529L189.064 25.136L171.898 24.5092V24.5085Z" fill="url(#paint1_linear_137_894)"/>
<path opacity="0.39" d="M167.51 86.796H64.4499C61.3407 86.796 58.7933 85.3692 58.6989 83.5737L56.5457 42.7414C56.4469 40.8668 59.0502 39.3165 62.2968 39.3165H167.51C170.688 39.3165 173.264 40.8043 173.264 42.64V83.4724C173.264 85.3081 170.688 86.796 167.51 86.796Z" fill="white"/>
<path d="M167.346 87.1611H64.2859C60.9627 87.1611 58.2772 85.5935 58.172 83.5924L56.0188 42.7601C55.9823 42.0672 56.2571 41.3894 56.8138 40.7993C57.8908 39.6586 59.9287 38.9506 62.1327 38.9506H167.346C170.777 38.9506 173.464 40.5707 173.464 42.6393V83.4717C173.464 85.5403 170.777 87.1604 167.346 87.1604V87.1611ZM62.1327 39.6809C60.1212 39.6809 58.2858 40.3019 57.3412 41.3017C56.919 41.7488 56.7187 42.226 56.7444 42.7213L58.8976 83.5536C58.9813 85.1399 61.3985 86.4301 64.2851 86.4301H167.346C170.267 86.4301 172.736 85.0752 172.736 83.4717V42.6393C172.736 41.0358 170.268 39.6809 167.346 39.6809H62.1327Z" fill="white"/>
<path d="M86.4787 38.9894L86.2461 86.7947L86.9731 86.7982L87.2057 38.993L86.4787 38.9894Z" fill="white"/>
<path d="M147.078 38.9895L146.846 86.7947L147.573 86.7982L147.805 38.993L147.078 38.9895Z" fill="white"/>
<path d="M86.8434 51.966L86.8398 52.6962L173.095 53.1196L173.099 52.3894L86.8434 51.966Z" fill="white"/>
<path d="M173.09 70.7445H86.6055V71.4748H173.09V70.7445Z" fill="white"/>
<path opacity="0.39" d="M167.69 166.168H64.6296C61.5204 166.168 58.973 164.742 58.8785 162.946L56.7254 122.114C56.6266 120.239 59.2299 118.689 62.4764 118.689H167.69C170.868 118.689 173.444 120.177 173.444 122.013V162.845C173.444 164.681 170.868 166.168 167.69 166.168V166.168Z" fill="white"/>
<path d="M167.524 166.534H64.4636C61.1405 166.534 58.4549 164.967 58.3497 162.966L56.1966 122.133C56.1601 121.44 56.4349 120.763 56.9916 120.173C58.0685 119.032 60.1065 118.324 62.3104 118.324H167.524C170.955 118.324 173.642 119.944 173.642 122.013V162.845C173.642 164.914 170.955 166.534 167.524 166.534V166.534ZM62.3104 119.054C60.299 119.054 58.4635 119.675 57.5197 120.675C57.0975 121.122 56.8971 121.599 56.9229 122.095L59.076 162.927C59.1598 164.513 61.577 165.803 64.4636 165.803H167.524C170.446 165.803 172.915 164.448 172.915 162.845V122.013C172.915 120.409 170.447 119.054 167.524 119.054H62.3104V119.054Z" fill="white"/>
<path d="M86.6564 118.362L86.4238 166.168L87.1508 166.171L87.3834 118.366L86.6564 118.362Z" fill="white"/>
<path d="M147.256 118.362L147.023 166.168L147.75 166.171L147.983 118.366L147.256 118.362Z" fill="white"/>
<path d="M87.0231 131.337L87.0195 132.068L173.275 132.491L173.279 131.761L87.0231 131.337Z" fill="white"/>
<path d="M173.27 150.118H86.7852V150.848H173.27V150.118Z" fill="white"/>
<path opacity="0.55" d="M161.831 22.8345H65.4986C65.192 22.8345 64.9434 23.0842 64.9434 23.3922V30.6805C64.9434 30.9886 65.192 31.2383 65.4986 31.2383H161.831C162.137 31.2383 162.386 30.9886 162.386 30.6805V23.3922C162.386 23.0842 162.137 22.8345 161.831 22.8345Z" fill="white"/>
<path opacity="0.42" d="M171.32 94.7124H59.4976C59.225 94.7124 59.0039 94.9344 59.0039 95.2084V100.547C59.0039 100.821 59.225 101.043 59.4976 101.043H171.32C171.592 101.043 171.813 100.821 171.813 100.547V95.2084C171.813 94.9344 171.592 94.7124 171.32 94.7124Z" fill="white"/>
<path opacity="0.42" d="M170.993 104.451H59.1715C58.8988 104.451 58.6777 104.673 58.6777 104.947V110.285C58.6777 110.559 58.8988 110.781 59.1715 110.781H170.993C171.266 110.781 171.487 110.559 171.487 110.285V104.947C171.487 104.673 171.266 104.451 170.993 104.451Z" fill="white"/>
<path d="M22.8289 104.042C22.3703 120.487 20.8833 177.215 21.5932 197.318C21.6683 199.447 23.5882 201.157 25.9832 201.226C37.8274 201.571 81.2477 202.445 100.621 201.721C104.656 201.571 107.865 198.665 107.949 195.074C108.351 177.812 109.239 129.261 107.129 107.02C106.875 104.355 104.524 102.233 101.531 101.967C88.6324 100.82 45.0253 98.0144 28.2873 98.9804C25.2691 99.1544 22.9034 101.353 22.8282 104.043L22.8289 104.042Z" fill="url(#paint2_linear_137_894)"/>
<path d="M31.0484 106.453H97.3406C99.9997 106.453 102.159 108.622 102.159 111.293V125.23C102.159 127.901 99.9997 130.069 97.3406 130.069H31.0484C28.3894 130.069 26.2305 127.901 26.2305 125.23V111.293C26.2305 108.622 28.3894 106.453 31.0484 106.453Z" fill="url(#paint3_linear_137_894)"/>
<path opacity="0.2" d="M98.7779 111.213C98.1918 110.604 97.3889 110.255 96.546 110.241L34.515 109.252C32.8563 109.225 31.4574 110.485 31.3028 112.143L30.0141 125.966C29.9082 127.098 31.7622 128.052 34.1258 128.08L95.1105 128.823C97.4705 128.852 99.4212 127.947 99.4405 126.816L99.6702 113.486C99.6845 112.64 99.3639 111.822 98.7779 111.214V111.213Z" fill="white"/>
<path opacity="0.63" d="M42.8036 144.2C42.8036 146.659 40.8193 148.652 38.3714 148.652H32.9752C30.5273 148.652 28.543 146.659 28.543 144.2C28.543 141.741 30.5273 139.748 32.9752 139.748H38.3714C40.8193 139.748 42.8036 141.741 42.8036 144.2V144.2Z" fill="url(#paint4_linear_137_894)"/>
<path opacity="0.63" d="M62.8466 144.2C62.8466 146.659 60.8623 148.652 58.4143 148.652H53.0182C50.5702 148.652 48.5859 146.659 48.5859 144.2C48.5859 141.741 50.5702 139.748 53.0182 139.748H58.4143C60.8623 139.748 62.8466 141.741 62.8466 144.2V144.2Z" fill="url(#paint5_linear_137_894)"/>
<path opacity="0.63" d="M82.1161 144.2C82.1161 146.659 80.1318 148.652 77.6839 148.652H72.2877C69.8398 148.652 67.8555 146.659 67.8555 144.2C67.8555 141.741 69.8398 139.748 72.2877 139.748H77.6839C80.1318 139.748 82.1161 141.741 82.1161 144.2V144.2Z" fill="url(#paint6_linear_137_894)"/>
<path d="M101.652 144.853C101.652 147.352 99.6359 149.377 97.1486 149.377H91.9335C89.4462 149.377 87.4297 147.352 87.4297 144.853C87.4297 142.355 89.4462 140.329 91.9335 140.329H97.1486C99.6359 140.329 101.652 142.355 101.652 144.853V144.853Z" fill="url(#paint7_linear_137_894)"/>
<path opacity="0.63" d="M42.8036 158.137C42.8036 160.596 40.8193 162.589 38.3714 162.589H32.9752C30.5273 162.589 28.543 160.596 28.543 158.137C28.543 155.678 30.5273 153.685 32.9752 153.685H38.3714C40.8193 153.685 42.8036 155.678 42.8036 158.137V158.137Z" fill="url(#paint8_linear_137_894)"/>
<path opacity="0.63" d="M62.8466 158.137C62.8466 160.596 60.8623 162.589 58.4143 162.589H53.0182C50.5702 162.589 48.5859 160.596 48.5859 158.137C48.5859 155.678 50.5702 153.685 53.0182 153.685H58.4143C60.8623 153.685 62.8466 155.678 62.8466 158.137Z" fill="url(#paint9_linear_137_894)"/>
<path opacity="0.63" d="M82.1161 158.137C82.1161 160.596 80.1318 162.589 77.6839 162.589H72.2877C69.8398 162.589 67.8555 160.596 67.8555 158.137C67.8555 155.678 69.8398 153.685 72.2877 153.685H77.6839C80.1318 153.685 82.1161 155.678 82.1161 158.137V158.137Z" fill="url(#paint10_linear_137_894)"/>
<path d="M102.159 158.137C102.159 160.596 100.175 162.589 97.7268 162.589H92.3307C89.8827 162.589 87.8984 160.596 87.8984 158.137C87.8984 155.678 89.8827 153.685 92.3307 153.685H97.7268C100.175 153.685 102.159 155.678 102.159 158.137Z" fill="url(#paint11_linear_137_894)"/>
<path opacity="0.63" d="M42.8036 170.48C42.8036 172.939 40.8193 174.932 38.3714 174.932H32.9752C30.5273 174.932 28.543 172.939 28.543 170.48C28.543 168.021 30.5273 166.028 32.9752 166.028H38.3714C40.8193 166.028 42.8036 168.021 42.8036 170.48V170.48Z" fill="url(#paint12_linear_137_894)"/>
<path opacity="0.63" d="M62.8447 170.48C62.8447 172.939 60.8604 174.932 58.4124 174.932H53.0162C50.5683 174.932 48.584 172.939 48.584 170.48C48.584 168.021 50.5683 166.028 53.0162 166.028H58.4124C60.8604 166.028 62.8447 168.021 62.8447 170.48Z" fill="url(#paint13_linear_137_894)"/>
<path opacity="0.63" d="M82.1161 170.48C82.1161 172.939 80.1318 174.932 77.6839 174.932H72.2877C69.8398 174.932 67.8555 172.939 67.8555 170.48C67.8555 168.021 69.8398 166.028 72.2877 166.028H77.6839C80.1318 166.028 82.1161 168.021 82.1161 170.48V170.48Z" fill="url(#paint14_linear_137_894)"/>
<path opacity="0.63" d="M42.8036 184.03C42.8036 186.489 40.8193 188.482 38.3714 188.482H32.9752C30.5273 188.482 28.543 186.489 28.543 184.03C28.543 181.571 30.5273 179.578 32.9752 179.578H38.3714C40.8193 179.578 42.8036 181.571 42.8036 184.03V184.03Z" fill="url(#paint15_linear_137_894)"/>
<path opacity="0.63" d="M62.8447 184.03C62.8447 186.489 60.8604 188.482 58.4124 188.482H53.0162C50.5683 188.482 48.584 186.489 48.584 184.03C48.584 181.571 50.5683 179.578 53.0162 179.578H58.4124C60.8604 179.578 62.8447 181.571 62.8447 184.03Z" fill="url(#paint16_linear_137_894)"/>
<path opacity="0.63" d="M82.1161 184.03C82.1161 186.489 80.1318 188.482 77.6839 188.482H72.2877C69.8398 188.482 67.8555 186.489 67.8555 184.03C67.8555 181.571 69.8398 179.578 72.2877 179.578H77.6839C80.1318 179.578 82.1161 181.571 82.1161 184.03V184.03Z" fill="url(#paint17_linear_137_894)"/>
<path d="M94.6228 167.235H94.28C91.1816 167.235 88.6699 169.758 88.6699 172.87V183.667C88.6699 186.779 91.1816 189.302 94.28 189.302H94.6228C97.7211 189.302 100.233 186.779 100.233 183.667V172.87C100.233 169.758 97.7211 167.235 94.6228 167.235Z" fill="url(#paint18_linear_137_894)"/>
<g opacity="0.7">
<path d="M92.5239 113.228C92.5239 113.763 92.0924 114.197 91.56 114.197H88.8623C88.3299 114.197 87.8984 113.763 87.8984 113.228C87.8984 112.694 88.3299 112.26 88.8623 112.26H91.56C92.0924 112.26 92.5239 112.694 92.5239 113.228Z" fill="white"/>
<path d="M92.5239 126.391C92.5239 126.926 92.0924 127.359 91.56 127.359H88.8623C88.3299 127.359 87.8984 126.926 87.8984 126.391C87.8984 125.857 88.3299 125.423 88.8623 125.423H91.56C92.0924 125.423 92.5239 125.857 92.5239 126.391Z" fill="white"/>
<path d="M88.2832 118.649C88.2832 119.183 87.8517 119.617 87.3193 119.617C86.787 119.617 86.3555 119.183 86.3555 118.649V115.939C86.3555 115.404 86.787 114.971 87.3193 114.971C87.8517 114.971 88.2832 115.404 88.2832 115.939V118.649Z" fill="white"/>
<path d="M88.2832 124.069C88.2832 124.604 87.8517 125.037 87.3193 125.037C86.787 125.037 86.3555 124.604 86.3555 124.069V121.359C86.3555 120.824 86.787 120.391 87.3193 120.391C87.8517 120.391 88.2832 120.824 88.2832 121.359V124.069Z" fill="white"/>
<path d="M94.836 118.649C94.836 119.183 94.4045 119.617 93.8721 119.617C93.3397 119.617 92.9082 119.183 92.9082 118.649V115.939C92.9082 115.404 93.3397 114.971 93.8721 114.971C94.4045 114.971 94.836 115.404 94.836 115.939V118.649Z" fill="white"/>
<path d="M94.836 124.069C94.836 124.604 94.4045 125.037 93.8721 125.037C93.3397 125.037 92.9082 124.604 92.9082 124.069V121.359C92.9082 120.824 93.3397 120.391 93.8721 120.391C94.4045 120.391 94.836 120.824 94.836 121.359V124.069Z" fill="white"/>
</g>
<path d="M115.173 76.7744C117.854 71.1948 115.525 64.4879 109.97 61.7942C104.416 59.1006 97.7386 61.4401 95.0569 67.0197C92.3751 72.5993 94.7043 79.3061 100.259 81.9998C105.814 84.6935 112.491 82.354 115.173 76.7744Z" fill="url(#paint19_linear_137_894)"/>
<path d="M112.752 79.5697C116.969 75.3343 116.969 68.4673 112.752 64.2319C108.536 59.9965 101.699 59.9965 97.4825 64.2319C93.2659 68.4673 93.2659 75.3343 97.4825 79.5697C101.699 83.8051 108.536 83.8051 112.752 79.5697Z" fill="url(#paint20_linear_137_894)"/>
<path d="M95.6845 69.1833C95.6309 69.192 95.5736 69.1884 95.5178 69.1697C95.3282 69.1079 95.2237 68.903 95.2852 68.7133C96.4938 64.962 99.6517 62.2559 103.527 61.65C104.145 61.5529 104.774 61.5127 105.393 61.5285C105.592 61.5335 105.75 61.7003 105.745 61.9001C105.74 62.1006 105.575 62.2602 105.375 62.253C104.798 62.2386 104.213 62.2767 103.638 62.3666C100.034 62.9301 97.0964 65.4472 95.9722 68.9361C95.9285 69.0705 95.8148 69.1625 95.6838 69.1826L95.6845 69.1833Z" fill="white"/>
<path opacity="0.78" d="M111.847 78.5889C115.416 75.0042 115.416 69.1921 111.847 65.6074C108.278 62.0226 102.492 62.0226 98.9229 65.6074C95.3541 69.1921 95.3541 75.0042 98.9229 78.5889C102.492 82.1737 108.278 82.1737 111.847 78.5889Z" fill="white"/>
<path d="M105.544 78.9794L105.391 77.9925C104.361 78.1118 103.31 78.027 102.542 77.8229C102.268 77.7503 102.092 77.4808 102.123 77.1976L102.23 76.2394C102.27 75.888 102.608 75.6565 102.95 75.7413C103.71 75.9304 104.628 76.0303 105.578 75.8815C106.565 75.727 107.248 75.2763 107.141 74.5877C107.045 73.9667 106.419 73.6857 104.991 73.5311C102.952 73.2997 101.415 72.6629 101.146 70.9328C100.905 69.3709 101.856 68.001 103.78 67.3735L103.627 66.3866C103.577 66.0689 103.794 65.7713 104.11 65.7218L104.687 65.6312C105.003 65.5816 105.3 65.7994 105.348 66.1164L105.486 67.0026C106.439 66.8926 107.154 66.9472 107.732 67.0551C108.027 67.1104 108.228 67.39 108.195 67.6904L108.097 68.5767C108.059 68.9181 107.738 69.1524 107.403 69.082C106.87 68.9691 106.126 68.8814 105.2 69.0266C104.029 69.2099 103.771 69.749 103.838 70.1853C103.921 70.7229 104.681 70.9824 106.276 71.2146C108.55 71.5294 109.594 72.2956 109.846 73.9243C110.078 75.4186 109.183 76.9352 107.095 77.6058L107.266 78.7098C107.315 79.0275 107.099 79.3251 106.783 79.374L106.205 79.4645C105.889 79.5141 105.593 79.2964 105.544 78.9794H105.544Z" fill="url(#paint21_linear_137_894)"/>
<path d="M143.235 55.6961C150.354 48.5459 150.354 36.9532 143.235 29.8031C136.117 22.6529 124.576 22.6529 117.457 29.8031C110.339 36.9532 110.339 48.5459 117.457 55.6961C124.576 62.8462 136.117 62.8462 143.235 55.6961Z" fill="url(#paint22_linear_137_894)"/>
<path d="M142.807 55.2656C149.689 48.3532 149.689 37.146 142.807 30.2336C135.925 23.3212 124.768 23.3212 117.886 30.2336C111.005 37.146 111.005 48.3532 117.886 55.2656C124.768 62.178 135.925 62.178 142.807 55.2656Z" fill="url(#paint23_linear_137_894)"/>
<path d="M114.916 38.0658C114.865 38.0738 114.812 38.0702 114.76 38.0529C114.581 37.9954 114.484 37.8035 114.542 37.6252C116.485 31.5948 121.563 27.2434 127.793 26.2688C128.787 26.1135 129.797 26.0474 130.794 26.074C130.981 26.079 131.129 26.235 131.124 26.4226C131.119 26.6102 130.965 26.7604 130.777 26.7532C129.82 26.728 128.851 26.7913 127.898 26.9408C121.921 27.8752 117.05 32.0498 115.186 37.8344C115.145 37.9609 115.038 38.0464 114.916 38.0658V38.0658Z" fill="white"/>
<path opacity="0.78" d="M141.332 53.6644C147.157 47.8139 147.157 38.3283 141.332 32.4778C135.508 26.6272 126.064 26.6272 120.24 32.4778C114.415 38.3283 114.415 47.8139 120.24 53.6644C126.064 59.515 135.508 59.515 141.332 53.6644Z" fill="white"/>
<path d="M131.045 54.302L130.795 52.6913C129.114 52.8853 127.399 52.7481 126.145 52.4153C125.697 52.2967 125.41 51.8575 125.461 51.3946L125.636 49.8306C125.7 49.257 126.252 48.8789 126.81 49.0177C128.05 49.326 129.549 49.4892 131.099 49.2462C132.709 48.9947 133.825 48.2587 133.65 47.1345C133.493 46.1203 132.472 45.6625 130.141 45.4095C126.813 45.0314 124.304 43.9921 123.867 41.1695C123.472 38.6207 125.026 36.3846 128.165 35.3604L127.915 33.7497C127.835 33.2314 128.188 32.7455 128.704 32.665L129.645 32.5177C130.161 32.4372 130.645 32.7915 130.725 33.3098L130.949 34.7559C132.505 34.5762 133.673 34.6661 134.614 34.8415C135.097 34.9313 135.424 35.3877 135.37 35.8779L135.21 37.3241C135.149 37.8818 134.625 38.2635 134.078 38.1485C133.207 37.9645 131.994 37.8215 130.482 38.0579C128.572 38.3569 128.15 39.2367 128.26 39.949C128.396 40.8259 129.635 41.25 132.237 41.6288C135.95 42.1427 137.653 43.3926 138.065 46.0513C138.443 48.4908 136.982 50.9648 133.575 52.0588L133.854 53.8607C133.934 54.3789 133.581 54.8648 133.065 54.9453L132.123 55.0927C131.607 55.1732 131.124 54.8188 131.043 54.3006L131.045 54.302Z" fill="url(#paint24_linear_137_894)"/>
<path d="M162.293 94.5356C169.618 87.1783 169.618 75.2497 162.293 67.8924C154.969 60.5351 143.093 60.5351 135.768 67.8924C128.444 75.2497 128.444 87.1783 135.768 94.5356C143.093 101.893 154.969 101.893 162.293 94.5356Z" fill="url(#paint25_linear_137_894)"/>
<path d="M161.852 94.0929C168.933 86.9801 168.933 75.4479 161.852 68.3351C154.771 61.2223 143.29 61.2223 136.208 68.3351C129.127 75.4479 129.127 86.9801 136.208 94.0929C143.29 101.206 154.771 101.206 161.852 94.0929Z" fill="url(#paint26_linear_137_894)"/>
<path d="M133.15 76.3846C133.099 76.3926 133.046 76.389 132.994 76.3724C132.816 76.3142 132.719 76.123 132.777 75.944C134.774 69.7425 139.997 65.2675 146.404 64.2655C147.426 64.106 148.465 64.0377 149.49 64.065C149.677 64.07 149.825 64.226 149.82 64.4136C149.815 64.6012 149.661 64.75 149.473 64.7442C148.488 64.7191 147.49 64.7838 146.508 64.9376C140.354 65.9 135.34 70.1975 133.421 76.1532C133.38 76.2797 133.272 76.3652 133.15 76.3846Z" fill="white"/>
<path opacity="0.78" d="M160.333 92.446C166.326 86.4259 166.326 76.6655 160.333 70.6454C154.34 64.6253 144.623 64.6253 138.629 70.6454C132.636 76.6655 132.636 86.426 138.629 92.446C144.623 98.4661 154.34 98.4661 160.333 92.446Z" fill="white"/>
<path d="M149.75 93.1017L149.493 91.4442C147.763 91.644 145.998 91.5024 144.708 91.1603C144.247 91.0381 143.951 90.586 144.005 90.1102L144.185 88.5009C144.25 87.9108 144.819 87.5219 145.393 87.6642C146.669 87.9812 148.211 88.1494 149.807 87.9C151.463 87.6412 152.611 86.8836 152.432 85.7271C152.271 84.6835 151.22 84.2127 148.822 83.9525C145.397 83.5637 142.815 82.4941 142.365 79.5896C141.958 76.9668 143.557 74.6661 146.787 73.6124L146.53 71.9549C146.448 71.4216 146.811 70.922 147.342 70.8394L148.311 70.6877C148.842 70.6043 149.34 70.9695 149.422 71.5028L149.652 72.9906C151.254 72.8059 152.455 72.8979 153.424 73.079C153.921 73.1718 154.257 73.6411 154.202 74.1457L154.038 75.6335C153.975 76.2071 153.436 76.6003 152.873 76.4817C151.977 76.2926 150.729 76.1446 149.173 76.3882C147.207 76.6959 146.773 77.6015 146.887 78.3346C147.026 79.2374 148.302 79.673 150.979 80.0633C154.799 80.5923 156.551 81.8782 156.976 84.6138C157.365 87.1237 155.861 89.6696 152.355 90.7959L152.643 92.6503C152.726 93.1836 152.362 93.6832 151.831 93.7658L150.862 93.9175C150.331 94.0009 149.833 93.6357 149.751 93.1024L149.75 93.1017Z" fill="url(#paint27_linear_137_894)"/>
<path d="M177.977 57.2486C183.835 51.3644 183.835 41.8242 177.977 35.94C172.119 30.0558 162.621 30.0558 156.763 35.94C150.905 41.8242 150.905 51.3644 156.763 57.2486C162.621 63.1328 172.119 63.1328 177.977 57.2486Z" fill="url(#paint28_linear_137_894)"/>
<path d="M177.624 56.8944C183.288 51.2058 183.288 41.9828 177.624 36.2942C171.961 30.6057 162.779 30.6057 157.116 36.2942C151.452 41.9828 151.452 51.2058 157.116 56.8944C162.779 62.5829 171.961 62.5829 177.624 56.8944Z" fill="url(#paint29_linear_137_894)"/>
<path d="M154.684 42.8305C154.629 42.8392 154.571 42.8356 154.513 42.8169C154.32 42.7536 154.213 42.5445 154.276 42.3497C155.885 37.3535 160.092 33.7489 165.254 32.9418C166.076 32.8131 166.912 32.7585 167.739 32.78C167.943 32.7851 168.104 32.9554 168.099 33.1603C168.094 33.3651 167.926 33.5297 167.721 33.5218C166.938 33.5017 166.147 33.5534 165.367 33.6749C160.484 34.4389 156.503 37.8502 154.979 42.5775C154.935 42.7155 154.818 42.809 154.685 42.8305H154.684Z" fill="white"/>
<path opacity="0.78" d="M176.409 55.5768C181.202 50.7623 181.202 42.9565 176.409 38.142C171.616 33.3275 163.845 33.3275 159.052 38.142C154.259 42.9565 154.259 50.7623 159.052 55.5768C163.845 60.3913 171.616 60.3913 176.409 55.5768Z" fill="white"/>
<path d="M167.944 56.1018L167.739 54.7764C166.355 54.936 164.944 54.8232 163.912 54.5493C163.544 54.4516 163.307 54.09 163.35 53.7098L163.493 52.4232C163.546 51.951 164 51.6405 164.459 51.754C165.481 52.0078 166.714 52.1422 167.99 51.9423C169.315 51.7353 170.233 51.1294 170.09 50.2044C169.96 49.3699 169.12 48.9933 167.202 48.7848C164.462 48.4736 162.398 47.6183 162.038 45.2952C161.713 43.1979 162.992 41.3571 165.575 40.5147L165.37 39.1893C165.304 38.7631 165.594 38.3634 166.019 38.2966L166.794 38.1751C167.218 38.109 167.616 38.4008 167.682 38.827L167.867 40.0173C169.148 39.8692 170.108 39.9433 170.883 40.0878C171.28 40.1618 171.549 40.537 171.505 40.9409L171.374 42.1312C171.323 42.5898 170.892 42.9046 170.442 42.8097C169.725 42.6588 168.727 42.5402 167.483 42.735C165.911 42.9808 165.564 43.7053 165.654 44.2918C165.766 45.0135 166.787 45.3621 168.928 45.674C171.983 46.0974 173.384 47.1252 173.723 49.3131C174.035 51.3206 172.832 53.3569 170.028 54.2575L170.258 55.741C170.324 56.1673 170.033 56.5669 169.609 56.6337L168.834 56.7552C168.409 56.8213 168.012 56.5295 167.945 56.1033L167.944 56.1018Z" fill="url(#paint30_linear_137_894)"/>
<defs>
<linearGradient id="paint0_linear_137_894" x1="170.324" y1="64.5071" x2="22.2741" y2="193.914" gradientUnits="userSpaceOnUse">
<stop stop-color="#FDF53F"/>
<stop offset="0.66" stop-color="#E57A58"/>
<stop offset="1" stop-color="#D93C65"/>
</linearGradient>
<linearGradient id="paint1_linear_137_894" x1="187.557" y1="-0.516064" x2="233.933" y2="-64.7153" gradientUnits="userSpaceOnUse">
<stop stop-color="#53D8FF"/>
<stop offset="0.21" stop-color="#4DB9FD"/>
<stop offset="1" stop-color="#3840F7"/>
</linearGradient>
<linearGradient id="paint2_linear_137_894" x1="59.2531" y1="183.788" x2="84.1895" y2="46.1483" gradientUnits="userSpaceOnUse">
<stop stop-color="#2B3582"/>
<stop offset="0.23" stop-color="#272F79"/>
<stop offset="0.62" stop-color="#1F2060"/>
<stop offset="1" stop-color="#150E42"/>
</linearGradient>
<linearGradient id="paint3_linear_137_894" x1="58.4914" y1="142.007" x2="66.6774" y2="108.227" gradientUnits="userSpaceOnUse">
<stop stop-color="#A737D5"/>
<stop offset="1" stop-color="#EF497A"/>
</linearGradient>
<linearGradient id="paint4_linear_137_894" x1="13.6984" y1="165.45" x2="72.337" y2="109.247" gradientUnits="userSpaceOnUse">
<stop stop-color="#53D8FF"/>
<stop offset="1" stop-color="#3840F7"/>
</linearGradient>
<linearGradient id="paint5_linear_137_894" x1="23.3398" y1="175.509" x2="81.9791" y2="119.305" gradientUnits="userSpaceOnUse">
<stop stop-color="#53D8FF"/>
<stop offset="1" stop-color="#3840F7"/>
</linearGradient>
<linearGradient id="paint6_linear_137_894" x1="32.6085" y1="185.18" x2="91.247" y2="128.977" gradientUnits="userSpaceOnUse">
<stop stop-color="#53D8FF"/>
<stop offset="1" stop-color="#3840F7"/>
</linearGradient>
<linearGradient id="paint7_linear_137_894" x1="98.9411" y1="139.642" x2="67.0108" y2="177.124" gradientUnits="userSpaceOnUse">
<stop stop-color="#E40045"/>
<stop offset="1" stop-color="#5C0E16"/>
</linearGradient>
<linearGradient id="paint8_linear_137_894" x1="20.6309" y1="172.683" x2="79.2696" y2="116.481" gradientUnits="userSpaceOnUse">
<stop stop-color="#53D8FF"/>
<stop offset="1" stop-color="#3840F7"/>
</linearGradient>
<linearGradient id="paint9_linear_137_894" x1="30.273" y1="182.742" x2="88.9117" y2="126.539" gradientUnits="userSpaceOnUse">
<stop stop-color="#53D8FF"/>
<stop offset="1" stop-color="#3840F7"/>
</linearGradient>
<linearGradient id="paint10_linear_137_894" x1="39.5409" y1="192.413" x2="98.1796" y2="136.21" gradientUnits="userSpaceOnUse">
<stop stop-color="#53D8FF"/>
<stop offset="1" stop-color="#3840F7"/>
</linearGradient>
<linearGradient id="paint11_linear_137_894" x1="49.1823" y1="202.472" x2="107.822" y2="146.269" gradientUnits="userSpaceOnUse">
<stop stop-color="#53D8FF"/>
<stop offset="1" stop-color="#3840F7"/>
</linearGradient>
<linearGradient id="paint12_linear_137_894" x1="26.7705" y1="179.089" x2="85.4099" y2="122.886" gradientUnits="userSpaceOnUse">
<stop stop-color="#53D8FF"/>
<stop offset="1" stop-color="#3840F7"/>
</linearGradient>
<linearGradient id="paint13_linear_137_894" x1="36.4106" y1="189.147" x2="95.0493" y2="132.945" gradientUnits="userSpaceOnUse">
<stop stop-color="#53D8FF"/>
<stop offset="1" stop-color="#3840F7"/>
</linearGradient>
<linearGradient id="paint14_linear_137_894" x1="45.6806" y1="198.819" x2="104.319" y2="142.617" gradientUnits="userSpaceOnUse">
<stop stop-color="#53D8FF"/>
<stop offset="1" stop-color="#3840F7"/>
</linearGradient>
<linearGradient id="paint15_linear_137_894" x1="33.5105" y1="186.121" x2="92.1499" y2="129.919" gradientUnits="userSpaceOnUse">
<stop stop-color="#53D8FF"/>
<stop offset="1" stop-color="#3840F7"/>
</linearGradient>
<linearGradient id="paint16_linear_137_894" x1="43.1506" y1="196.18" x2="101.789" y2="139.977" gradientUnits="userSpaceOnUse">
<stop stop-color="#53D8FF"/>
<stop offset="1" stop-color="#3840F7"/>
</linearGradient>
<linearGradient id="paint17_linear_137_894" x1="52.4206" y1="205.851" x2="111.059" y2="149.648" gradientUnits="userSpaceOnUse">
<stop stop-color="#53D8FF"/>
<stop offset="1" stop-color="#3840F7"/>
</linearGradient>
<linearGradient id="paint18_linear_137_894" x1="88.3222" y1="187.212" x2="107.659" y2="159.243" gradientUnits="userSpaceOnUse">
<stop stop-color="#53D8FF"/>
<stop offset="1" stop-color="#3840F7"/>
</linearGradient>
<linearGradient id="paint19_linear_137_894" x1="92.7437" y1="91.8624" x2="104.949" y2="72.3373" gradientUnits="userSpaceOnUse">
<stop stop-color="#FDF53F"/>
<stop offset="1" stop-color="#D93C65"/>
</linearGradient>
<linearGradient id="paint20_linear_137_894" x1="111.289" y1="58.3908" x2="77.5661" y2="131.544" gradientUnits="userSpaceOnUse">
<stop stop-color="#FDF53F"/>
<stop offset="1" stop-color="#D93C65"/>
</linearGradient>
<linearGradient id="paint21_linear_137_894" x1="110.278" y1="60.4985" x2="92.9312" y2="103.394" gradientUnits="userSpaceOnUse">
<stop stop-color="#FDF53F"/>
<stop offset="1" stop-color="#D93C65"/>
</linearGradient>
<linearGradient id="paint22_linear_137_894" x1="110.157" y1="75.327" x2="130.077" y2="43.4629" gradientUnits="userSpaceOnUse">
<stop stop-color="#FDF53F"/>
<stop offset="1" stop-color="#D93C65"/>
</linearGradient>
<linearGradient id="paint23_linear_137_894" x1="140.416" y1="20.7057" x2="85.381" y2="140.093" gradientUnits="userSpaceOnUse">
<stop stop-color="#FDF53F"/>
<stop offset="1" stop-color="#D93C65"/>
</linearGradient>
<linearGradient id="paint24_linear_137_894" x1="138.766" y1="24.1455" x2="110.456" y2="94.1503" gradientUnits="userSpaceOnUse">
<stop stop-color="#FDF53F"/>
<stop offset="1" stop-color="#D93C65"/>
</linearGradient>
<linearGradient id="paint25_linear_137_894" x1="128.257" y1="114.736" x2="148.754" y2="81.9483" gradientUnits="userSpaceOnUse">
<stop stop-color="#FDF53F"/>
<stop offset="1" stop-color="#D93C65"/>
</linearGradient>
<linearGradient id="paint26_linear_137_894" x1="159.392" y1="58.531" x2="102.762" y2="181.378" gradientUnits="userSpaceOnUse">
<stop stop-color="#FDF53F"/>
<stop offset="1" stop-color="#D93C65"/>
</linearGradient>
<linearGradient id="paint27_linear_137_894" x1="157.698" y1="62.0706" x2="128.566" y2="134.105" gradientUnits="userSpaceOnUse">
<stop stop-color="#FDF53F"/>
<stop offset="1" stop-color="#D93C65"/>
</linearGradient>
<linearGradient id="paint28_linear_137_894" x1="150.755" y1="73.4004" x2="167.148" y2="47.1782" gradientUnits="userSpaceOnUse">
<stop stop-color="#FDF53F"/>
<stop offset="1" stop-color="#D93C65"/>
</linearGradient>
<linearGradient id="paint29_linear_137_894" x1="175.656" y1="28.45" x2="130.365" y2="126.699" gradientUnits="userSpaceOnUse">
<stop stop-color="#FDF53F"/>
<stop offset="1" stop-color="#D93C65"/>
</linearGradient>
<linearGradient id="paint30_linear_137_894" x1="174.3" y1="31.2805" x2="151.002" y2="88.8912" gradientUnits="userSpaceOnUse">
<stop stop-color="#FDF53F"/>
<stop offset="1" stop-color="#D93C65"/>
</linearGradient>
</defs>
</svg>
