<svg width="202" height="202" viewBox="0 0 202 202" fill="none" xmlns="http://www.w3.org/2000/svg">
<g clip-path="url(#clip0_137_986)">
<path d="M13.4903 79.6247C13.693 78.7015 14.9085 78.685 15.1284 79.6039C17.2532 88.4852 23.4981 111.585 33.5482 123.993C49.9116 144.195 60.4397 176.644 49.4005 193.085C49.4005 193.085 -8.57592 180.22 13.4903 79.6247Z" fill="#6FE3B9"/>
<path opacity="0.43" d="M14.863 92.2604C14.8781 92.5497 14.9119 92.7866 14.9377 93.0436L15.0298 93.7988L15.2289 95.3056C15.3676 96.3092 15.5214 97.3098 15.6745 98.3105C15.9879 100.31 16.3243 102.307 16.6772 104.299C17.3903 108.282 18.2032 112.245 19.0708 116.193C19.9334 120.143 20.8987 124.067 21.9395 127.967C22.9839 131.865 24.0801 135.75 25.2934 139.593C27.7064 147.283 30.5082 154.84 33.7931 162.151C35.4708 165.787 37.2376 169.378 39.1927 172.851C41.1708 176.306 43.2855 179.673 45.6173 182.858C45.6683 182.927 45.761 182.939 45.825 182.884C45.8875 182.831 45.899 182.733 45.853 182.665L45.8516 182.663C43.6435 179.395 41.6021 176.004 39.7181 172.512C37.8256 169.025 36.122 165.422 34.5083 161.778C32.8954 158.131 31.419 154.414 30.0209 150.664C28.6243 146.912 27.3714 143.101 26.1394 139.282C23.7041 131.631 21.6484 123.843 19.7918 116.001C18.871 112.078 18.0235 108.133 17.2415 104.174C16.8476 102.195 16.4702 100.212 16.1151 98.2244L15.6048 95.2388L15.364 93.7435L15.2511 92.9955C15.2181 92.75 15.1785 92.4866 15.1577 92.2698L15.1541 92.2339C15.1455 92.147 15.0736 92.0838 14.9931 92.0925C14.9147 92.1011 14.8572 92.175 14.8616 92.259L14.863 92.2604Z" fill="white"/>
<path d="M28.0975 56.15C28.3189 55.1666 29.5926 55.1637 29.8132 56.1472C31.9495 65.6588 38.2612 90.4076 48.6636 103.78C65.6012 125.553 76.3062 160.339 64.5791 177.769C64.5791 177.769 3.98052 163.338 28.0975 56.15Z" fill="#70E5B2"/>
<path opacity="0.43" d="M29.4078 69.663C29.4208 69.9724 29.4538 70.2265 29.4783 70.5007L29.5667 71.309L29.76 72.9213C29.8952 73.9952 30.0454 75.0656 30.1964 76.1366C30.504 78.2773 30.8361 80.4129 31.1854 82.5456C31.892 86.8097 32.7035 91.0515 33.5725 95.2797C34.4365 99.5093 35.4076 103.712 36.4592 107.89C37.5144 112.068 38.6235 116.23 39.8562 120.349C42.3066 128.593 45.1674 136.697 48.5356 144.546C50.2572 148.45 52.0721 152.307 54.0862 156.038C56.1239 159.753 58.3062 163.374 60.7192 166.803C60.7724 166.879 60.8716 166.893 60.9406 166.834C61.0074 166.777 61.0211 166.671 60.9722 166.596L60.9708 166.594C58.6915 163.076 56.5876 159.429 54.6504 155.677C52.7032 151.929 50.9558 148.062 49.3019 144.149C47.6494 140.234 46.1399 136.246 44.7138 132.224C43.2885 128.201 42.0148 124.114 40.7619 120.021C38.2871 111.82 36.2112 103.476 34.3438 95.0787C33.418 90.8771 32.5691 86.6547 31.7885 82.4164C31.3946 80.298 31.0187 78.1753 30.6672 76.0483L30.1619 72.8531L29.9239 71.2537L29.8132 70.4533C29.7809 70.1906 29.7421 69.9085 29.722 69.678L29.7184 69.6393C29.7104 69.5445 29.6343 69.4749 29.548 69.4835C29.4646 69.4921 29.4028 69.5718 29.4064 69.663H29.4078Z" fill="white"/>
<path d="M35.1914 35.3509C35.1914 28.5421 40.7182 23.0217 47.5367 23.0217H152.519C158.311 23.0217 163.086 27.5543 163.381 33.3316L171.13 185.338C171.361 189.858 167.797 193.671 163.266 193.754L42.9429 195.938C38.6847 196.015 35.1914 192.589 35.1914 188.336V35.3509Z" fill="white"/>
<path d="M60.5279 193.353H60.5243L47.0605 193.18C42.5587 193.122 38.8965 189.416 38.8965 184.92V164.619C38.8965 164.46 39.0251 164.332 39.184 164.332C39.3429 164.332 39.4715 164.46 39.4715 164.619V184.92C39.4715 189.104 42.8793 192.552 47.0684 192.605L60.5314 192.779C60.6903 192.781 60.8175 192.911 60.8154 193.07C60.8132 193.227 60.6853 193.353 60.5279 193.353Z" fill="#333333"/>
<path d="M39.184 158.618C39.0251 158.618 38.8965 158.489 38.8965 158.331V155.043C38.8965 154.884 39.0251 154.756 39.184 154.756C39.3429 154.756 39.4715 154.884 39.4715 155.043V158.331C39.4715 158.489 39.3429 158.618 39.184 158.618Z" fill="#333333"/>
<path opacity="0.97" d="M45.4812 29.1874C45.469 27.0912 47.3148 25.4681 49.395 25.7503C63.1915 27.6188 110.634 33.3976 149.859 30.3905C151.648 30.2534 153.2 31.6073 153.295 33.3962L161.115 180.331C161.222 182.346 159.682 184.069 157.665 184.188C141.168 185.163 73.2266 188.932 48.9932 186.397C47.5182 186.242 46.3991 185.003 46.3897 183.521L45.4805 29.1874H45.4812Z" fill="#70E5B2"/>
<path opacity="0.78" d="M58.253 40.5159L59.7187 72.0169C59.7675 73.0643 60.615 73.8977 61.6644 73.9271C67.5061 74.0915 85.7088 74.5351 95.9868 73.9996C97.1491 73.9393 98.0692 72.9996 98.108 71.8374C98.3042 65.9295 98.7326 48.7354 97.3849 41.5467C97.1671 40.386 96.1679 39.5346 94.9855 39.4937L60.4569 38.2877C59.2119 38.2439 58.1948 39.2718 58.2523 40.5145L58.253 40.5159Z" fill="white"/>
<g opacity="0.6">
<path d="M144.755 43.2581C145.367 43.2581 145.853 42.7829 145.837 42.2014C145.82 41.6199 145.306 41.1354 144.693 41.1246L106.595 40.4462C105.983 40.4355 105.649 40.8978 105.853 41.4742L106.112 42.2093C106.315 42.7857 106.983 43.2574 107.594 43.2574H144.755V43.2581Z" fill="white"/>
</g>
<g opacity="0.6">
<path d="M106.595 50.2608C105.983 50.25 105.649 50.7123 105.853 51.2888L106.112 52.0238C106.315 52.6003 106.983 53.0719 107.594 53.0719H144.755C145.367 53.0719 145.853 52.5967 145.837 52.0152C145.82 51.4338 145.306 50.9492 144.693 50.9384L106.595 50.2601V50.2608Z" fill="white"/>
</g>
<g opacity="0.6">
<path d="M106.595 61.0078C105.983 60.997 105.649 61.4593 105.853 62.0358L106.112 62.7709C106.315 63.3473 106.983 63.8189 107.594 63.8189H144.755C145.367 63.8189 145.853 63.3437 145.837 62.7622C145.82 62.1808 145.306 61.6962 144.693 61.6855L106.595 61.0071V61.0078Z" fill="white"/>
</g>
<g opacity="0.6">
<path d="M148.434 83.8213C149.046 83.8213 149.515 83.3461 149.477 82.7646C149.439 82.1832 148.906 81.7037 148.295 81.6993L59.3569 80.9994C58.7452 80.9944 58.5561 81.3821 58.9371 81.8601L59.8083 82.9527C60.1892 83.4308 61.0022 83.8221 61.6139 83.8221H148.434V83.8213Z" fill="white"/>
</g>
<path d="M68.6183 124.703H68.5982L61.112 124.631C60.0424 124.621 59.1597 123.886 59.0584 122.922L58.4 116.649C58.3612 116.281 58.4762 115.917 58.722 115.624C58.998 115.296 59.4156 115.09 59.8677 115.06C60.4981 115.016 61.3866 114.941 62.3267 114.861C64.307 114.693 66.771 114.484 68.1576 114.466C69.1639 114.461 70.0171 115.055 70.2543 115.93C70.6446 117.37 70.6101 120.096 70.5361 123C70.5124 123.944 69.6541 124.704 68.6191 124.704L68.6183 124.703ZM59.9066 115.632C59.609 115.652 59.338 115.785 59.1619 115.993C59.0167 116.166 58.9491 116.378 58.9714 116.589L59.6298 122.863C59.7003 123.537 60.34 124.051 61.1177 124.058L68.604 124.13H68.6191C69.3443 124.13 69.9452 123.619 69.9618 122.985C70.0351 120.125 70.0696 117.446 69.7001 116.08C69.5341 115.468 68.8965 115.042 68.1662 115.039C66.8005 115.057 64.348 115.265 62.3771 115.433C61.434 115.513 60.5434 115.589 59.908 115.632H59.9066Z" fill="white"/>
<path opacity="0.6" d="M60.7118 116.279C62.2845 116.172 65.7024 115.826 67.324 115.805C68.0111 115.797 68.6135 116.211 68.7745 116.806C69.0872 117.961 69.0462 120.265 68.9916 122.39C68.975 123.027 68.3899 123.535 67.6747 123.528L61.6922 123.471C60.9562 123.464 60.3459 122.962 60.2769 122.31L59.7508 117.297C59.6961 116.779 60.1281 116.319 60.7111 116.279H60.7118Z" fill="white"/>
<g opacity="0.6">
<path d="M75.1927 120.538C75.4097 121.358 76.1558 121.928 77.0062 121.921L146.274 121.331C147.058 121.324 147.684 120.679 147.667 119.897C147.651 119.136 147.03 118.527 146.268 118.523L76.999 118.207C75.7763 118.202 74.8814 119.357 75.1934 120.538H75.1927Z" fill="white"/>
</g>
<path d="M68.1281 108.281H68.108L60.6217 108.209C59.5522 108.199 58.6695 107.464 58.5682 106.5L57.9097 100.226C57.8709 99.8582 57.9859 99.4943 58.2318 99.2014C58.5078 98.874 58.9254 98.668 59.3775 98.6372C60.0079 98.5941 60.8963 98.5187 61.8365 98.439C63.8168 98.2703 66.2808 98.0614 67.6674 98.0435C68.6737 98.0385 69.5269 98.6329 69.7641 99.5079C70.1544 100.948 70.1199 103.674 70.0458 106.578C70.0221 107.521 69.1639 108.282 68.1288 108.282L68.1281 108.281ZM59.4163 99.21C59.1187 99.2301 58.8478 99.3622 58.6717 99.5711C58.5265 99.7434 58.4589 99.9551 58.4812 100.167L59.1396 106.44C59.21 107.114 59.8498 107.628 60.6275 107.635L68.1137 107.707H68.1288C68.8541 107.707 69.455 107.197 69.4715 106.563C69.5448 103.703 69.5793 101.023 69.2099 99.6572C69.0438 99.0456 68.4063 98.6192 67.676 98.6171C66.3103 98.6343 63.8578 98.8425 61.8868 99.0104C60.9438 99.0908 60.0532 99.1662 59.4178 99.21H59.4163Z" fill="white"/>
<path opacity="0.6" d="M60.2235 99.8575C61.7962 99.7498 65.2141 99.4038 66.8357 99.3837C67.5229 99.3751 68.1252 99.7893 68.2862 100.384C68.5989 101.539 68.5579 103.843 68.5033 105.969C68.4867 106.605 67.9017 107.114 67.1865 107.106L61.2039 107.049C60.4679 107.042 59.8576 106.541 59.7886 105.888L59.2625 100.875C59.2078 100.357 59.6398 99.8977 60.2228 99.8575H60.2235Z" fill="white"/>
<g opacity="0.6">
<path d="M74.7044 104.116C74.9215 104.936 75.6676 105.506 76.5179 105.499L145.786 104.909C146.569 104.903 147.196 104.257 147.179 103.475C147.162 102.714 146.542 102.105 145.78 102.102L76.5107 101.786C75.288 101.78 74.3931 102.935 74.7051 104.116H74.7044Z" fill="white"/>
</g>
<path d="M68.6183 140.727H68.5982L61.112 140.655C60.0424 140.645 59.1597 139.91 59.0584 138.946L58.4 132.673C58.3612 132.305 58.4762 131.941 58.722 131.648C58.998 131.32 59.4156 131.114 59.8677 131.084C60.4981 131.04 61.3866 130.965 62.3267 130.885C64.307 130.716 66.771 130.507 68.1576 130.489C68.1677 130.489 68.1777 130.489 68.1878 130.489C69.1725 130.489 70.0193 131.088 70.2543 131.954C70.6446 133.394 70.6101 136.119 70.5361 139.024C70.5124 139.967 69.6541 140.727 68.6191 140.727H68.6183ZM59.9066 131.656C59.609 131.676 59.338 131.809 59.1619 132.017C59.0167 132.19 58.9491 132.402 58.9714 132.613L59.6298 138.887C59.7003 139.561 60.34 140.075 61.1177 140.082L68.604 140.154H68.6191C69.3443 140.154 69.9452 139.643 69.9618 139.009C70.0351 136.149 70.0696 133.47 69.7001 132.104C69.5341 131.492 68.8879 131.052 68.1662 131.063C66.8005 131.081 64.348 131.289 62.3771 131.457C61.434 131.537 60.5434 131.613 59.908 131.656H59.9066Z" fill="white"/>
<path opacity="0.6" d="M60.7118 132.304C62.2845 132.196 65.7024 131.85 67.324 131.83C68.0111 131.821 68.6135 132.236 68.7745 132.831C69.0872 133.986 69.0462 136.289 68.9916 138.415C68.975 139.052 68.3899 139.56 67.6747 139.553L61.6922 139.495C60.9562 139.488 60.3459 138.987 60.2769 138.335L59.7508 133.322C59.6961 132.804 60.1281 132.344 60.7111 132.305L60.7118 132.304Z" fill="white"/>
<g opacity="0.6">
<path d="M75.1927 136.562C75.4097 137.383 76.1558 137.953 77.0062 137.946L146.274 137.355C147.058 137.349 147.684 136.704 147.667 135.921C147.651 135.16 147.03 134.552 146.268 134.548L76.999 134.232C75.7763 134.226 74.8814 135.381 75.1934 136.562H75.1927Z" fill="white"/>
</g>
<path d="M68.6183 156.752H68.5982L61.112 156.68C60.0424 156.67 59.1597 155.935 59.0584 154.971L58.4 148.698C58.3612 148.329 58.4762 147.965 58.7227 147.673C58.9987 147.345 59.4163 147.139 59.8677 147.108C60.4981 147.065 61.3866 146.99 62.3267 146.91C64.307 146.741 66.771 146.533 68.1576 146.515C68.1677 146.515 68.1777 146.515 68.1878 146.515C69.1725 146.515 70.0193 147.113 70.2543 147.979C70.6446 149.419 70.6101 152.145 70.5361 155.049C70.5124 155.993 69.6541 156.753 68.6191 156.753L68.6183 156.752ZM59.9066 147.681C59.609 147.701 59.338 147.833 59.1619 148.042C59.0167 148.215 58.9491 148.426 58.9714 148.638L59.6298 154.911C59.7003 155.585 60.34 156.099 61.117 156.107L68.6032 156.178H68.6183C69.3436 156.178 69.9445 155.668 69.961 155.034C70.0344 152.174 70.0689 149.494 69.6994 148.128C69.5334 147.517 68.8872 147.075 68.1655 147.088C66.7998 147.105 64.3473 147.314 62.3763 147.482C61.4333 147.562 60.5427 147.637 59.9073 147.681H59.9066Z" fill="white"/>
<path opacity="0.6" d="M60.7118 148.328C62.2845 148.22 65.7024 147.874 67.324 147.854C68.0111 147.846 68.6135 148.26 68.7745 148.855C69.0872 150.01 69.0462 152.313 68.9916 154.439C68.975 155.076 68.3899 155.584 67.6747 155.577L61.6922 155.519C60.9562 155.512 60.3459 155.011 60.2769 154.359L59.7508 149.346C59.6961 148.828 60.1281 148.368 60.7111 148.329L60.7118 148.328Z" fill="white"/>
<g opacity="0.6">
<path d="M75.1927 152.586C75.4097 153.407 76.1558 153.977 77.0062 153.97L146.274 153.38C147.058 153.373 147.684 152.728 147.667 151.945C147.651 151.184 147.03 150.576 146.268 150.572L76.999 150.256C75.7763 150.25 74.8814 151.405 75.1934 152.586H75.1927Z" fill="white"/>
</g>
<g opacity="0.6">
<path d="M104.25 169.18C104.389 170 104.869 170.57 105.415 170.563L149.933 169.973C150.437 169.966 150.839 169.321 150.828 168.539C150.818 167.778 150.419 167.169 149.929 167.165L105.41 166.849C104.624 166.844 104.049 167.999 104.249 169.18H104.25Z" fill="white"/>
</g>
<path d="M106.539 2.29644C102.746 -0.338094 99.4493 -0.28569 97.1283 0.39771C95.0108 1.02153 93.6386 3.06311 93.8398 5.25904L94.8411 16.1705L106.753 17.2264C106.753 17.2264 113.976 7.46358 106.539 2.29644H106.539ZM101.3 11.0995C99.6599 11.0995 98.3301 9.77149 98.3301 8.13334C98.3301 6.49519 99.6599 5.16715 101.3 5.16715C102.94 5.16715 104.27 6.49519 104.27 8.13334C104.27 9.77149 102.94 11.0995 101.3 11.0995Z" fill="white"/>
<path d="M96.0298 11.5805C95.8831 11.5805 95.7573 11.4685 95.7437 11.3192L95.5841 9.58127C95.5697 9.42335 95.6862 9.28408 95.8443 9.26901C96.0053 9.25393 96.1426 9.37094 96.157 9.52887L96.3166 11.2668C96.3309 11.4247 96.2145 11.564 96.0564 11.5791C96.0477 11.5798 96.0384 11.5805 96.0298 11.5805ZM95.7171 8.17499C95.5705 8.17499 95.4447 8.06301 95.431 7.91369L95.3095 6.59427C95.1176 4.50243 96.4352 2.55561 98.4428 1.96337C99.8645 1.54415 101.329 1.48456 102.796 1.78463C102.952 1.81621 103.052 1.9684 103.02 2.12346C102.988 2.27851 102.837 2.37758 102.681 2.34671C101.306 2.06603 99.9357 2.1213 98.6052 2.51325C96.86 3.02796 95.7149 4.72138 95.8817 6.54115L96.0025 7.86057C96.0168 8.0185 95.9004 8.15776 95.7422 8.17284C95.7336 8.17356 95.7243 8.17427 95.7157 8.17427L95.7171 8.17499Z" fill="white"/>
<path d="M78.5828 23.2227V17.7368C78.5828 15.8431 80.154 14.3263 82.0495 14.3909L119.923 15.6866C121.603 15.7441 122.965 17.0692 123.065 18.7454L123.382 24.0167L78.582 23.222L78.5828 23.2227Z" fill="white"/>
<path d="M92.7054 16.4576H91.0766C90.9177 16.4576 90.7891 16.3291 90.7891 16.1704C90.7891 16.0118 90.9177 15.8833 91.0766 15.8833H92.7054C92.8642 15.8833 92.9929 16.0118 92.9929 16.1704C92.9929 16.3291 92.8642 16.4576 92.7054 16.4576Z" fill="white"/>
<path d="M80.6332 21.4998C80.4744 21.4998 80.3457 21.3713 80.3457 21.2127V18.9931C80.3457 17.2781 81.7423 15.8833 83.4595 15.8833H89.4478C89.6066 15.8833 89.7353 16.0118 89.7353 16.1704C89.7353 16.3291 89.6066 16.4576 89.4478 16.4576H83.4595C82.0593 16.4576 80.9207 17.5954 80.9207 18.9931V21.2127C80.9207 21.3713 80.7921 21.4998 80.6332 21.4998Z" fill="white"/>
<path d="M63.153 24.6082C63.2443 22.7087 64.8134 21.2149 66.7175 21.2149L132.946 21.2127C135.328 21.2127 137.363 22.9241 137.77 25.2679L137.826 25.5916C138.271 28.1587 136.292 30.5061 133.684 30.5061H65.7371C64.1759 30.5061 62.9324 29.2025 63.0071 27.6454L63.153 24.6082Z" fill="url(#paint0_linear_137_986)"/>
<path d="M119.271 180.792C118.545 180.792 117.811 180.443 117.032 179.727C113.99 176.935 113.279 172.574 113.101 168.487C111.64 170.131 110.138 171.729 108.655 173.307L108.125 172.81C109.777 171.052 111.451 169.271 113.065 167.429C112.929 161.932 113.182 156.376 113.816 150.914C114.202 147.586 114.758 144.065 116.199 140.859C116.653 139.848 117.406 138.401 118.693 137.502C120.015 136.579 121.745 136.475 122.898 137.249C124.2 138.123 124.554 139.803 124.708 140.991C125.625 148.116 122.838 154.652 120.339 158.88C118.469 162.043 116.202 164.939 113.8 167.694C113.921 171.844 114.486 176.406 117.524 179.193C118.185 179.8 118.774 180.087 119.326 180.065C120.237 180.032 120.95 179.184 121.527 178.36C124.056 174.742 126.022 170.819 127.396 166.658C127.553 165.424 127.897 164.214 128.422 163.084L129.105 163.323C128.818 164.506 128.485 165.671 128.108 166.819C127.964 168.014 128.007 169.233 128.244 170.415C128.373 171.057 128.918 173.176 130.523 173.481C131.732 173.71 132.924 172.864 134.275 170.813L139.061 163.547L138.601 165.526C138.355 166.583 137.95 169.109 139.487 169.741C140.368 170.102 141.297 169.58 142.281 169.027C143.24 168.488 144.231 167.931 145.333 168.075L145.707 168.125L145.643 168.497C145.39 169.962 145.515 171.765 146.702 172.027C147.478 172.2 148.116 171.611 148.853 170.93C149.478 170.353 150.125 169.756 150.954 169.555L151.125 170.261C150.479 170.417 149.903 170.95 149.346 171.464C148.533 172.215 147.693 172.991 146.545 172.737C144.981 172.391 144.648 170.536 144.865 168.78C144.132 168.818 143.403 169.228 142.637 169.659C141.546 170.273 140.418 170.907 139.209 170.411C138.092 169.953 137.552 168.748 137.644 167.017L134.881 171.211C133.917 172.675 132.402 174.578 130.386 174.193C129.002 173.93 127.934 172.57 127.53 170.556C127.427 170.047 127.359 169.531 127.324 169.012C125.996 172.454 124.256 175.721 122.122 178.774C121.443 179.746 120.582 180.745 119.351 180.789C119.324 180.79 119.296 180.791 119.269 180.791L119.271 180.792ZM121.091 137.453C120.427 137.453 119.719 137.671 119.11 138.097C117.97 138.892 117.282 140.224 116.863 141.156C115.462 144.272 114.918 147.727 114.538 150.998C113.939 156.161 113.683 161.409 113.775 166.61C115.958 164.065 118.007 161.396 119.713 158.511C122.154 154.38 124.877 148.004 123.987 141.084C123.772 139.419 123.297 138.391 122.492 137.852C122.095 137.585 121.606 137.454 121.091 137.454V137.453Z" fill="url(#paint1_linear_137_986)"/>
<path d="M132.557 15.0384H185.647V58.8621C185.647 59.5261 185.107 60.0653 184.442 60.0653H133.761C133.096 60.0653 132.557 59.5261 132.557 58.8621V15.0384H132.557Z" fill="url(#paint2_linear_137_986)"/>
<path d="M132.557 14.9178H185.647V53.2966C185.647 53.9606 185.107 54.4997 184.442 54.4997H133.761C133.096 54.4997 132.557 53.9606 132.557 53.2966V14.9178H132.557Z" fill="url(#paint3_linear_137_986)"/>
<path d="M137.441 16.6485H135.613V19.7518H137.441V16.6485Z" fill="url(#paint4_linear_137_986)"/>
<path d="M141.554 16.6485H139.727V19.7518H141.554V16.6485Z" fill="url(#paint5_linear_137_986)"/>
<path d="M145.187 16.6485H143.359V19.7518H145.187V16.6485Z" fill="url(#paint6_linear_137_986)"/>
<path d="M149.301 16.6485H147.473V19.7518H149.301V16.6485Z" fill="url(#paint7_linear_137_986)"/>
<path d="M152.931 16.6485H151.104V19.7518H152.931V16.6485Z" fill="url(#paint8_linear_137_986)"/>
<path d="M157.045 16.6485H155.217V19.7518H157.045V16.6485Z" fill="url(#paint9_linear_137_986)"/>
<path d="M160.677 16.6485H158.85V19.7518H160.677V16.6485Z" fill="url(#paint10_linear_137_986)"/>
<path d="M164.791 16.6485H162.963V19.7518H164.791V16.6485Z" fill="url(#paint11_linear_137_986)"/>
<path d="M168.422 16.6485H166.594V19.7518H168.422V16.6485Z" fill="url(#paint12_linear_137_986)"/>
<path d="M172.535 16.6485H170.707V19.7518H172.535V16.6485Z" fill="url(#paint13_linear_137_986)"/>
<path d="M176.168 16.6485H174.34V19.7518H176.168V16.6485Z" fill="url(#paint14_linear_137_986)"/>
<path d="M180.281 16.6485H178.453V19.7518H180.281V16.6485Z" fill="url(#paint15_linear_137_986)"/>
<path d="M161.702 21.3577H156.186V26.8672H161.702V21.3577Z" fill="white"/>
<path d="M168.407 21.3577H162.891V26.8672H168.407V21.3577Z" fill="white"/>
<path d="M175.044 21.3577H169.527V26.8672H175.044V21.3577Z" fill="white"/>
<path d="M181.626 21.3577H176.109V26.8672H181.626V21.3577Z" fill="white"/>
<path d="M141.786 28.2857H136.27V33.7953H141.786V28.2857Z" fill="white"/>
<path d="M148.423 28.2857H142.906V33.7953H148.423V28.2857Z" fill="white"/>
<path d="M155.005 28.2857H149.488V33.7953H155.005V28.2857Z" fill="white"/>
<path d="M161.696 28.2857H156.18V33.7953H161.696V28.2857Z" fill="white"/>
<path d="M168.402 28.2857H162.885V33.7953H168.402V28.2857Z" fill="white"/>
<path d="M175.036 28.2857H169.52V33.7953H175.036V28.2857Z" fill="white"/>
<path d="M181.618 28.2857H176.102V33.7953H181.618V28.2857Z" fill="white"/>
<path d="M141.95 34.8864H136.434V40.396H141.95V34.8864Z" fill="white"/>
<path d="M148.587 34.8864H143.07V40.396H148.587V34.8864Z" fill="white"/>
<path d="M155.169 34.8864H149.652V40.396H155.169V34.8864Z" fill="url(#paint16_linear_137_986)"/>
<path d="M161.86 34.8864H156.344V40.396H161.86V34.8864Z" fill="white"/>
<path d="M168.566 34.8864H163.049V40.396H168.566V34.8864Z" fill="white"/>
<path d="M175.2 34.8864H169.684V40.396H175.2V34.8864Z" fill="white"/>
<path d="M181.782 34.8864H176.266V40.396H181.782V34.8864Z" fill="white"/>
<path d="M142.114 41.4045H136.598V46.9141H142.114V41.4045Z" fill="white"/>
<path d="M148.751 41.4045H143.234V46.9141H148.751V41.4045Z" fill="white"/>
<path d="M155.333 41.4045H149.816V46.9141H155.333V41.4045Z" fill="white"/>
<path d="M162.025 41.4045H156.508V46.9141H162.025V41.4045Z" fill="white"/>
<path d="M168.73 41.4045H163.213V46.9141H168.73V41.4045Z" fill="white"/>
<path d="M175.364 41.4045H169.848V46.9141H175.364V41.4045Z" fill="white"/>
<path d="M181.946 41.4045H176.43V46.9141H181.946V41.4045Z" fill="white"/>
<path d="M142.114 47.9091H136.598V53.4186H142.114V47.9091Z" fill="white"/>
<path d="M148.751 47.9091H143.234V53.4186H148.751V47.9091Z" fill="white"/>
<path d="M155.333 47.9091H149.816V53.4186H155.333V47.9091Z" fill="white"/>
<path d="M139.224 14.1783H136.877C136.337 14.1783 135.895 14.6198 135.895 15.1597V17.3398H136.604V15.9227C136.604 15.3829 137.046 14.9414 137.587 14.9414H139.933C140.022 14.9414 140.107 14.9543 140.189 14.9766C140.102 14.5236 139.702 14.1783 139.224 14.1783Z" fill="url(#paint17_linear_137_986)"/>
<path d="M143.783 14.1784H141.436C140.895 14.1784 140.453 14.6199 140.453 15.1597V17.3398H141.163V15.9228C141.163 15.383 141.605 14.9415 142.145 14.9415H144.492C144.58 14.9415 144.665 14.9544 144.747 14.9767C144.661 14.5237 144.261 14.1784 143.783 14.1784Z" fill="url(#paint18_linear_137_986)"/>
<path d="M147.574 14.1784H145.227C144.686 14.1784 144.244 14.6199 144.244 15.1597V17.3398H144.954V15.9228C144.954 15.383 145.396 14.9415 145.936 14.9415H148.283C148.371 14.9415 148.456 14.9544 148.538 14.9767C148.452 14.5237 148.052 14.1784 147.574 14.1784Z" fill="url(#paint19_linear_137_986)"/>
<path d="M151.476 14.1784H149.129C148.589 14.1784 148.146 14.6199 148.146 15.1597V17.3398H148.856V15.9228C148.856 15.383 149.298 14.9415 149.839 14.9415H152.185C152.274 14.9415 152.359 14.9544 152.441 14.9767C152.354 14.5237 151.954 14.1784 151.476 14.1784Z" fill="url(#paint20_linear_137_986)"/>
<path d="M155.085 14.1784H152.738C152.198 14.1784 151.756 14.6199 151.756 15.1597V17.3398H152.465V15.9228C152.465 15.383 152.907 14.9415 153.448 14.9415H155.795C155.883 14.9415 155.968 14.9544 156.05 14.9767C155.964 14.5237 155.563 14.1784 155.085 14.1784Z" fill="url(#paint21_linear_137_986)"/>
<path d="M158.99 14.1784H156.643C156.102 14.1784 155.66 14.6199 155.66 15.1597V17.3398H156.37V15.9228C156.37 15.383 156.812 14.9415 157.352 14.9415H159.699C159.787 14.9415 159.872 14.9544 159.954 14.9767C159.868 14.5237 159.468 14.1784 158.99 14.1784Z" fill="url(#paint22_linear_137_986)"/>
<path d="M162.779 14.1784H160.432C159.891 14.1784 159.449 14.6199 159.449 15.1597V17.3398H160.159V15.9228C160.159 15.383 160.601 14.9415 161.141 14.9415H163.488C163.577 14.9415 163.661 14.9544 163.743 14.9767C163.657 14.5237 163.257 14.1784 162.779 14.1784Z" fill="url(#paint23_linear_137_986)"/>
<path d="M167.009 14.1784H164.662C164.122 14.1784 163.68 14.6199 163.68 15.1597V17.3398H164.389V15.9228C164.389 15.383 164.831 14.9415 165.372 14.9415H167.719C167.807 14.9415 167.892 14.9544 167.974 14.9767C167.888 14.5237 167.487 14.1784 167.009 14.1784Z" fill="url(#paint24_linear_137_986)"/>
<path d="M170.658 14.1439H168.311C167.77 14.1439 167.328 14.5854 167.328 15.1252V17.3054H168.038V15.8883C168.038 15.3485 168.48 14.907 169.02 14.907H171.367C171.455 14.907 171.54 14.9199 171.622 14.9422C171.536 14.4892 171.136 14.1439 170.658 14.1439Z" fill="url(#paint25_linear_137_986)"/>
<path d="M174.449 14.1439H172.102C171.561 14.1439 171.119 14.5854 171.119 15.1252V17.3054H171.829V15.8883C171.829 15.3485 172.271 14.907 172.811 14.907H175.158C175.246 14.907 175.331 14.9199 175.413 14.9422C175.327 14.4892 174.927 14.1439 174.449 14.1439Z" fill="url(#paint26_linear_137_986)"/>
<path d="M181.951 14.2322H179.604C179.063 14.2322 178.621 14.6737 178.621 15.2135V17.3937H179.331V15.9766C179.331 15.4368 179.773 14.9953 180.313 14.9953H182.66C182.748 14.9953 182.833 15.0082 182.915 15.0305C182.829 14.5775 182.429 14.2322 181.951 14.2322Z" fill="url(#paint27_linear_137_986)"/>
<path d="M178.679 14.1439H176.332C175.792 14.1439 175.35 14.5854 175.35 15.1252V17.3054H176.059V15.8883C176.059 15.3485 176.501 14.907 177.042 14.907H179.389C179.477 14.907 179.562 14.9199 179.644 14.9422C179.557 14.4892 179.157 14.1439 178.679 14.1439Z" fill="url(#paint28_linear_137_986)"/>
<path d="M82.7651 56.053C86.2175 52.6051 86.2175 47.0149 82.7651 43.567C79.3127 40.1191 73.7153 40.1191 70.2629 43.567C66.8104 47.0149 66.8104 52.6051 70.2629 56.053C73.7153 59.5009 79.3127 59.5009 82.7651 56.053Z" fill="url(#paint29_linear_137_986)"/>
<path d="M82.5575 55.8454C85.8951 52.5121 85.8951 47.1079 82.5575 43.7746C79.2199 40.4414 73.8086 40.4414 70.471 43.7746C67.1334 47.1079 67.1334 52.5121 70.471 55.8454C73.8086 59.1786 79.2199 59.1786 82.5575 55.8454Z" fill="url(#paint30_linear_137_986)"/>
<path d="M68.8565 48.5064C68.8149 48.5178 68.7696 48.52 68.7243 48.5107C68.5697 48.4791 68.4698 48.3276 68.5022 48.174C69.1268 45.1346 71.3766 42.7427 74.3726 41.9308C74.8506 41.8016 75.3415 41.7147 75.8303 41.6731C75.9877 41.6594 76.1257 41.7764 76.1394 41.9329C76.153 42.0902 76.0373 42.2294 75.8784 42.2416C75.4234 42.2804 74.967 42.3615 74.5221 42.4821C71.7353 43.2373 69.6429 45.4619 69.0614 48.2888C69.0391 48.398 68.9572 48.4798 68.8558 48.5071L68.8565 48.5064Z" fill="white"/>
<path opacity="0.78" d="M81.8572 55.0491C84.6822 52.2277 84.6822 47.6534 81.8572 44.832C79.0322 42.0107 74.4519 42.0107 71.6269 44.8321C68.8019 47.6534 68.8019 52.2277 71.6269 55.0491C74.4519 57.8704 79.0322 57.8704 81.8572 55.0491Z" fill="white"/>
<path d="M77.4657 55.3095L77.2594 54.5507C76.4587 54.7338 75.6249 54.7589 75.0031 54.6663C74.781 54.6333 74.6193 54.438 74.6193 54.214V53.4553C74.6207 53.1767 74.8666 52.9664 75.1426 53.003C75.7572 53.0848 76.4882 53.0827 77.2228 52.8839C77.9854 52.6771 78.4843 52.2651 78.3405 51.736C78.2111 51.2586 77.6943 51.0935 76.5572 51.0964C74.9327 51.0928 73.6683 50.7288 73.3068 49.3994C72.9805 48.1991 73.6108 47.0441 75.0693 46.3858L74.863 45.627C74.7968 45.383 74.9413 45.1317 75.1857 45.065L75.6321 44.9444C75.8765 44.8783 76.1281 45.0226 76.1949 45.2667L76.3796 45.9479C77.12 45.7785 77.6878 45.7591 78.1515 45.7929C78.3887 45.8101 78.5705 46.0111 78.5705 46.2494V46.9508C78.5705 47.2214 78.3383 47.4324 78.0688 47.4066C77.639 47.365 77.0467 47.3614 76.3308 47.5552C75.4258 47.8007 75.2691 48.2451 75.3604 48.5803C75.4725 48.9931 76.0928 49.1302 77.3673 49.1732C79.1844 49.2213 80.0714 49.7296 80.4121 50.9815C80.724 52.1308 80.1519 53.3942 78.5669 54.1006L78.7977 54.9498C78.8638 55.1939 78.7193 55.4452 78.4749 55.5119L78.0285 55.6325C77.7842 55.6986 77.5326 55.5543 77.4657 55.3102V55.3095Z" fill="url(#paint31_linear_137_986)"/>
<path d="M108.938 43.9929C114.949 37.9905 114.949 28.2587 108.938 22.2564C102.928 16.254 93.1837 16.254 87.1735 22.2564C81.1633 28.2587 81.1632 37.9905 87.1734 43.9929C93.1836 49.9953 102.928 49.9953 108.938 43.9929Z" fill="url(#paint32_linear_137_986)"/>
<path d="M108.577 43.6315C114.388 37.8287 114.388 28.4206 108.577 22.6178C102.767 16.815 93.3465 16.815 87.5362 22.6178C81.7258 28.4206 81.7258 37.8287 87.5362 43.6315C93.3465 49.4343 102.767 49.4342 108.577 43.6315Z" fill="url(#paint33_linear_137_986)"/>
<path d="M84.6729 30.6511C84.6313 30.6626 84.586 30.6647 84.5407 30.6554C84.3861 30.6238 84.2862 30.4731 84.3186 30.3187C85.3903 25.1064 89.2481 21.0038 94.386 19.6119C95.2061 19.3901 96.0471 19.2407 96.886 19.1704C97.0434 19.1568 97.1814 19.2731 97.195 19.431C97.208 19.5882 97.0922 19.7275 96.9341 19.7397C96.1291 19.8079 95.3219 19.9507 94.5348 20.1639C89.606 21.4991 85.9057 25.4351 84.8771 30.4343C84.8548 30.5434 84.7729 30.6252 84.6715 30.6525L84.6729 30.6511Z" fill="white"/>
<path opacity="0.78" d="M107.357 42.245C112.275 37.3337 112.275 29.3709 107.357 24.4596C102.44 19.5483 94.4665 19.5483 89.5488 24.4596C84.6311 29.3709 84.6311 37.3337 89.5488 42.245C94.4665 47.1563 102.44 47.1563 107.357 42.245Z" fill="white"/>
<path d="M99.7122 42.6989L99.3536 41.3787C97.9606 41.6968 96.5086 41.7413 95.4254 41.5805C95.0387 41.523 94.7569 41.1835 94.7576 40.7923L94.759 39.4714C94.759 38.9868 95.1874 38.62 95.669 38.6839C96.7386 38.826 98.0116 38.8225 99.2903 38.4764C100.618 38.1168 101.486 37.3989 101.235 36.4779C101.01 35.6467 100.11 35.3595 98.1309 35.3653C95.3032 35.3595 93.1015 34.7256 92.4726 32.4106C91.9047 30.3202 93.0016 28.3102 95.5411 27.1645L95.1824 25.8436C95.0667 25.4186 95.3183 24.9807 95.7438 24.8652L96.5208 24.6548C96.9463 24.5393 97.3848 24.7905 97.5005 25.2155L97.8225 26.4014C99.1121 26.107 100.1 26.0733 100.906 26.1322C101.319 26.1623 101.636 26.5126 101.636 26.9268V28.1479C101.636 28.6188 101.232 28.9864 100.763 28.9412C100.015 28.8686 98.9834 28.8622 97.737 29.1996C96.1621 29.626 95.889 30.3998 96.0478 30.9842C96.2434 31.7035 97.3223 31.9418 99.5412 32.0164C102.705 32.1004 104.249 32.9848 104.842 35.1643C105.385 37.1642 104.388 39.3644 101.63 40.5941L102.031 42.0722C102.147 42.4972 101.895 42.9351 101.47 43.0506L100.693 43.261C100.267 43.3765 99.8287 43.1253 99.713 42.7003L99.7122 42.6989Z" fill="url(#paint34_linear_137_986)"/>
<path d="M117.299 79.2967C126.044 79.2967 133.134 72.216 133.134 63.4816C133.134 54.7471 126.044 47.6664 117.299 47.6664C108.553 47.6664 101.463 54.7471 101.463 63.4816C101.463 72.216 108.553 79.2967 117.299 79.2967Z" fill="url(#paint35_linear_137_986)"/>
<path d="M128.125 74.2929C134.104 68.3219 134.104 58.6411 128.125 52.6701C122.146 46.6991 112.453 46.6991 106.474 52.6701C100.495 58.6411 100.495 68.3219 106.474 74.2929C112.453 80.2639 122.146 80.2639 128.125 74.2929Z" fill="url(#paint36_linear_137_986)"/>
<path d="M103.526 60.9282C103.485 60.9396 103.439 60.9418 103.394 60.9325C103.24 60.9009 103.14 60.7494 103.172 60.5958C104.274 55.2355 108.242 51.0167 113.526 49.5846C114.369 49.3563 115.234 49.2034 116.097 49.1302C116.254 49.1165 116.392 49.2335 116.406 49.3908C116.419 49.548 116.304 49.6865 116.145 49.6994C115.316 49.7698 114.485 49.9169 113.675 50.1359C108.6 51.5106 104.79 55.5629 103.731 60.7106C103.709 60.8198 103.627 60.9016 103.526 60.9289L103.526 60.9282Z" fill="white"/>
<path opacity="0.78" d="M117.71 76.6564C124.866 76.6564 130.667 70.8626 130.667 63.7156C130.667 56.5686 124.866 50.7748 117.71 50.7748C110.553 50.7748 104.752 56.5686 104.752 63.7156C104.752 70.8626 110.553 76.6564 117.71 76.6564Z" fill="white"/>
<path d="M119.005 73.3327L118.636 71.9738C117.202 72.3012 115.709 72.3471 114.595 72.1813C114.196 72.1224 113.907 71.7728 113.907 71.3708L113.91 70.0112C113.91 69.5123 114.351 69.1354 114.845 69.2007C115.947 69.3465 117.256 69.3436 118.572 68.9868C119.938 68.6164 120.831 67.8785 120.573 66.9302C120.341 66.0745 119.415 65.7794 117.379 65.7852C114.469 65.7794 112.204 65.1269 111.557 62.7451C110.973 60.5944 112.101 58.5262 114.714 57.3468L114.344 55.9879C114.226 55.5507 114.485 55.0999 114.922 54.9814L115.722 54.7646C116.159 54.6462 116.611 54.9046 116.729 55.3418L117.061 56.5622C118.388 56.2592 119.403 56.224 120.234 56.2851C120.66 56.3159 120.985 56.6763 120.985 57.1027V58.3597C120.985 58.8442 120.57 59.2225 120.087 59.1759C119.317 59.1012 118.256 59.094 116.973 59.4415C115.352 59.8808 115.071 60.6769 115.235 61.2778C115.436 62.0179 116.547 62.2627 118.83 62.3395C122.084 62.4256 123.674 63.3359 124.283 65.5784C124.842 67.6365 123.817 69.9007 120.979 71.1662L121.392 72.6867C121.511 73.1238 121.252 73.5746 120.814 73.6931L120.015 73.9099C119.577 74.0283 119.126 73.7699 119.007 73.3327H119.005Z" fill="url(#paint37_linear_137_986)"/>
<path d="M133.151 48.8197C139.473 47.7745 143.75 41.8089 142.703 35.4951C141.656 29.1814 135.683 24.9104 129.361 25.9556C123.039 27.0009 118.762 32.9665 119.809 39.2803C120.856 45.594 126.829 49.865 133.151 48.8197Z" fill="url(#paint38_linear_137_986)"/>
<path d="M139.189 45.2983C143.569 40.9235 143.569 33.8307 139.189 29.456C134.808 25.0813 127.706 25.0813 123.326 29.456C118.946 33.8307 118.946 40.9235 123.326 45.2983C127.706 49.673 134.808 49.673 139.189 45.2983Z" fill="url(#paint39_linear_137_986)"/>
<path d="M121.185 35.5806C121.143 35.5921 121.098 35.5942 121.052 35.5849C120.898 35.5533 120.798 35.4019 120.83 35.2482C121.644 31.2921 124.572 28.1788 128.471 27.1221C129.093 26.9534 129.731 26.8407 130.369 26.7868C130.526 26.7732 130.664 26.8902 130.678 27.0467C130.691 27.2039 130.576 27.3439 130.417 27.3554C129.813 27.4071 129.209 27.5133 128.621 27.6734C124.93 28.6734 122.16 31.6195 121.39 35.3631C121.368 35.4722 121.286 35.554 121.185 35.5813V35.5806Z" fill="white"/>
<path opacity="0.78" d="M138.272 44.254C141.98 40.5512 141.98 34.5479 138.272 30.8452C134.565 27.1424 128.554 27.1424 124.846 30.8452C121.138 34.5479 121.138 40.5512 124.846 44.254C128.554 47.9567 134.565 47.9567 138.272 44.254Z" fill="white"/>
<path d="M132.506 44.5955L132.235 43.5998C131.185 43.8396 130.09 43.8733 129.274 43.752C128.982 43.7089 128.77 43.4527 128.771 43.1583L128.772 42.1627C128.772 41.7973 129.096 41.5209 129.458 41.569C130.264 41.676 131.224 41.6738 132.188 41.4125C133.188 41.1412 133.843 40.5999 133.654 39.9057C133.484 39.279 132.806 39.0622 131.314 39.0665C129.182 39.0622 127.522 38.5841 127.048 36.839C126.62 35.2633 127.447 33.7479 129.361 32.8836L129.091 31.888C129.004 31.5678 129.193 31.2376 129.514 31.1507L130.1 30.9921C130.42 30.9052 130.751 31.0947 130.838 31.4149L131.081 32.3086C132.053 32.0868 132.797 32.061 133.406 32.1055C133.718 32.1285 133.957 32.3926 133.957 32.7042V33.6252C133.957 33.9805 133.652 34.2576 133.298 34.2232C132.734 34.1686 131.956 34.1636 131.017 34.4177C129.829 34.7393 129.624 35.3229 129.743 35.763C129.891 36.3049 130.704 36.4851 132.377 36.5411C134.762 36.6043 135.926 37.2712 136.373 38.9144C136.782 40.4226 136.03 42.0808 133.951 43.0083L134.254 44.1224C134.341 44.4426 134.151 44.7728 133.83 44.8596L133.244 45.0183C132.924 45.1052 132.593 44.9156 132.506 44.5955H132.506Z" fill="url(#paint40_linear_137_986)"/>
<path d="M193.04 71.6501C191.593 76.2436 188.887 77.9356 186.686 77.2443C184.436 76.538 183.345 73.6156 184.641 69.4175C185.939 65.2934 188.549 63.1291 191.023 63.9058C193.569 64.7055 194.275 67.7277 193.04 71.6501H193.04ZM183.854 86.4135L200.27 66.8103L202.001 67.3537L185.584 86.9569L183.854 86.4135ZM187.007 70.0133C186.19 72.5201 186.277 74.5739 187.489 74.9544C188.701 75.3348 189.843 73.7778 190.677 71.1289C191.438 68.7147 191.555 66.615 190.244 66.2037C189.008 65.8153 187.777 67.5655 187.007 70.0133ZM201.266 84.1817C199.831 88.7415 197.138 90.4751 194.913 89.776C192.687 89.0768 191.573 86.1479 192.902 81.9233C194.19 77.833 196.811 75.6349 199.259 76.4037C201.806 77.2034 202.502 80.2593 201.266 84.1817ZM195.233 82.545C194.428 85.018 194.504 87.1055 195.715 87.486C196.951 87.8743 198.069 86.3094 198.903 83.6605C199.673 81.2126 199.781 79.1466 198.47 78.7353C197.234 78.347 196.003 80.0978 195.233 82.545H195.233Z" fill="#74E6B4"/>
<path d="M176 77.2853H173.262V75.057H176V71.0421H178.123V75.057H180.861V77.2853H178.123V81.2464H176V77.2853Z" fill="#74E6B4"/>
<path d="M82.1759 199.93C82.1766 199.863 82.1723 199.795 82.1551 199.727C81.138 195.7 76.0906 193.192 76.0906 193.192L74.0902 193.348C72.9401 196.897 73.0882 199.074 73.2729 200.044C73.278 200.071 73.2866 200.097 73.2938 200.123C74.9434 200.27 78.3397 200.366 82.1759 199.93Z" fill="url(#paint41_linear_137_986)"/>
<path d="M73.293 200.123C73.3821 200.447 73.6215 200.699 73.9277 200.763C76.2745 201.256 80.0051 200.859 81.5713 200.655C81.917 200.61 82.1693 200.291 82.1751 199.93C78.3389 200.366 74.9426 200.271 73.293 200.123Z" fill="url(#paint42_linear_137_986)"/>
<path d="M73.2871 190.373L74.1346 194.446C74.1964 194.745 74.4264 194.968 74.7046 194.994C75.0453 195.025 75.5297 195.045 76.0171 194.973C76.4541 194.909 76.7582 194.465 76.6813 193.989L76.0926 190.373H73.2878H73.2871Z" fill="url(#paint43_linear_137_986)"/>
<path d="M90.8376 200.071C88.6288 200.009 87.4859 199.75 86.895 199.508C86.8936 199.728 86.895 199.951 86.9022 200.182C86.9101 200.429 87.0927 200.627 87.3184 200.625L99.4473 200.547C99.8347 200.545 100.06 200.096 99.893 199.742C98.303 199.873 94.2526 200.167 90.8376 200.071Z" fill="url(#paint44_linear_137_986)"/>
<path d="M99.8944 199.742C99.88 199.711 99.8671 199.679 99.8463 199.65C98.7753 198.156 96.0467 195.179 90.6558 193.888L88.0696 193.806C88.0696 193.806 86.918 195.806 86.8965 199.508C87.4873 199.75 88.6295 200.009 90.8391 200.071C94.2541 200.167 98.3045 199.873 99.8944 199.742Z" fill="url(#paint45_linear_137_986)"/>
<path d="M87.4746 190.013C87.5156 190.203 88.0532 193.101 88.2617 194.224C88.3113 194.491 88.5197 194.687 88.7677 194.701C89.2105 194.726 89.925 194.729 90.5388 194.562C90.8702 194.473 91.093 194.135 91.0693 193.76L90.7796 189.176L87.4746 190.012V190.013Z" fill="url(#paint46_linear_137_986)"/>
<path d="M85.5155 136.504C85.5155 136.504 89.0728 160.918 91.6403 189.971C91.6885 190.512 91.2565 190.983 90.7246 191.095C89.9404 191.26 88.7874 191.456 87.8329 191.429C87.3233 191.414 86.8977 191.038 86.8115 190.535C85.9367 185.412 79.6961 157.921 78.058 151.871C78.058 151.871 76.1762 177.572 76.7778 190.906C76.7929 191.238 76.55 191.525 76.2193 191.564C75.7183 191.622 74.9176 191.666 73.8976 191.557C73.5109 191.516 73.1982 191.224 73.1429 190.839C72.5197 186.504 68.9344 160.7 69.0867 142.111C69.0954 141.063 70.318 132.45 70.318 132.45L85.5148 136.505L85.5155 136.504Z" fill="url(#paint47_linear_137_986)"/>
<path d="M116.009 113.163C116.009 113.163 115.013 110.545 113.85 110.785C112.687 111.025 111.414 111.917 111.414 111.917L109.545 114.441C109.545 114.441 114.791 116.505 116.636 115.322C116.636 115.322 121.994 116.246 128.761 115.137C127.781 113.072 127.198 111.004 126.855 109.399C123.428 111.337 119.736 112.784 116.009 113.162V113.163Z" fill="url(#paint48_linear_137_986)"/>
<path d="M144.393 94.1721C144.393 94.1721 136.722 103.822 126.855 109.4C127.198 111.005 127.782 113.073 128.762 115.138C133.88 114.299 139.803 112.297 144.825 107.849L144.393 94.1721Z" fill="url(#paint49_linear_137_986)"/>
<path d="M86.8945 95.4484L87.3711 108.224C88.7239 108.689 90.0119 109.05 91.2382 109.321C92.0052 106.854 93.6943 103.827 95.078 101.576C89.9954 99.7821 86.8945 95.4491 86.8945 95.4491V95.4484Z" fill="url(#paint50_linear_137_986)"/>
<path d="M112.268 95.231C105.296 102.748 99.6539 103.191 95.0781 101.575C93.6951 103.827 92.0052 106.854 91.2383 109.32C109.856 113.419 114.24 96.3264 114.24 96.3264L112.268 95.231Z" fill="url(#paint51_linear_137_986)"/>
<path d="M113.68 94.4326C113.68 94.4326 114.483 93.5712 115.969 93.8418C117.456 94.1124 118.778 94.6279 119.705 93.8418C120.63 93.0558 120.956 94.111 120.956 94.111L118.183 96.2165L113.68 94.4326Z" fill="url(#paint52_linear_137_986)"/>
<path d="M112.021 95.905C112.021 95.905 112.572 93.6071 114.23 93.9223C115.889 94.2374 119.653 96.2819 120.623 95.905C121.594 95.5281 122.834 94.6265 123.47 94.9452L122.349 96.3371C122.349 96.3371 125.231 94.6767 125.727 95.6968L120.932 98.3924C120.932 98.3924 113.916 97.691 112.021 95.905Z" fill="url(#paint53_linear_137_986)"/>
<path d="M69.7831 137.912C69.4172 137.782 69.1621 137.451 69.1225 137.065C68.6496 132.482 66.3588 104.06 80.8202 92.3688C80.8202 92.3688 81.6497 90.2016 88.466 95.5288C95.283 100.855 91.633 106.439 90.0013 114.14C88.0268 123.458 84.5615 131.076 86.0947 136.811C86.2004 137.206 85.9919 137.622 85.6073 137.763C80.312 139.712 75.0375 139.777 69.7838 137.913L69.7831 137.912Z" fill="url(#paint54_linear_137_986)"/>
<path d="M86.4627 83.8522C86.4584 84.2563 80.6836 92.4478 80.6836 92.4478C80.6836 92.4478 81.7201 94.4865 86.6683 96.1419L90.9393 87.3711L86.4627 83.8522Z" fill="url(#paint55_linear_137_986)"/>
<path d="M84.1914 111.976C84.1914 111.976 95.1473 121.14 106.978 117.141C107.712 116.894 108.514 116.948 109.199 117.309L112.6 119.103C114.028 119.856 115.796 119.361 116.624 117.978C117.096 117.188 117.5 116.286 117.58 115.423L110.925 112.732L111.416 111.918C111.416 111.918 108.167 111.643 107.316 113.968C107.316 113.968 101.127 116.539 90.6893 105.074C90.6893 105.074 85.9532 109.096 84.1914 111.977V111.976Z" fill="url(#paint56_linear_137_986)"/>
<path d="M83.6004 111.882C83.5644 111.882 83.5278 111.871 83.4954 111.849C78.8822 108.737 76.7122 103.712 76.6906 103.662C76.6504 103.567 76.6949 103.457 76.7898 103.417C76.8854 103.376 76.9954 103.42 77.0356 103.516C77.0565 103.565 79.1863 108.49 83.7046 111.539C83.7901 111.597 83.8131 111.714 83.7549 111.799C83.719 111.852 83.6593 111.882 83.5997 111.882H83.6004Z" fill="url(#paint57_linear_137_986)"/>
<path d="M90.4706 104.918C90.4088 104.918 90.3484 104.888 90.3125 104.832C90.2988 104.81 88.8893 102.619 86.2053 97.8188C85.3801 96.3429 84.2947 95.4083 82.9808 95.0407C80.805 94.4334 78.7075 95.5985 78.6867 95.61C78.5961 95.6595 78.4826 95.6301 78.4308 95.5396C78.3798 95.4499 78.4107 95.3358 78.5012 95.2841C78.5918 95.2331 80.7489 94.0278 83.0785 94.6789C84.4938 95.073 85.6561 96.068 86.5323 97.6351C89.2098 102.423 90.6136 104.606 90.628 104.628C90.6841 104.715 90.6589 104.83 90.5719 104.886C90.5403 104.906 90.5051 104.916 90.4706 104.916V104.918Z" fill="url(#paint58_linear_137_986)"/>
<path d="M91.0083 79.1588C91.0083 79.1588 93.0633 83.873 93.2006 86.3467C93.3386 88.8212 93.8727 90.4263 91.0083 90.9245C88.1439 91.4227 85.7309 89.9977 84.4234 87.5333C84.4234 87.5333 82.3749 83.7359 82.8349 82.1803C83.2942 80.6254 91.0083 79.1588 91.0083 79.1588Z" fill="url(#paint59_linear_137_986)"/>
<path d="M85.4015 85.761L85.5647 85.6892C85.7724 85.598 85.8608 85.3511 85.7566 85.1501C85.3526 84.3705 84.5648 82.5844 85.5826 82.1681C86.8937 81.6311 92.087 80.5737 93.2069 78.7331C94.2836 76.9643 93.3298 74.6815 91.8958 74.0319C91.7995 73.9881 91.6866 74.0233 91.6378 74.1159L91.5184 74.342C91.4365 74.4963 91.2079 74.4734 91.159 74.3054C91.1123 74.1439 90.8974 74.113 90.8083 74.2551C90.464 74.8057 89.5338 75.698 87.0475 76.1567C83.514 76.8078 81.1772 78.2364 81.1189 80.6749C81.1153 80.83 80.95 80.9161 80.8178 80.835C80.5568 80.6764 80.1392 80.6017 79.5814 81.0705C78.6111 81.8852 79.0078 83.9993 81.1355 85.7387C81.2368 85.8212 81.2354 85.9792 81.1261 86.0502C80.7401 86.3008 80.1658 86.8973 81.6552 87.6927C83.1962 88.5154 84.347 88.4479 84.7898 88.3747C84.8998 88.3567 84.971 88.2498 84.9472 88.1406L84.4743 85.9971C84.4477 85.8758 84.5397 85.761 84.664 85.761H85.4008H85.4015Z" fill="url(#paint60_linear_137_986)"/>
<path d="M85.4914 86.2132C85.4914 86.2132 84.7079 83.2018 83.3559 84.046C82.0038 84.8902 84.0574 87.4199 85.1442 87.5327L85.4914 86.2132Z" fill="url(#paint61_linear_137_986)"/>
<path d="M109.197 117.309C109.197 117.309 111.981 120.029 112.519 119.632C112.71 119.492 113.192 118.98 113.66 118.41C113.99 118.008 114.025 117.44 113.741 117.003L113.085 115.991C112.459 115.027 111.12 114.825 110.252 115.579C109.814 115.96 109.416 116.511 109.197 117.309Z" fill="url(#paint62_linear_137_986)"/>
<path d="M153.96 136.945C152.46 129.827 150.959 125.707 145.935 112.216C144.355 107.971 142.919 103.675 143.613 99.1992L144.392 94.1721C144.392 94.1721 154.155 90.8728 164.977 94.0328C164.977 94.0328 179.742 100.438 169.713 132.075C165.193 137.126 159.902 138.565 153.96 136.945Z" fill="url(#paint63_linear_137_986)"/>
<path d="M146.055 87.7558L148.586 93.8296C148.746 94.2129 149.092 94.4864 149.502 94.5568C150.962 94.8066 154.492 95.1971 156.81 93.6745C157.086 93.4929 157.156 93.1182 156.967 92.8468L152.29 86.1406L146.055 87.7551V87.7558Z" fill="url(#paint64_linear_137_986)"/>
<path d="M152.3 116.301C151.951 116.393 151.778 116.784 151.945 117.103L159.269 131.128C159.392 131.365 159.666 131.482 159.923 131.408L183.879 124.5C184.178 124.414 184.35 124.103 184.263 123.805L180.137 109.538C180.052 109.245 179.749 109.073 179.453 109.151L152.299 116.302L152.3 116.301Z" fill="url(#paint65_linear_137_986)"/>
<path d="M153.847 114.653C153.504 114.734 153.309 115.097 153.431 115.427L159.294 131.331C159.4 131.621 159.713 131.779 160.009 131.693L183.894 124.806C184.191 124.721 184.371 124.419 184.306 124.118L180.995 108.81C180.926 108.488 180.605 108.286 180.284 108.362L153.847 114.652V114.653Z" fill="url(#paint66_linear_137_986)"/>
<path d="M155.925 113.048C155.506 113.111 155.23 113.517 155.326 113.93L159.308 131.099C159.402 131.505 159.817 131.749 160.218 131.634L183.74 124.851C184.118 124.741 184.341 124.352 184.243 123.971L180.625 109.956C180.532 109.595 180.18 109.363 179.811 109.419L155.924 113.048H155.925Z" fill="url(#paint67_linear_137_986)"/>
<path d="M174.965 119.594C176.791 105.821 166.163 95.2302 166.163 95.2302L159.84 102.593C164.641 108.569 166.923 114.045 167.965 118.346C169.347 117.944 172.676 117.309 174.965 119.594Z" fill="url(#paint68_linear_137_986)"/>
<path d="M167.965 118.737C167.789 118.737 167.628 118.617 167.585 118.438C166.3 113.136 163.592 107.887 159.535 102.837C159.4 102.669 159.427 102.422 159.596 102.287C159.764 102.153 160.011 102.179 160.146 102.348C164.275 107.488 167.035 112.84 168.347 118.254C168.398 118.464 168.269 118.675 168.059 118.726C168.028 118.734 167.997 118.737 167.966 118.737H167.965Z" fill="url(#paint69_linear_137_986)"/>
<path d="M167.965 118.347C168.934 122.344 168.832 125.327 168.685 126.751C168.629 127.288 168.197 127.707 167.658 127.744C167.046 127.787 166.212 127.843 165.467 127.886C164.649 127.934 163.74 127.417 163.132 126.985C162.821 126.764 162.42 127.107 162.593 127.446C163.047 128.333 164.198 129.121 164.991 129.585C165.28 129.754 165.226 130.185 164.904 130.276L161.512 131.237C167.087 136.482 170.768 130.613 170.768 130.613C173.229 126.815 174.501 123.102 174.965 119.594C172.676 117.309 169.347 117.944 167.965 118.346V118.347Z" fill="url(#paint70_linear_137_986)"/>
<path d="M148.673 78.4625C148.567 78.5623 144.186 87.1543 144.186 87.1543L149.151 89.5484L154.515 82.0216C154.515 82.0216 150.453 76.7899 148.673 78.4632V78.4625Z" fill="url(#paint71_linear_137_986)"/>
<path d="M152.258 82.924L149.782 87.0466C149.744 87.1091 149.699 87.1658 149.646 87.2153C149.351 87.4895 148.343 88.2864 147.563 87.201C146.898 86.2764 146.275 85.435 145.606 85.0883C145.216 84.8859 144.736 85.0474 144.538 85.4393C144.13 86.2469 143.34 87.893 142.843 89.4543C142.719 89.8456 142.921 90.2655 143.302 90.4198C144.307 90.8269 146.294 91.5627 148.057 91.8053C148.347 91.8455 148.634 91.7235 148.806 91.4873C149.565 90.4493 151.703 87.5491 152.433 86.8227C153.111 86.1479 154.362 86.4027 154.925 86.5642C155.14 86.626 155.368 86.5958 155.558 86.4817C156.13 86.1378 157.129 85.2807 156.215 83.8299C155.988 83.4688 156.104 82.9886 156.46 82.7546C157.099 82.3346 157.792 81.5471 157.131 80.2722C156.463 78.9808 155.269 78.8652 154.456 78.9643C154.097 79.0081 153.732 78.82 153.594 78.4855C153.532 78.3369 153.411 78.2098 153.185 78.1639C152.758 78.0777 152.479 77.6886 152.562 77.2622C152.705 76.5315 152.597 75.5824 151.429 74.9414C149.287 73.7648 147.41 75.6815 146.933 77.2996C146.456 78.9176 148.852 80.0612 150.358 80.2521C151.465 80.3921 152.072 81.5988 152.316 82.2291C152.405 82.4581 152.383 82.7136 152.257 82.924H152.258Z" fill="url(#paint72_linear_137_986)"/>
<path d="M151.504 88.3381C151.504 88.3381 152.456 85.5542 153.676 85.6562C154.895 85.7581 155.855 86.9713 154.344 88.3352C152.464 90.0315 151.504 88.3374 151.504 88.3374V88.3381Z" fill="url(#paint73_linear_137_986)"/>
<path d="M153 199.67C155.357 199.874 159.45 200.204 162.676 200.347C164.615 200.432 165.732 200.243 166.375 199.986C166.374 200.058 166.372 200.126 166.369 200.19C166.354 200.529 166.078 200.8 165.735 200.82C159.639 201.159 154.791 200.937 153.065 200.833C152.708 200.811 152.496 200.423 152.678 200.12C152.769 199.968 152.88 199.819 153 199.672V199.67Z" fill="url(#paint74_linear_137_986)"/>
<path d="M162.676 200.346C159.45 200.204 155.358 199.874 153 199.67C155.318 196.829 162.676 194.915 162.676 194.915H164.754C166.184 196.972 166.39 198.932 166.375 199.984C165.732 200.241 164.616 200.431 162.676 200.345V200.346Z" fill="url(#paint75_linear_137_986)"/>
<path d="M165.104 191.526L164.91 195.37C164.889 195.786 164.577 196.136 164.159 196.195C163.744 196.255 163.188 196.262 162.598 196.066C162.235 195.945 161.965 195.64 161.899 195.268L161.227 191.526H165.104H165.104Z" fill="url(#paint76_linear_137_986)"/>
<path d="M192.098 200.317C193.121 200.175 193.583 199.645 193.777 199.077C193.779 199.082 193.78 199.087 193.781 199.092C193.931 199.69 193.583 200.31 192.885 200.605C192.042 200.961 191.121 201.022 190.406 200.993C189.638 200.961 188.933 200.644 188.547 200.136L188.541 200.128C189.312 200.509 190.393 200.554 192.098 200.317V200.317Z" fill="url(#paint77_linear_137_986)"/>
<path d="M187.276 191.502H188.989C191.6 191.449 193.24 196.948 193.776 199.077C193.582 199.644 193.119 200.174 192.097 200.317C190.392 200.555 189.31 200.51 188.539 200.129C187.129 198.276 186.43 195.561 186.093 193.976C185.711 192.175 187.275 191.501 187.275 191.501L187.276 191.502Z" fill="url(#paint78_linear_137_986)"/>
<path d="M188.769 187.935L189.72 191.715C189.837 192.179 189.615 192.658 189.186 192.878C188.653 193.151 187.904 193.437 187.215 193.355C186.89 193.316 186.622 193.088 186.515 192.783L185.117 188.806L188.768 187.936L188.769 187.935Z" fill="url(#paint79_linear_137_986)"/>
<path d="M189.905 189.028C188.721 190.076 184.87 190.215 184.87 190.215C170.997 156.962 165.213 147.808 165.213 147.808C167.216 160.359 165.645 192.576 165.645 192.576C163.356 193.584 160.404 192.576 160.404 192.576C160.218 172.028 157.322 149.949 153.586 135.821C162.963 135.61 168.058 133.569 169.686 132.283C177.502 144.867 189.905 189.028 189.905 189.028Z" fill="url(#paint80_linear_137_986)"/>
</g>
<defs>
<linearGradient id="paint0_linear_137_986" x1="117.464" y1="-5.45209" x2="84.1894" y2="55.7271" gradientUnits="userSpaceOnUse">
<stop stop-color="#53D8FF"/>
<stop offset="1" stop-color="#3840F7"/>
</linearGradient>
<linearGradient id="paint1_linear_137_986" x1="108.124" y1="158.761" x2="151.125" y2="158.761" gradientUnits="userSpaceOnUse">
<stop stop-color="#2B3582"/>
<stop offset="1" stop-color="#150E42"/>
</linearGradient>
<linearGradient id="paint2_linear_137_986" x1="160.904" y1="19.2709" x2="153.742" y2="89.8675" gradientUnits="userSpaceOnUse">
<stop stop-color="#A737D5"/>
<stop offset="1" stop-color="#EF497A"/>
</linearGradient>
<linearGradient id="paint3_linear_137_986" x1="132.557" y1="34.7084" x2="185.647" y2="34.7084" gradientUnits="userSpaceOnUse">
<stop stop-color="#B37CFF"/>
<stop offset="1" stop-color="#F895E7"/>
</linearGradient>
<linearGradient id="paint4_linear_137_986" x1="135.685" y1="20.087" x2="144.158" y2="1.05778" gradientUnits="userSpaceOnUse">
<stop stop-color="#A737D5"/>
<stop offset="1" stop-color="#EF497A"/>
</linearGradient>
<linearGradient id="paint5_linear_137_986" x1="139.116" y1="21.6146" x2="147.589" y2="2.58538" gradientUnits="userSpaceOnUse">
<stop stop-color="#A737D5"/>
<stop offset="1" stop-color="#EF497A"/>
</linearGradient>
<linearGradient id="paint6_linear_137_986" x1="142.147" y1="22.9642" x2="150.619" y2="3.93492" gradientUnits="userSpaceOnUse">
<stop stop-color="#A737D5"/>
<stop offset="1" stop-color="#EF497A"/>
</linearGradient>
<linearGradient id="paint7_linear_137_986" x1="145.578" y1="24.4911" x2="154.051" y2="5.46255" gradientUnits="userSpaceOnUse">
<stop stop-color="#A737D5"/>
<stop offset="1" stop-color="#EF497A"/>
</linearGradient>
<linearGradient id="paint8_linear_137_986" x1="148.606" y1="25.8407" x2="157.079" y2="6.81137" gradientUnits="userSpaceOnUse">
<stop stop-color="#A737D5"/>
<stop offset="1" stop-color="#EF497A"/>
</linearGradient>
<linearGradient id="paint9_linear_137_986" x1="152.038" y1="27.3683" x2="160.51" y2="8.339" gradientUnits="userSpaceOnUse">
<stop stop-color="#A737D5"/>
<stop offset="1" stop-color="#EF497A"/>
</linearGradient>
<linearGradient id="paint10_linear_137_986" x1="155.068" y1="28.7178" x2="163.541" y2="9.68857" gradientUnits="userSpaceOnUse">
<stop stop-color="#A737D5"/>
<stop offset="1" stop-color="#EF497A"/>
</linearGradient>
<linearGradient id="paint11_linear_137_986" x1="158.5" y1="30.2447" x2="166.973" y2="11.2162" gradientUnits="userSpaceOnUse">
<stop stop-color="#A737D5"/>
<stop offset="1" stop-color="#EF497A"/>
</linearGradient>
<linearGradient id="paint12_linear_137_986" x1="161.528" y1="31.5943" x2="170.001" y2="12.565" gradientUnits="userSpaceOnUse">
<stop stop-color="#A737D5"/>
<stop offset="1" stop-color="#EF497A"/>
</linearGradient>
<linearGradient id="paint13_linear_137_986" x1="164.96" y1="33.1219" x2="173.433" y2="14.0926" gradientUnits="userSpaceOnUse">
<stop stop-color="#A737D5"/>
<stop offset="1" stop-color="#EF497A"/>
</linearGradient>
<linearGradient id="paint14_linear_137_986" x1="167.991" y1="34.4715" x2="176.463" y2="15.4422" gradientUnits="userSpaceOnUse">
<stop stop-color="#A737D5"/>
<stop offset="1" stop-color="#EF497A"/>
</linearGradient>
<linearGradient id="paint15_linear_137_986" x1="171.421" y1="35.9983" x2="179.895" y2="16.9698" gradientUnits="userSpaceOnUse">
<stop stop-color="#A737D5"/>
<stop offset="1" stop-color="#EF497A"/>
</linearGradient>
<linearGradient id="paint16_linear_137_986" x1="85.0097" y1="-12.0858" x2="152.793" y2="38.0542" gradientUnits="userSpaceOnUse">
<stop stop-color="#FDF53F"/>
<stop offset="0.66" stop-color="#E57A58"/>
<stop offset="1" stop-color="#D93C65"/>
</linearGradient>
<linearGradient id="paint17_linear_137_986" x1="192.271" y1="11.3213" x2="100.589" y2="18.6653" gradientUnits="userSpaceOnUse">
<stop stop-color="#FDF53F"/>
<stop offset="0.66" stop-color="#E57A58"/>
<stop offset="1" stop-color="#D93C65"/>
</linearGradient>
<linearGradient id="paint18_linear_137_986" x1="192.3" y1="11.6831" x2="100.618" y2="19.0271" gradientUnits="userSpaceOnUse">
<stop stop-color="#FDF53F"/>
<stop offset="0.66" stop-color="#E57A58"/>
<stop offset="1" stop-color="#D93C65"/>
</linearGradient>
<linearGradient id="paint19_linear_137_986" x1="192.325" y1="11.9839" x2="100.643" y2="19.3279" gradientUnits="userSpaceOnUse">
<stop stop-color="#FDF53F"/>
<stop offset="0.66" stop-color="#E57A58"/>
<stop offset="1" stop-color="#D93C65"/>
</linearGradient>
<linearGradient id="paint20_linear_137_986" x1="192.349" y1="12.294" x2="100.667" y2="19.638" gradientUnits="userSpaceOnUse">
<stop stop-color="#FDF53F"/>
<stop offset="0.66" stop-color="#E57A58"/>
<stop offset="1" stop-color="#D93C65"/>
</linearGradient>
<linearGradient id="paint21_linear_137_986" x1="192.373" y1="12.5805" x2="100.691" y2="19.9245" gradientUnits="userSpaceOnUse">
<stop stop-color="#FDF53F"/>
<stop offset="0.66" stop-color="#E57A58"/>
<stop offset="1" stop-color="#D93C65"/>
</linearGradient>
<linearGradient id="paint22_linear_137_986" x1="192.398" y1="12.8899" x2="100.716" y2="20.2339" gradientUnits="userSpaceOnUse">
<stop stop-color="#FDF53F"/>
<stop offset="0.66" stop-color="#E57A58"/>
<stop offset="1" stop-color="#D93C65"/>
</linearGradient>
<linearGradient id="paint23_linear_137_986" x1="192.422" y1="13.1906" x2="100.74" y2="20.5354" gradientUnits="userSpaceOnUse">
<stop stop-color="#FDF53F"/>
<stop offset="0.66" stop-color="#E57A58"/>
<stop offset="1" stop-color="#D93C65"/>
</linearGradient>
<linearGradient id="paint24_linear_137_986" x1="192.447" y1="13.5266" x2="100.765" y2="20.8706" gradientUnits="userSpaceOnUse">
<stop stop-color="#FDF53F"/>
<stop offset="0.66" stop-color="#E57A58"/>
<stop offset="1" stop-color="#D93C65"/>
</linearGradient>
<linearGradient id="paint25_linear_137_986" x1="192.467" y1="13.7821" x2="100.785" y2="21.1261" gradientUnits="userSpaceOnUse">
<stop stop-color="#FDF53F"/>
<stop offset="0.66" stop-color="#E57A58"/>
<stop offset="1" stop-color="#D93C65"/>
</linearGradient>
<linearGradient id="paint26_linear_137_986" x1="192.493" y1="14.0829" x2="100.811" y2="21.4269" gradientUnits="userSpaceOnUse">
<stop stop-color="#FDF53F"/>
<stop offset="0.66" stop-color="#E57A58"/>
<stop offset="1" stop-color="#D93C65"/>
</linearGradient>
<linearGradient id="paint27_linear_137_986" x1="192.546" y1="14.7663" x2="100.864" y2="22.1103" gradientUnits="userSpaceOnUse">
<stop stop-color="#FDF53F"/>
<stop offset="0.66" stop-color="#E57A58"/>
<stop offset="1" stop-color="#D93C65"/>
</linearGradient>
<linearGradient id="paint28_linear_137_986" x1="192.519" y1="14.4189" x2="100.837" y2="21.7629" gradientUnits="userSpaceOnUse">
<stop stop-color="#FDF53F"/>
<stop offset="0.66" stop-color="#E57A58"/>
<stop offset="1" stop-color="#D93C65"/>
</linearGradient>
<linearGradient id="paint29_linear_137_986" x1="68.5204" y1="66.502" x2="76.3445" y2="50.1263" gradientUnits="userSpaceOnUse">
<stop stop-color="#FDF53F"/>
<stop offset="1" stop-color="#D93C65"/>
</linearGradient>
<linearGradient id="paint30_linear_137_986" x1="80.1995" y1="38.7062" x2="60.2753" y2="98.9497" gradientUnits="userSpaceOnUse">
<stop stop-color="#FDF53F"/>
<stop offset="1" stop-color="#D93C65"/>
</linearGradient>
<linearGradient id="paint31_linear_137_986" x1="79.5875" y1="40.4426" x2="69.8" y2="75.5445" gradientUnits="userSpaceOnUse">
<stop stop-color="#FDF53F"/>
<stop offset="1" stop-color="#D93C65"/>
</linearGradient>
<linearGradient id="paint32_linear_137_986" x1="84.1368" y1="62.1858" x2="97.7563" y2="33.6788" gradientUnits="userSpaceOnUse">
<stop stop-color="#FDF53F"/>
<stop offset="1" stop-color="#D93C65"/>
</linearGradient>
<linearGradient id="paint33_linear_137_986" x1="104.468" y1="13.7979" x2="69.7843" y2="118.672" gradientUnits="userSpaceOnUse">
<stop stop-color="#FDF53F"/>
<stop offset="1" stop-color="#D93C65"/>
</linearGradient>
<linearGradient id="paint34_linear_137_986" x1="103.401" y1="16.821" x2="86.3619" y2="77.9286" gradientUnits="userSpaceOnUse">
<stop stop-color="#FDF53F"/>
<stop offset="1" stop-color="#D93C65"/>
</linearGradient>
<linearGradient id="paint35_linear_137_986" x1="102.978" y1="93.3851" x2="116.992" y2="64.0521" gradientUnits="userSpaceOnUse">
<stop stop-color="#FDF53F"/>
<stop offset="1" stop-color="#D93C65"/>
</linearGradient>
<linearGradient id="paint36_linear_137_986" x1="123.898" y1="43.5942" x2="88.2091" y2="151.508" gradientUnits="userSpaceOnUse">
<stop stop-color="#FDF53F"/>
<stop offset="1" stop-color="#D93C65"/>
</linearGradient>
<linearGradient id="paint37_linear_137_986" x1="122.803" y1="46.7056" x2="105.27" y2="109.583" gradientUnits="userSpaceOnUse">
<stop stop-color="#FDF53F"/>
<stop offset="1" stop-color="#D93C65"/>
</linearGradient>
<linearGradient id="paint38_linear_137_986" x1="120.757" y1="59.3113" x2="131.029" y2="37.821" gradientUnits="userSpaceOnUse">
<stop stop-color="#FDF53F"/>
<stop offset="1" stop-color="#D93C65"/>
</linearGradient>
<linearGradient id="paint39_linear_137_986" x1="136.093" y1="22.8027" x2="109.945" y2="101.87" gradientUnits="userSpaceOnUse">
<stop stop-color="#FDF53F"/>
<stop offset="1" stop-color="#D93C65"/>
</linearGradient>
<linearGradient id="paint40_linear_137_986" x1="135.289" y1="25.0826" x2="122.443" y2="71.1525" gradientUnits="userSpaceOnUse">
<stop stop-color="#FDF53F"/>
<stop offset="1" stop-color="#D93C65"/>
</linearGradient>
<linearGradient id="paint41_linear_137_986" x1="111.432" y1="89.198" x2="102.168" y2="119.162" gradientUnits="userSpaceOnUse">
<stop stop-color="#53D8FF"/>
<stop offset="1" stop-color="#3840F7"/>
</linearGradient>
<linearGradient id="paint42_linear_137_986" x1="77.7092" y1="201.715" x2="78.1838" y2="169.38" gradientUnits="userSpaceOnUse">
<stop stop-color="#2B3582"/>
<stop offset="1" stop-color="#150E42"/>
</linearGradient>
<linearGradient id="paint43_linear_137_986" x1="75.6584" y1="186.453" x2="73.9377" y2="201.487" gradientUnits="userSpaceOnUse">
<stop stop-color="#F9B776"/>
<stop offset="1" stop-color="#F47960"/>
</linearGradient>
<linearGradient id="paint44_linear_137_986" x1="93.3893" y1="201.945" x2="93.8647" y2="169.609" gradientUnits="userSpaceOnUse">
<stop stop-color="#2B3582"/>
<stop offset="1" stop-color="#150E42"/>
</linearGradient>
<linearGradient id="paint45_linear_137_986" x1="125.876" y1="93.6632" x2="116.613" y2="123.628" gradientUnits="userSpaceOnUse">
<stop stop-color="#53D8FF"/>
<stop offset="1" stop-color="#3840F7"/>
</linearGradient>
<linearGradient id="paint46_linear_137_986" x1="89.4836" y1="188.045" x2="88.7124" y2="203.156" gradientUnits="userSpaceOnUse">
<stop stop-color="#F9B776"/>
<stop offset="1" stop-color="#F47960"/>
</linearGradient>
<linearGradient id="paint47_linear_137_986" x1="87.7358" y1="174.065" x2="-10.4196" y2="53.5044" gradientUnits="userSpaceOnUse">
<stop stop-color="#2B3582"/>
<stop offset="1" stop-color="#150E42"/>
</linearGradient>
<linearGradient id="paint48_linear_137_986" x1="109.545" y1="112.544" x2="128.761" y2="112.544" gradientUnits="userSpaceOnUse">
<stop stop-color="#F9B776"/>
<stop offset="1" stop-color="#F47960"/>
</linearGradient>
<linearGradient id="paint49_linear_137_986" x1="135.455" y1="97.475" x2="136.582" y2="126.301" gradientUnits="userSpaceOnUse">
<stop stop-color="#CB236D"/>
<stop offset="1" stop-color="#4C246D"/>
</linearGradient>
<linearGradient id="paint50_linear_137_986" x1="85.7236" y1="106.971" x2="50.7866" y2="155.042" gradientUnits="userSpaceOnUse">
<stop stop-color="#FDF53F"/>
<stop offset="1" stop-color="#D93C65"/>
</linearGradient>
<linearGradient id="paint51_linear_137_986" x1="121.471" y1="94.157" x2="91.3409" y2="109.166" gradientUnits="userSpaceOnUse">
<stop stop-color="#F9B776"/>
<stop offset="1" stop-color="#F47960"/>
</linearGradient>
<linearGradient id="paint52_linear_137_986" x1="121.028" y1="90.4011" x2="116.588" y2="95.0443" gradientUnits="userSpaceOnUse">
<stop stop-color="#F9B776"/>
<stop offset="1" stop-color="#F47960"/>
</linearGradient>
<linearGradient id="paint53_linear_137_986" x1="121.614" y1="93.9797" x2="91.4825" y2="108.988" gradientUnits="userSpaceOnUse">
<stop stop-color="#F9B776"/>
<stop offset="1" stop-color="#F47960"/>
</linearGradient>
<linearGradient id="paint54_linear_137_986" x1="87.6724" y1="108.388" x2="52.7354" y2="156.459" gradientUnits="userSpaceOnUse">
<stop stop-color="#FDF53F"/>
<stop offset="1" stop-color="#D93C65"/>
</linearGradient>
<linearGradient id="paint55_linear_137_986" x1="82.5388" y1="98.8339" x2="86.5354" y2="87.9061" gradientUnits="userSpaceOnUse">
<stop stop-color="#F9B776"/>
<stop offset="1" stop-color="#F47960"/>
</linearGradient>
<linearGradient id="paint56_linear_137_986" x1="102.389" y1="111.539" x2="72.6656" y2="163.253" gradientUnits="userSpaceOnUse">
<stop stop-color="#F9B776"/>
<stop offset="1" stop-color="#F47960"/>
</linearGradient>
<linearGradient id="paint57_linear_137_986" x1="90.5763" y1="82.9268" x2="71.81" y2="127.881" gradientUnits="userSpaceOnUse">
<stop stop-color="#FDF53F"/>
<stop offset="1" stop-color="#D93C65"/>
</linearGradient>
<linearGradient id="paint58_linear_137_986" x1="91.5459" y1="83.3318" x2="72.7804" y2="128.286" gradientUnits="userSpaceOnUse">
<stop stop-color="#FDF53F"/>
<stop offset="1" stop-color="#D93C65"/>
</linearGradient>
<linearGradient id="paint59_linear_137_986" x1="92.3841" y1="82.4466" x2="68.5407" y2="101.461" gradientUnits="userSpaceOnUse">
<stop stop-color="#F9B776"/>
<stop offset="1" stop-color="#F47960"/>
</linearGradient>
<linearGradient id="paint60_linear_137_986" x1="83.1697" y1="76.2012" x2="94.0912" y2="90.2807" gradientUnits="userSpaceOnUse">
<stop stop-color="#2B3582"/>
<stop offset="1" stop-color="#150E42"/>
</linearGradient>
<linearGradient id="paint61_linear_137_986" x1="89.9817" y1="81.4065" x2="78.2472" y2="90.3966" gradientUnits="userSpaceOnUse">
<stop stop-color="#F9B776"/>
<stop offset="1" stop-color="#F47960"/>
</linearGradient>
<linearGradient id="paint62_linear_137_986" x1="109.197" y1="117.396" x2="113.933" y2="117.396" gradientUnits="userSpaceOnUse">
<stop stop-color="#F9B776"/>
<stop offset="1" stop-color="#F47960"/>
</linearGradient>
<linearGradient id="paint63_linear_137_986" x1="144.14" y1="107.335" x2="183.956" y2="128.56" gradientUnits="userSpaceOnUse">
<stop stop-color="#CB236D"/>
<stop offset="1" stop-color="#4C246D"/>
</linearGradient>
<linearGradient id="paint64_linear_137_986" x1="152.541" y1="93.3486" x2="149.467" y2="84.1139" gradientUnits="userSpaceOnUse">
<stop stop-color="#F9B776"/>
<stop offset="1" stop-color="#F47960"/>
</linearGradient>
<linearGradient id="paint65_linear_137_986" x1="151.88" y1="120.281" x2="184.286" y2="120.281" gradientUnits="userSpaceOnUse">
<stop stop-color="#9CFFFB"/>
<stop offset="1" stop-color="#9BFFFA"/>
</linearGradient>
<linearGradient id="paint66_linear_137_986" x1="153.394" y1="120.031" x2="184.318" y2="120.031" gradientUnits="userSpaceOnUse">
<stop stop-color="#9CFFFB"/>
<stop offset="1" stop-color="#9BFFFA"/>
</linearGradient>
<linearGradient id="paint67_linear_137_986" x1="169.341" y1="116.963" x2="175.898" y2="146.408" gradientUnits="userSpaceOnUse">
<stop stop-color="#FDF53F"/>
<stop offset="1" stop-color="#D93C65"/>
</linearGradient>
<linearGradient id="paint68_linear_137_986" x1="149.826" y1="97.6236" x2="192.632" y2="120.442" gradientUnits="userSpaceOnUse">
<stop stop-color="#CB236D"/>
<stop offset="1" stop-color="#4C246D"/>
</linearGradient>
<linearGradient id="paint69_linear_137_986" x1="186.172" y1="85.0266" x2="156.457" y2="119.066" gradientUnits="userSpaceOnUse">
<stop stop-color="#CB236D"/>
<stop offset="1" stop-color="#4C246D"/>
</linearGradient>
<linearGradient id="paint70_linear_137_986" x1="171.249" y1="120.24" x2="161.255" y2="139.485" gradientUnits="userSpaceOnUse">
<stop stop-color="#F9B776"/>
<stop offset="1" stop-color="#F47960"/>
</linearGradient>
<linearGradient id="paint71_linear_137_986" x1="150.093" y1="80.0907" x2="147.024" y2="98.1761" gradientUnits="userSpaceOnUse">
<stop stop-color="#F9B776"/>
<stop offset="1" stop-color="#F47960"/>
</linearGradient>
<linearGradient id="paint72_linear_137_986" x1="153.329" y1="88.6504" x2="144.273" y2="79.0179" gradientUnits="userSpaceOnUse">
<stop stop-color="#2B3582"/>
<stop offset="1" stop-color="#150E42"/>
</linearGradient>
<linearGradient id="paint73_linear_137_986" x1="152.764" y1="99.8301" x2="153.31" y2="87.1304" gradientUnits="userSpaceOnUse">
<stop stop-color="#F9B776"/>
<stop offset="1" stop-color="#F47960"/>
</linearGradient>
<linearGradient id="paint74_linear_137_986" x1="159.493" y1="175.314" x2="159.493" y2="203.211" gradientUnits="userSpaceOnUse">
<stop stop-color="#2B3582"/>
<stop offset="1" stop-color="#150E42"/>
</linearGradient>
<linearGradient id="paint75_linear_137_986" x1="166.376" y1="197.641" x2="153" y2="197.641" gradientUnits="userSpaceOnUse">
<stop stop-color="#CB236D"/>
<stop offset="1" stop-color="#4C246D"/>
</linearGradient>
<linearGradient id="paint76_linear_137_986" x1="165.104" y1="193.88" x2="161.227" y2="193.88" gradientUnits="userSpaceOnUse">
<stop stop-color="#F9B776"/>
<stop offset="1" stop-color="#F47960"/>
</linearGradient>
<linearGradient id="paint77_linear_137_986" x1="191.178" y1="175.314" x2="191.178" y2="203.211" gradientUnits="userSpaceOnUse">
<stop stop-color="#2B3582"/>
<stop offset="1" stop-color="#150E42"/>
</linearGradient>
<linearGradient id="paint78_linear_137_986" x1="193.777" y1="195.983" x2="186.034" y2="195.983" gradientUnits="userSpaceOnUse">
<stop stop-color="#CB236D"/>
<stop offset="1" stop-color="#4C246D"/>
</linearGradient>
<linearGradient id="paint79_linear_137_986" x1="189.751" y1="190.652" x2="185.118" y2="190.652" gradientUnits="userSpaceOnUse">
<stop stop-color="#F9B776"/>
<stop offset="1" stop-color="#F47960"/>
</linearGradient>
<linearGradient id="paint80_linear_137_986" x1="213.485" y1="54.1587" x2="162.181" y2="187.581" gradientUnits="userSpaceOnUse">
<stop stop-color="#53D8FF"/>
<stop offset="0.21" stop-color="#4DB9FD"/>
<stop offset="1" stop-color="#3840F7"/>
</linearGradient>
<clipPath id="clip0_137_986">
<rect width="202" height="202" fill="white"/>
</clipPath>
</defs>
</svg>
