<svg width="27" height="27" viewBox="0 0 27 27" fill="none" xmlns="http://www.w3.org/2000/svg">
<path d="M20.2083 1.00528L16.9163 1C13.2178 1 10.8276 3.45222 10.8276 7.24769V10.1283H7.51764C7.23162 10.1283 7 10.3602 7 10.6462V14.8199C7 15.1059 7.23188 15.3375 7.51764 15.3375H10.8276V25.869C10.8276 26.155 11.0593 26.3867 11.3453 26.3867H15.6639C15.9499 26.3867 16.1815 26.1548 16.1815 25.869V15.3375H20.0517C20.3377 15.3375 20.5694 15.1059 20.5694 14.8199L20.5709 10.6462C20.5709 10.5089 20.5163 10.3773 20.4193 10.2802C20.3224 10.183 20.1904 10.1283 20.053 10.1283H16.1815V7.68637C16.1815 6.51269 16.4612 5.91686 17.9901 5.91686L20.2078 5.91607C20.4936 5.91607 20.7252 5.68419 20.7252 5.39842V1.52293C20.7252 1.23743 20.4938 1.00581 20.2083 1.00528Z" fill="white"/>
</svg>
