<svg width="109" height="74" viewBox="0 0 109 74" fill="none" xmlns="http://www.w3.org/2000/svg">
<path d="M62.5662 59.3457C60.4844 63.1155 61.8413 67.8655 65.5971 69.9551C69.3528 72.0447 74.0851 70.6827 76.167 66.9129L105.169 14.3964C107.251 10.6266 105.894 5.87666 102.138 3.78704C98.3823 1.69741 93.65 3.05945 91.5682 6.82923L62.5662 59.3457Z" fill="url(#paint0_linear_1642_3945)"/>
<path d="M47.1613 6.82579C45.0794 3.05601 40.3471 1.69397 36.5914 3.7836C32.8356 5.87322 31.4787 10.6232 33.5605 14.393L62.5625 66.9095C64.6444 70.6792 69.3766 72.0413 73.1324 69.9517C76.8881 67.862 78.2451 63.1121 76.1633 59.3423L47.1613 6.82579Z" fill="url(#paint1_linear_1642_3945)"/>
<path d="M32.7723 59.3506C30.6904 63.1204 32.0474 67.8704 35.8031 69.96C39.5589 72.0496 44.2912 70.6876 46.373 66.9178L75.375 14.4013C77.4569 10.6315 76.0999 5.88157 72.3441 3.79195C68.5884 1.70232 63.8561 3.06436 61.7743 6.83414L32.7723 59.3506Z" fill="url(#paint2_linear_1642_3945)"/>
<path d="M17.3703 6.83234C15.2884 3.06256 10.5561 1.70052 6.80037 3.79014C3.04463 5.87977 1.68767 10.6298 3.76951 14.3995L32.7715 66.916C34.8533 70.6858 39.5856 72.0478 43.3414 69.9582C47.0971 67.8686 48.4541 63.1186 46.3722 59.3488L17.3703 6.83234Z" fill="url(#paint3_linear_1642_3945)"/>
<g opacity="0.45">
<path opacity="0.45" d="M76.2427 66.7768L76.1703 66.9131C76.0798 67.0766 75.9802 67.2311 75.8897 67.3855L75.7358 67.6036L75.582 67.8307L75.419 68.0397L75.3014 68.1759C75.0409 68.4858 74.7564 68.7744 74.4505 69.0391L74.2514 69.2026L74.016 69.3843L73.826 69.5206L73.6087 69.675C73.1347 69.9795 72.6313 70.2352 72.1062 70.4382L71.8618 70.5199L71.6265 70.6017L71.3821 70.6744L71.1286 70.7289L70.8842 70.7834C70.6239 70.8361 70.3611 70.8755 70.0968 70.9015H69.6261H69.1011H68.6395C68.3746 70.88 68.1115 70.8405 67.852 70.7834L67.6076 70.7289L67.3542 70.6744L67.1097 70.6017C66.6666 70.4646 66.2365 70.2883 65.8244 70.0748L65.5982 69.9567L65.1275 69.675L64.9102 69.5206L64.684 69.3661L64.4758 69.2026L64.2857 69.0391C63.9972 68.7903 63.7279 68.52 63.4801 68.2304L63.3172 68.0397L63.1542 67.8307L63.0004 67.6036L62.8465 67.3855C62.7198 67.1856 62.6021 66.9858 62.4935 66.7768C61.8874 65.6302 61.5766 64.3496 61.5892 63.0517C61.6019 61.7537 61.9376 60.4795 62.5659 59.345L69.3636 47.0344L76.1703 59.345C76.7986 60.4795 77.1343 61.7537 77.147 63.0517C77.1596 64.3496 76.8488 65.6302 76.2427 66.7768V66.7768Z" fill="url(#paint4_linear_1642_3945)"/>
<path opacity="0.45" d="M46.4365 66.8124L46.3731 66.9124C46.2883 67.0749 46.1946 67.2326 46.0925 67.3848L45.9477 67.6028C45.9046 67.6731 45.8562 67.7399 45.8029 67.8027C45.7486 67.8845 45.6852 67.9572 45.6218 68.0389L45.4679 68.2297C45.3231 68.3933 45.1874 68.5477 45.0335 68.6931L44.8615 68.8566L44.6624 69.0383L44.4632 69.2019L44.255 69.3654L44.0378 69.5198C43.966 69.5765 43.8904 69.6281 43.8115 69.6743C43.6577 69.7742 43.5038 69.8742 43.3499 69.9559L43.1236 70.0741C42.7099 70.2908 42.2765 70.4672 41.8292 70.601L41.5849 70.6737L41.3405 70.7282L41.087 70.7827C40.8269 70.8367 40.564 70.8761 40.2995 70.9008H39.8379H39.3129H38.8513C38.5865 70.8793 38.3234 70.8398 38.0638 70.7827L37.8104 70.7282L37.566 70.6737L37.3216 70.601L37.0772 70.5192L36.8419 70.4375C36.488 70.2993 36.1433 70.1384 35.81 69.9559L35.3393 69.6743L35.113 69.5198L34.9229 69.3836L34.6876 69.2019L34.4885 69.0383C34.1855 68.7735 33.904 68.4849 33.6467 68.1752L33.529 68.0389L33.3661 67.83L33.2032 67.6028L33.0583 67.3848C32.9226 67.1849 32.814 66.985 32.6963 66.7761C32.094 65.6279 31.7861 64.3473 31.8003 63.0498C31.8145 61.7523 32.1504 60.4788 32.7777 59.3443L39.5664 47.0246L46.3641 59.3443C46.9947 60.4846 47.3316 61.765 47.3443 63.0691C47.3569 64.3733 47.0449 65.66 46.4365 66.8124V66.8124Z" fill="url(#paint5_linear_1642_3945)"/>
<path opacity="0.45" d="M63.3631 36.1593L54.4745 52.2494L45.5859 36.1593L54.4745 20.0601L63.3631 36.1593Z" fill="url(#paint6_linear_1642_3945)"/>
</g>
<defs>
<linearGradient id="paint0_linear_1642_3945" x1="65.0253" y1="69.6274" x2="102.918" y2="4.23549" gradientUnits="userSpaceOnUse">
<stop stop-color="#42B1ED"/>
<stop offset="0.29" stop-color="#57A6F2"/>
<stop offset="0.4" stop-color="#4EB3EE"/>
<stop offset="0.61" stop-color="#3FC6E7"/>
<stop offset="1" stop-color="#13F0D6"/>
</linearGradient>
<linearGradient id="paint1_linear_1642_3945" x1="73.7079" y1="69.6219" x2="35.8153" y2="4.23001" gradientUnits="userSpaceOnUse">
<stop stop-color="#00A0FF"/>
<stop offset="0.39" stop-color="#844DB3"/>
<stop offset="0.45" stop-color="#973FA7"/>
<stop offset="0.57" stop-color="#CA1C88"/>
<stop offset="0.58" stop-color="#CF1885"/>
<stop offset="1" stop-color="#E90074"/>
</linearGradient>
<linearGradient id="paint2_linear_1642_3945" x1="5881.15" y1="14446.6" x2="8179.51" y2="13628.3" gradientUnits="userSpaceOnUse">
<stop stop-color="#42B1ED"/>
<stop offset="0.29" stop-color="#57A6F2"/>
<stop offset="0.4" stop-color="#4EB3EE"/>
<stop offset="0.61" stop-color="#3FC6E7"/>
<stop offset="1" stop-color="#13F0D6"/>
</linearGradient>
<linearGradient id="paint3_linear_1642_3945" x1="6001.28" y1="14446.6" x2="3702.91" y2="13628.3" gradientUnits="userSpaceOnUse">
<stop stop-color="#00A0FF"/>
<stop offset="0.39" stop-color="#844DB3"/>
<stop offset="0.45" stop-color="#973FA7"/>
<stop offset="0.57" stop-color="#CA1C88"/>
<stop offset="0.58" stop-color="#CF1885"/>
<stop offset="1" stop-color="#E90074"/>
</linearGradient>
<linearGradient id="paint4_linear_1642_3945" x1="65.3719" y1="69.8295" x2="76.2672" y2="51.0308" gradientUnits="userSpaceOnUse">
<stop stop-color="white"/>
<stop offset="1" stop-color="#FFDEEE" stop-opacity="0.21"/>
</linearGradient>
<linearGradient id="paint5_linear_1642_3945" x1="5870.45" y1="4611.92" x2="6198.07" y2="4242.51" gradientUnits="userSpaceOnUse">
<stop stop-color="white"/>
<stop offset="1" stop-color="#FFDEEE" stop-opacity="0.21"/>
</linearGradient>
<linearGradient id="paint6_linear_1642_3945" x1="47.523" y1="48.2336" x2="61.4949" y2="24.13" gradientUnits="userSpaceOnUse">
<stop stop-color="white"/>
<stop offset="1" stop-color="#FFDEEE" stop-opacity="0.21"/>
</linearGradient>
</defs>
</svg>
