<svg width="27" height="27" viewBox="0 0 27 27" fill="none" xmlns="http://www.w3.org/2000/svg">
<path d="M19.3806 1H8.00561C4.14272 1 1 4.14287 1 8.00576V19.3808C1 23.2438 4.14272 26.3865 8.00561 26.3865H19.3806C23.2438 26.3865 26.3865 23.2436 26.3865 19.3808V8.00576C26.3867 4.14287 23.2438 1 19.3806 1ZM24.1343 19.3808C24.1343 22.0018 22.0018 24.1341 19.3808 24.1341H8.00561C5.3847 24.1343 3.25241 22.0018 3.25241 19.3808V8.00576C3.25241 5.38485 5.3847 3.25241 8.00561 3.25241H19.3806C22.0017 3.25241 24.1341 5.38485 24.1341 8.00576L24.1343 19.3808Z" fill="white"/>
<path d="M13.6935 7.15237C10.0864 7.15237 7.152 10.0868 7.152 13.6938C7.152 17.3007 10.0864 20.235 13.6935 20.235C17.3005 20.235 20.2349 17.3007 20.2349 13.6938C20.2349 10.0868 17.3005 7.15237 13.6935 7.15237ZM13.6935 17.9824C11.3286 17.9824 9.40441 16.0586 9.40441 13.6937C9.40441 11.3286 11.3284 9.40463 13.6935 9.40463C16.0585 9.40463 17.9825 11.3286 17.9825 13.6937C17.9825 16.0586 16.0583 17.9824 13.6935 17.9824Z" fill="white"/>
<path d="M20.5092 5.24219C20.0752 5.24219 19.6489 5.41788 19.3424 5.72571C19.0345 6.03203 18.8574 6.45849 18.8574 6.89396C18.8574 7.32807 19.0346 7.75438 19.3424 8.06221C19.6488 8.36854 20.0752 8.54573 20.5092 8.54573C20.9447 8.54573 21.3696 8.36854 21.6774 8.06221C21.9853 7.75438 22.161 7.32792 22.161 6.89396C22.161 6.45849 21.9853 6.03203 21.6774 5.72571C21.3711 5.41788 20.9447 5.24219 20.5092 5.24219Z" fill="white"/>
</svg>
