<svg width="672" height="888" viewBox="0 0 672 888" fill="none" xmlns="http://www.w3.org/2000/svg">
<path opacity="0.6" d="M5.5 879.52V5.5H319.331H319.41C452.31 5.5 559.978 113.156 559.978 246.039C559.978 295.954 544.411 344.261 516.114 384.44L512.513 389.552L518.043 392.471L530.666 399.135C530.668 399.136 530.67 399.137 530.671 399.138M5.5 879.52L530.671 399.138M5.5 879.52H411.499C552.322 879.52 666.5 765.353 666.5 624.548C666.5 530.043 614.215 443.364 530.671 399.138M5.5 879.52L530.671 399.138M73.5578 810.597L73.5051 810.647L73.4538 810.699L73.3753 810.777L63.9829 820.167H77.2638H411.421C519.411 820.167 606.982 732.606 606.982 624.627C606.982 552.159 566.95 485.661 502.867 451.767C502.866 451.766 502.866 451.766 502.865 451.765L473.687 436.316L470.196 434.467L467.329 437.186L73.5578 810.597Z" stroke="#EAEAEA" stroke-width="11"/>
</svg>
