<svg width="132" height="16" viewBox="0 0 132 16" fill="none" xmlns="http://www.w3.org/2000/svg">
<g clip-path="url(#clip0_304_3616)">
<path d="M24 13.9101V1.09208H25.5834V8.17923L32.023 1.0752H33.7289L28.7136 6.73291L34.0105 13.9101H32.2333L27.7117 7.70838L25.5834 9.98573V13.9082H24V13.9101Z" fill="white"/>
<path d="M40.4263 14C39.5468 14 38.7478 13.8199 38.0329 13.4579C37.3162 13.0977 36.6982 12.6062 36.1771 11.9872C35.6542 11.3681 35.2537 10.6684 34.9722 9.89178C34.6906 9.11515 34.5498 8.31977 34.5498 7.5C34.5498 6.68023 34.6997 5.83045 34.9978 5.05382C35.2976 4.2772 35.7145 3.58499 36.2466 2.9772C36.7786 2.36941 37.4039 1.8873 38.1207 1.53276C38.8356 1.17821 39.6163 1 40.461 1C41.3057 1 42.1377 1.18759 42.8544 1.55902C43.5711 1.93232 44.1855 2.43131 44.7029 3.05786C45.2185 3.68442 45.6171 4.38225 45.8987 5.15325C46.1803 5.92424 46.3211 6.71212 46.3211 7.51876C46.3211 8.37229 46.1748 9.18831 45.8804 9.96494C45.5879 10.7416 45.1728 11.4338 44.6389 12.0416C44.105 12.6494 43.4797 13.1277 42.7648 13.4766C42.0481 13.8255 41.2692 14 40.4245 14H40.4263ZM36.1497 7.5C36.1497 8.15094 36.252 8.77936 36.4568 9.38716C36.6616 9.99495 36.9523 10.5333 37.3271 11.0023C37.702 11.4713 38.1554 11.8446 38.682 12.1222C39.2104 12.3999 39.7973 12.5368 40.4427 12.5368C41.0882 12.5368 41.7098 12.3924 42.2364 12.1035C42.763 11.8146 43.2128 11.43 43.5821 10.9479C43.9514 10.4677 44.233 9.92554 44.4268 9.32338C44.6206 8.72121 44.7175 8.11342 44.7175 7.5C44.7175 6.85094 44.6152 6.22439 44.4104 5.62222C44.2056 5.02006 43.9112 4.48167 43.5309 4.00707C43.1488 3.53247 42.6972 3.15916 42.1761 2.88716C41.6531 2.61703 41.0754 2.48196 40.4427 2.48196C39.7735 2.48196 39.1757 2.62453 38.6473 2.90592C38.1188 3.1873 37.6709 3.56999 37.3015 4.05209C36.9322 4.5342 36.647 5.07258 36.4477 5.66724C36.2484 6.26378 36.1497 6.87532 36.1497 7.5Z" fill="white"/>
<path d="M56.9954 3.78204C56.8546 3.61321 56.6663 3.45 56.4322 3.2943C56.1964 3.1386 55.9331 2.99604 55.6405 2.87035C55.3461 2.74467 55.028 2.64149 54.6806 2.56458C54.3332 2.48767 53.973 2.4464 53.5982 2.4464C52.6365 2.4464 51.927 2.63399 51.4681 3.00542C51.011 3.37684 50.7825 3.88709 50.7825 4.53615C50.7825 4.992 50.8995 5.35217 51.1335 5.6148C51.3675 5.8793 51.7277 6.09503 52.2159 6.26386C52.7023 6.43269 53.3203 6.60527 54.0718 6.78536C54.9384 6.9767 55.6899 7.21119 56.3243 7.48695C56.9588 7.7627 57.4452 8.13226 57.7852 8.59373C58.1253 9.0552 58.2954 9.6705 58.2954 10.4377C58.2954 11.0512 58.182 11.5802 57.9534 12.0304C57.7249 12.4806 57.4049 12.852 56.9935 13.1465C56.5821 13.4411 56.1013 13.6568 55.5509 13.7937C54.9988 13.9307 54.4009 14.0001 53.7554 14.0001C53.11 14.0001 52.503 13.9307 51.8996 13.7919C51.2962 13.653 50.724 13.4523 50.1846 13.1878C49.6452 12.9233 49.1406 12.5913 48.6707 12.1936L49.4276 10.8223C49.6141 11.0268 49.8591 11.2294 50.1571 11.4282C50.457 11.6271 50.7971 11.8109 51.1774 11.9779C51.5595 12.1467 51.9727 12.2817 52.4189 12.383C52.865 12.4862 53.3221 12.5369 53.792 12.5369C54.6843 12.5369 55.3754 12.3718 55.8691 12.0435C56.3609 11.7152 56.6077 11.2331 56.6077 10.5972C56.6077 10.117 56.4688 9.7324 56.1945 9.44539C55.9184 9.1565 55.5107 8.91826 54.9713 8.72504C54.4319 8.5337 53.7737 8.34048 53.0003 8.14914C52.1556 7.93341 51.4462 7.69705 50.8702 7.43817C50.2943 7.18117 49.8646 6.84163 49.5775 6.42143C49.2905 6.00123 49.1479 5.45534 49.1479 4.78377C49.1479 3.96775 49.3417 3.27742 49.7275 2.71278C50.1151 2.14813 50.649 1.7223 51.3292 1.43341C52.0093 1.14452 52.7772 1.00195 53.6348 1.00195C54.1979 1.00195 54.7227 1.06198 55.209 1.18204C55.6954 1.3021 56.1506 1.47093 56.573 1.68666C56.9954 1.90426 57.383 2.16314 57.734 2.46328L56.9954 3.78204Z" fill="white"/>
<path d="M69.0317 3.78204C68.891 3.61321 68.7026 3.45 68.4686 3.2943C68.2327 3.1386 67.9694 2.99604 67.6769 2.87035C67.3825 2.74467 67.0644 2.64149 66.717 2.56458C66.3696 2.48767 66.0094 2.4464 65.6346 2.4464C64.6728 2.4464 63.9634 2.63399 63.5045 3.00542C63.0474 3.37684 62.8188 3.88709 62.8188 4.53615C62.8188 4.992 62.9359 5.35217 63.1699 5.6148C63.4039 5.8793 63.7641 6.09503 64.2523 6.26386C64.7387 6.43269 65.3567 6.60527 66.1081 6.78536C66.9748 6.9767 67.7263 7.21119 68.3607 7.48695C68.9952 7.7627 69.4815 8.13226 69.8216 8.59373C70.1617 9.0552 70.3317 9.6705 70.3317 10.4377C70.3317 11.0512 70.2184 11.5802 69.9898 12.0304C69.7613 12.4806 69.4413 12.852 69.0299 13.1465C68.6185 13.4411 68.1377 13.6568 67.5873 13.7937C67.0351 13.9307 66.4372 14.0001 65.7918 14.0001C65.1464 14.0001 64.5394 13.9307 63.936 13.7919C63.3326 13.653 62.7603 13.4523 62.2209 13.1878C61.6816 12.9233 61.1769 12.5913 60.707 12.1936L61.464 10.8223C61.6505 11.0268 61.8955 11.2294 62.1935 11.4282C62.4934 11.6271 62.8335 11.8109 63.2138 11.9779C63.5959 12.1467 64.0091 12.2817 64.4553 12.383C64.9014 12.4862 65.3585 12.5369 65.8284 12.5369C66.7206 12.5369 67.4118 12.3718 67.9054 12.0435C68.3973 11.7152 68.6441 11.2331 68.6441 10.5972C68.6441 10.117 68.5052 9.7324 68.2309 9.44539C67.9548 9.1565 67.5471 8.91826 67.0077 8.72504C66.4683 8.5337 65.8101 8.34048 65.0367 8.14914C64.192 7.93341 63.4825 7.69705 62.9066 7.43817C62.3307 7.18117 61.901 6.84163 61.6139 6.42143C61.3269 6.00123 61.1842 5.45534 61.1842 4.78377C61.1842 3.96775 61.3781 3.27742 61.7638 2.71278C62.1515 2.14813 62.6854 1.7223 63.3655 1.43341C64.0457 1.14452 64.8136 1.00195 65.6711 1.00195C66.2343 1.00195 66.759 1.06198 67.2454 1.18204C67.7318 1.3021 68.187 1.47093 68.6094 1.68666C69.0317 1.90426 69.4194 2.16314 69.7704 2.46328L69.0317 3.78204Z" fill="white"/>
<path d="M77.2832 1.0918H78.6198L83.7228 13.9098H82.0334L80.6328 10.1543H75.2592L73.8513 13.9098H72.1619L77.2814 1.0918H77.2832ZM80.163 8.8918L77.9524 2.96957L75.7327 8.8918H80.163Z" fill="white"/>
<path d="M93.8779 3.78204C93.7371 3.61321 93.5488 3.45 93.3148 3.2943C93.0789 3.1386 92.8156 2.99604 92.5231 2.87035C92.2287 2.74467 91.9106 2.64149 91.5632 2.56458C91.2158 2.48767 90.8556 2.4464 90.4808 2.4464C89.519 2.4464 88.8096 2.63399 88.3507 3.00542C87.8936 3.37684 87.665 3.88709 87.665 4.53615C87.665 4.992 87.782 5.35217 88.0161 5.6148C88.2501 5.8793 88.6103 6.09503 89.0985 6.26386C89.5848 6.43269 90.2028 6.60527 90.9543 6.78536C91.821 6.9767 92.5725 7.21119 93.2069 7.48695C93.8414 7.7627 94.3277 8.13226 94.6678 8.59373C95.0079 9.0552 95.1779 9.6705 95.1779 10.4377C95.1779 11.0512 95.0646 11.5802 94.836 12.0304C94.6075 12.4806 94.2875 12.852 93.8761 13.1465C93.4647 13.4411 92.9838 13.6568 92.4335 13.7937C91.8813 13.9307 91.2834 14.0001 90.638 14.0001C89.9926 14.0001 89.3856 13.9307 88.7822 13.7919C88.1788 13.653 87.6065 13.4523 87.0671 13.1878C86.5278 12.9233 86.0231 12.5913 85.5532 12.1936L86.3102 10.8223C86.4967 11.0268 86.7417 11.2294 87.0397 11.4282C87.3396 11.6271 87.6797 11.8109 88.06 11.9779C88.4421 12.1467 88.8553 12.2817 89.3014 12.383C89.7476 12.4862 90.2047 12.5369 90.6746 12.5369C91.5668 12.5369 92.258 12.3718 92.7516 12.0435C93.2435 11.7152 93.4903 11.2331 93.4903 10.5972C93.4903 10.117 93.3514 9.7324 93.0771 9.44539C92.801 9.1565 92.3933 8.91826 91.8539 8.72504C91.3145 8.5337 90.6563 8.34048 89.8829 8.14914C89.0382 7.93341 88.3287 7.69705 87.7528 7.43817C87.1768 7.18117 86.7472 6.84163 86.4601 6.42143C86.173 6.00123 86.0304 5.45534 86.0304 4.78377C86.0304 3.96775 86.2242 3.27742 86.61 2.71278C86.9977 2.14813 87.5316 1.7223 88.2117 1.43341C88.8919 1.14452 89.6598 1.00195 90.5173 1.00195C91.0805 1.00195 91.6052 1.06198 92.0916 1.18204C92.5779 1.3021 93.0332 1.47093 93.4556 1.68666C93.8779 1.90426 94.2656 2.16314 94.6166 2.46328L93.8779 3.78204Z" fill="#10B4E9"/>
<path d="M103.095 14C102.215 14 101.416 13.8199 100.701 13.4579C99.9846 13.0977 99.3666 12.6062 98.8455 11.9872C98.3226 11.3681 97.9222 10.6684 97.6406 9.89178C97.359 9.11515 97.2183 8.31977 97.2183 7.5C97.2183 6.68023 97.3682 5.83045 97.6662 5.05382C97.9661 4.2772 98.383 3.58499 98.915 2.9772C99.4489 2.36941 100.072 1.8873 100.789 1.53276C101.504 1.17821 102.285 1 103.129 1C103.974 1 104.806 1.18759 105.523 1.55902C106.24 1.93232 106.854 2.43131 107.371 3.05786C107.887 3.68442 108.286 4.38225 108.567 5.15325C108.849 5.92424 108.99 6.71212 108.99 7.51876C108.99 8.37229 108.843 9.18831 108.549 9.96494C108.256 10.7416 107.841 11.4338 107.307 12.0416C106.773 12.6494 106.148 13.1277 105.433 13.4766C104.717 13.8255 103.938 14 103.093 14H103.095ZM98.8181 7.5C98.8181 8.15094 98.9205 8.77936 99.1253 9.38716C99.3301 9.99495 99.6208 10.5333 99.9956 11.0023C100.37 11.4713 100.824 11.8446 101.35 12.1222C101.879 12.3999 102.466 12.5368 103.111 12.5368C103.757 12.5368 104.378 12.3924 104.905 12.1035C105.431 11.8146 105.881 11.43 106.251 10.9479C106.62 10.4677 106.901 9.92554 107.095 9.32338C107.289 8.72121 107.386 8.11342 107.386 7.5C107.386 6.85094 107.284 6.22439 107.079 5.62222C106.874 5.02006 106.58 4.48167 106.199 4.00707C105.817 3.53247 105.366 3.15916 104.845 2.88716C104.322 2.61703 103.744 2.48196 103.111 2.48196C102.442 2.48196 101.844 2.62453 101.316 2.90592C100.787 3.1873 100.339 3.56999 99.97 4.05209C99.6007 4.5342 99.3154 5.07258 99.1161 5.66724C98.9168 6.26378 98.8181 6.87532 98.8181 7.5Z" fill="#10B4E9"/>
<path d="M111.961 13.9098V1.0918H120.214V2.53624H113.546V6.81517H119.159V8.16957H113.546V13.9098H111.961Z" fill="#10B4E9"/>
<path d="M132 2.53624H127.689V13.9098H126.105V2.53624H121.794V1.0918H132V2.53624Z" fill="#10B4E9"/>
</g>
<g clip-path="url(#clip1_304_3616)">
<path d="M5.77229 0H0V16H5.77229V0Z" fill="url(#paint0_linear_304_3616)"/>
<path d="M0.143555 7.962L3.32353 3.15479L10.2387 16.0001H4.47605L0.143555 7.962Z" fill="url(#paint1_linear_304_3616)"/>
<path d="M0.143555 7.96204L3.05214 13.3506L10.2387 0.00146484H4.47605L0.143555 7.96204Z" fill="url(#paint2_linear_304_3616)"/>
<path d="M15.9655 13.1141L15.9337 13.1763H10.2388L10.2042 13.1115L9.57376 11.9401L6.67139 6.55618L9.56824 1.23242L12.4533 6.59026L13.0831 7.76166L15.9655 13.1141Z" fill="url(#paint3_linear_304_3616)"/>
<path d="M16.0001 0.00146484L12.4527 6.59017L9.56763 1.23234L10.2381 0.00146484H16.0001Z" fill="url(#paint4_linear_304_3616)"/>
<path d="M15.9655 13.1142L15.9338 13.1764L15.7004 13.608L14.4111 15.9989H8.64917L10.2043 13.1115L10.2188 13.0828L12.818 8.25554L13.0832 7.76172L15.9655 13.1142Z" fill="url(#paint5_linear_304_3616)"/>
</g>
<defs>
<linearGradient id="paint0_linear_304_3616" x1="2.8858" y1="-1.15403" x2="2.8858" y2="16.2646" gradientUnits="userSpaceOnUse">
<stop stop-color="#10B4E9"/>
<stop offset="1" stop-color="#20315C"/>
</linearGradient>
<linearGradient id="paint1_linear_304_3616" x1="10.5612" y1="14.4819" x2="5.28622" y2="10.3348" gradientUnits="userSpaceOnUse">
<stop stop-color="#10B4E9"/>
<stop offset="1" stop-color="#20315C"/>
</linearGradient>
<linearGradient id="paint2_linear_304_3616" x1="10.2387" y1="6.67637" x2="0.143555" y2="6.67637" gradientUnits="userSpaceOnUse">
<stop stop-color="#10B4E9"/>
<stop offset="1" stop-color="#20315C"/>
</linearGradient>
<linearGradient id="paint3_linear_304_3616" x1="14.3745" y1="11.5311" x2="7.67309" y2="4.6059" gradientUnits="userSpaceOnUse">
<stop stop-color="#10B4E9"/>
<stop offset="1" stop-color="#20315C"/>
</linearGradient>
<linearGradient id="paint4_linear_304_3616" x1="16.228" y1="3.29582" x2="8.60431" y2="3.29582" gradientUnits="userSpaceOnUse">
<stop stop-color="#10B4E9"/>
<stop offset="1" stop-color="#20315C"/>
</linearGradient>
<linearGradient id="paint5_linear_304_3616" x1="17.3784" y1="11.8807" x2="7.94343" y2="11.8807" gradientUnits="userSpaceOnUse">
<stop stop-color="#10B4E9"/>
<stop offset="1" stop-color="#20315C"/>
</linearGradient>
<clipPath id="clip0_304_3616">
<rect width="108" height="13" fill="white" transform="translate(24 1)"/>
</clipPath>
<clipPath id="clip1_304_3616">
<rect width="16" height="16" fill="white"/>
</clipPath>
</defs>
</svg>
