<svg width="402" height="80" viewBox="0 0 402 80" fill="none" xmlns="http://www.w3.org/2000/svg">
<path d="M13.0784 11.8919V49.3366C13.0784 50.9746 13.918 51.8264 15.5972 51.8919H49.504C50.7312 51.8264 51.7968 51.3022 52.701 50.3194C53.6052 49.2711 54.251 48.0917 54.6385 46.7813C55.0906 45.4054 55.3167 44.0295 55.3167 42.6536C55.3167 41.3432 55.0906 40.0328 54.6385 38.7224C54.251 37.3464 53.6052 36.1671 52.701 35.1843C51.7968 34.136 50.7312 33.6118 49.504 33.6118H24.7036C22.8952 33.6118 21.3452 32.9894 20.0535 31.7445C18.8264 30.4341 18.2128 28.8616 18.2128 27.027C18.2128 25.1925 18.8587 23.6527 20.1504 22.4079C21.3775 21.0975 22.8952 20.4423 24.7036 20.4423H49.1165C53.6375 20.5078 57.3511 21.8182 60.2574 24.3735C63.2283 26.8632 65.3273 29.7133 66.5544 32.9238C67.8461 36.0688 68.4919 39.3448 68.4919 42.7518C68.4919 46.0278 67.8461 49.2711 66.5544 52.4816C65.2627 55.6265 63.1637 58.4767 60.2574 61.0319C57.3511 63.5217 53.0562 64.8649 47.3728 65.0614H6.6845C4.87613 65.0614 3.3261 64.4717 2.03441 63.2924C0.742722 62.0475 0.0645845 60.5078 0 58.6732V11.8919C0 10.0573 0.645845 8.55037 1.93754 7.37101C3.29381 6.12613 4.87613 5.50369 6.6845 5.50369C10.5596 5.83129 12.6909 7.96069 13.0784 11.8919Z" fill="#5ED299"/>
<path d="M83.6551 19.4595C85.3988 19.525 86.8843 20.1802 88.1114 21.4251C89.3385 22.6044 89.9843 24.0786 90.0489 25.8477V59.8526C89.6614 63.7838 87.5301 65.9132 83.6551 66.2408C81.8467 66.2408 80.2644 65.6511 78.9081 64.4717C77.6164 63.2269 76.9706 61.6871 76.9706 59.8526V25.8477C77.0351 24.0131 77.7133 22.5061 79.005 21.3268C80.2967 20.0819 81.8467 19.4595 83.6551 19.4595ZM75.5174 6.68305C75.5174 4.84848 76.2924 3.276 77.8424 1.9656C79.3925 0.655201 81.2654 0 83.4613 0C85.6572 0 87.5301 0.655201 89.0802 1.9656C90.6302 3.276 91.4052 4.84848 91.4052 6.68305C91.4052 8.58313 90.6302 10.1884 89.0802 11.4988C87.5301 12.8092 85.6572 13.4644 83.4613 13.4644C81.2654 13.4644 79.3925 12.8092 77.8424 11.4988C76.2924 10.1884 75.5174 8.58313 75.5174 6.68305Z" fill="#5ED299"/>
<path d="M119.937 65.0614C114.254 64.8649 109.959 63.5217 107.053 61.0319C104.146 58.4767 102.047 55.6265 100.756 52.4816C99.4641 49.2711 98.8182 46.0278 98.8182 42.7518C98.8182 39.3448 99.4318 36.0688 100.659 32.9238C101.951 29.7133 104.05 26.8632 106.956 24.3735C109.927 21.8182 113.673 20.5078 118.194 20.4423H149.582C154.103 20.5078 157.816 21.8182 160.722 24.3735C163.693 26.8632 165.792 29.7133 167.019 32.9238C168.311 36.0688 168.957 39.3448 168.957 42.7518C168.957 46.0278 168.311 49.2711 167.019 52.4816C165.728 55.6265 163.629 58.4767 160.722 61.0319C157.816 63.5217 153.521 64.8649 147.838 65.0614H119.937ZM117.806 33.6118C116.579 33.6118 115.513 34.136 114.609 35.1843C113.705 36.1671 113.027 37.3464 112.575 38.7224C112.187 40.0328 111.993 41.3432 111.993 42.6536C111.993 44.0295 112.187 45.4054 112.575 46.7813C113.027 48.0917 113.705 49.2711 114.609 50.3194C115.513 51.3022 116.579 51.8264 117.806 51.8919H149.969C151.196 51.8264 152.262 51.3022 153.166 50.3194C154.07 49.2711 154.716 48.0917 155.104 46.7813C155.556 45.4054 155.782 44.0295 155.782 42.6536C155.782 41.3432 155.556 40.0328 155.104 38.7224C154.716 37.3464 154.07 36.1671 153.166 35.1843C152.262 34.136 151.196 33.6118 149.969 33.6118H117.806Z" fill="#5ED299"/>
<path d="M198.167 65.0614C192.484 64.8649 188.189 63.5217 185.283 61.0319C182.376 58.4767 180.277 55.6265 178.986 52.4816C177.694 49.2711 177.048 46.0278 177.048 42.7518C177.048 39.3448 177.662 36.0688 178.889 32.9238C180.181 29.7133 182.28 26.8632 185.186 24.3735C188.157 21.8182 191.903 20.5078 196.424 20.4423H227.812C232.333 20.5078 236.046 21.8182 238.952 24.3735C241.923 26.8632 244.022 29.7133 245.249 32.9238C246.541 36.0688 247.187 39.3448 247.187 42.7518C247.187 46.0278 246.541 49.2711 245.249 52.4816C243.958 55.6265 241.859 58.4767 238.952 61.0319C236.046 63.5217 231.751 64.8649 226.068 65.0614H198.167ZM196.036 33.6118C194.809 33.6118 193.743 34.136 192.839 35.1843C191.935 36.1671 191.257 37.3464 190.805 38.7224C190.417 40.0328 190.223 41.3432 190.223 42.6536C190.223 44.0295 190.417 45.4054 190.805 46.7813C191.257 48.0917 191.935 49.2711 192.839 50.3194C193.743 51.3022 194.809 51.8264 196.036 51.8919H228.199C229.426 51.8264 230.492 51.3022 231.396 50.3194C232.3 49.2711 232.946 48.0917 233.334 46.7813C233.786 45.4054 234.012 44.0295 234.012 42.6536C234.012 41.3432 233.786 40.0328 233.334 38.7224C232.946 37.3464 232.3 36.1671 231.396 35.1843C230.492 34.136 229.426 33.6118 228.199 33.6118H196.036Z" fill="#5ED299"/>
<path d="M269.422 73.6118C269.035 77.543 266.903 79.6724 263.028 80C261.22 80 259.638 79.3776 258.281 78.1327C256.99 76.9533 256.344 75.4464 256.344 73.6118V26.8305C256.408 24.9959 257.086 23.4889 258.378 22.3096C259.67 21.0647 261.22 20.4423 263.028 20.4423H303.717C309.4 20.6388 313.695 22.0147 316.601 24.57C319.507 27.0598 321.606 29.9099 322.898 33.1204C324.19 36.2654 324.836 39.4758 324.836 42.7518C324.836 46.1589 324.19 49.4676 322.898 52.6781C321.671 55.8231 319.572 58.6732 316.601 61.2285C313.695 63.7183 309.981 64.9959 305.46 65.0614H281.047C279.239 65.0614 277.721 64.4062 276.494 63.0958C275.202 61.8509 274.557 60.3112 274.557 58.4767C274.557 56.6421 275.17 55.1024 276.397 53.8575C277.689 52.5471 279.239 51.8919 281.047 51.8919H305.848C307.075 51.8919 308.141 51.4005 309.045 50.4177C309.949 49.3694 310.595 48.19 310.982 46.8796C311.434 45.5037 311.66 44.1605 311.66 42.8501C311.66 41.4742 311.434 40.131 310.982 38.8206C310.595 37.4447 309.949 36.2654 309.045 35.2826C308.141 34.2342 307.075 33.6773 305.848 33.6118H271.941C270.262 33.6773 269.422 34.5291 269.422 36.1671V73.6118Z" fill="#5ED299"/>
<path d="M355.693 5.50369C357.501 5.50369 359.051 6.12613 360.343 7.37101C361.635 8.55037 362.313 10.0573 362.377 11.8919V20.4423H395.315C397.124 20.4423 398.674 21.0647 399.966 22.3096C401.193 23.62 401.806 25.1925 401.806 27.027C401.806 28.8616 401.16 30.4341 399.869 31.7445C398.642 32.9894 397.124 33.6118 395.315 33.6118H362.377V35.5774C362.313 38.2637 362.474 40.7535 362.862 43.0467C363.314 45.2744 364.347 47.2727 365.962 49.0418C367.576 50.8108 369.611 51.7609 372.065 51.8919H395.703C397.511 51.9574 398.997 52.6454 400.159 53.9558C401.386 55.2662 402 56.8387 402 58.6732C401.935 60.4423 401.29 61.9492 400.062 63.1941C398.9 64.3735 397.447 64.9959 395.703 65.0614H368.771C364.25 64.7993 360.504 63.2596 357.534 60.4423C354.627 57.5594 352.528 54.0541 351.237 49.9263C350.009 45.7985 349.364 41.4087 349.299 36.7568V33.6118H338.158C336.35 33.6118 334.832 32.9566 333.605 31.6462C332.313 30.4013 331.667 28.8616 331.667 27.027C331.667 25.1925 332.281 23.6527 333.508 22.4079C334.8 21.0975 336.35 20.4423 338.158 20.4423H349.299V11.8919C349.364 10.1228 350.009 8.64865 351.237 7.46929C352.464 6.22441 353.949 5.56921 355.693 5.50369Z" fill="#5ED299"/>
</svg>
