<svg width="379" height="75" viewBox="0 0 379 75" fill="none" xmlns="http://www.w3.org/2000/svg">
<path d="M12.3301 11.1486V46.2531C12.3301 47.7887 13.1217 48.5872 14.7048 48.6486H46.6717C47.8286 48.5872 48.8333 48.0958 49.6858 47.1744C50.5382 46.1916 51.1471 45.086 51.5124 43.8575C51.9387 42.5676 52.1518 41.2776 52.1518 39.9877C52.1518 38.7592 51.9387 37.5307 51.5124 36.3022C51.1471 35.0123 50.5382 33.9066 49.6858 32.9853C48.8333 32.0025 47.8286 31.5111 46.6717 31.5111H23.2902C21.5853 31.5111 20.1239 30.9275 18.9062 29.7604C17.7493 28.5319 17.1708 27.0577 17.1708 25.3378C17.1708 23.6179 17.7797 22.1744 18.9975 21.0074C20.1544 19.7789 21.5853 19.1646 23.2902 19.1646H46.3064C50.5686 19.226 54.0698 20.4545 56.8098 22.8501C59.6107 25.1843 61.5896 27.8563 62.7465 30.8661C63.9643 33.8145 64.5732 36.8857 64.5732 40.0799C64.5732 43.1511 63.9643 46.1916 62.7465 49.2015C61.5287 52.1499 59.5498 54.8219 56.8098 57.2174C54.0698 59.5516 50.0206 60.8108 44.6624 60.9951H6.30205C4.59715 60.9951 3.1358 60.4423 1.91802 59.3366C0.700228 58.1695 0.0608894 56.726 0 55.0061V11.1486C0 9.42875 0.608894 8.01597 1.82668 6.91032C3.10536 5.74324 4.59715 5.15971 6.30205 5.15971C9.95542 5.46683 11.9648 7.46314 12.3301 11.1486Z" fill="#333333"/>
<path d="M78.8688 18.2432C80.5128 18.3047 81.9133 18.9189 83.0702 20.086C84.2271 21.1916 84.836 22.5737 84.8969 24.2322V56.1118C84.5315 59.7973 82.5222 61.7936 78.8688 62.1007C77.1639 62.1007 75.6721 61.5479 74.3935 60.4423C73.1757 59.2752 72.5668 57.8317 72.5668 56.1118V24.2322C72.6277 22.5123 73.267 21.0995 74.4848 19.9939C75.7026 18.8268 77.1639 18.2432 78.8688 18.2432ZM71.1968 6.26536C71.1968 4.54545 71.9274 3.07125 73.3888 1.84275C74.8501 0.614251 76.6159 0 78.6862 0C80.7564 0 82.5222 0.614251 83.9835 1.84275C85.4449 3.07125 86.1756 4.54545 86.1756 6.26536C86.1756 8.04668 85.4449 9.5516 83.9835 10.7801C82.5222 12.0086 80.7564 12.6228 78.6862 12.6228C76.6159 12.6228 74.8501 12.0086 73.3888 10.7801C71.9274 9.5516 71.1968 8.04668 71.1968 6.26536Z" fill="#333333"/>
<path d="M113.075 60.9951C107.717 60.8108 103.668 59.5516 100.928 57.2174C98.1878 54.8219 96.2089 52.1499 94.9911 49.2015C93.7733 46.1916 93.1644 43.1511 93.1644 40.0799C93.1644 36.8857 93.7429 33.8145 94.8998 30.8661C96.1176 27.8563 98.0965 25.1843 100.837 22.8501C103.637 20.4545 107.169 19.226 111.431 19.1646H141.024C145.286 19.226 148.787 20.4545 151.527 22.8501C154.328 25.1843 156.307 27.8563 157.464 30.8661C158.681 33.8145 159.29 36.8857 159.29 40.0799C159.29 43.1511 158.681 46.1916 157.464 49.2015C156.246 52.1499 154.267 54.8219 151.527 57.2174C148.787 59.5516 144.738 60.8108 139.38 60.9951H113.075ZM111.066 31.5111C109.909 31.5111 108.904 32.0025 108.052 32.9853C107.199 33.9066 106.56 35.0123 106.134 36.3022C105.769 37.5307 105.586 38.7592 105.586 39.9877C105.586 41.2776 105.769 42.5676 106.134 43.8575C106.56 45.086 107.199 46.1916 108.052 47.1744C108.904 48.0958 109.909 48.5872 111.066 48.6486H141.389C142.546 48.5872 143.55 48.0958 144.403 47.1744C145.255 46.1916 145.864 45.086 146.23 43.8575C146.656 42.5676 146.869 41.2776 146.869 39.9877C146.869 38.7592 146.656 37.5307 146.23 36.3022C145.864 35.0123 145.255 33.9066 144.403 32.9853C143.55 32.0025 142.546 31.5111 141.389 31.5111H111.066Z" fill="#333333"/>
<path d="M186.829 60.9951C181.471 60.8108 177.422 59.5516 174.682 57.2174C171.942 54.8219 169.963 52.1499 168.745 49.2015C167.527 46.1916 166.919 43.1511 166.919 40.0799C166.919 36.8857 167.497 33.8145 168.654 30.8661C169.872 27.8563 171.851 25.1843 174.591 22.8501C177.392 20.4545 180.923 19.226 185.185 19.1646H214.778C219.04 19.226 222.541 20.4545 225.281 22.8501C228.082 25.1843 230.061 27.8563 231.218 30.8661C232.436 33.8145 233.044 36.8857 233.044 40.0799C233.044 43.1511 232.436 46.1916 231.218 49.2015C230 52.1499 228.021 54.8219 225.281 57.2174C222.541 59.5516 218.492 60.8108 213.134 60.9951H186.829ZM184.82 31.5111C183.663 31.5111 182.658 32.0025 181.806 32.9853C180.954 33.9066 180.314 35.0123 179.888 36.3022C179.523 37.5307 179.34 38.7592 179.34 39.9877C179.34 41.2776 179.523 42.5676 179.888 43.8575C180.314 45.086 180.954 46.1916 181.806 47.1744C182.658 48.0958 183.663 48.5872 184.82 48.6486H215.143C216.3 48.5872 217.305 48.0958 218.157 47.1744C219.009 46.1916 219.618 45.086 219.984 43.8575C220.41 42.5676 220.623 41.2776 220.623 39.9877C220.623 38.7592 220.41 37.5307 219.984 36.3022C219.618 35.0123 219.009 33.9066 218.157 32.9853C217.305 32.0025 216.3 31.5111 215.143 31.5111H184.82Z" fill="#333333"/>
<path d="M254.007 69.0111C253.642 72.6966 251.633 74.6929 247.979 75C246.274 75 244.783 74.4165 243.504 73.2494C242.286 72.1437 241.677 70.731 241.677 69.0111V25.1536C241.738 23.4337 242.378 22.0209 243.595 20.9152C244.813 19.7482 246.274 19.1646 247.979 19.1646H286.34C291.698 19.3489 295.747 20.6388 298.487 23.0344C301.227 25.3685 303.206 28.0405 304.424 31.0504C305.642 33.9988 306.251 37.0086 306.251 40.0799C306.251 43.274 305.642 46.3759 304.424 49.3857C303.267 52.3342 301.288 55.0061 298.487 57.4017C295.747 59.7359 292.246 60.9337 287.984 60.9951H264.968C263.263 60.9951 261.832 60.3808 260.675 59.1523C259.457 57.9853 258.848 56.5418 258.848 54.8219C258.848 53.102 259.427 51.6585 260.583 50.4914C261.801 49.2629 263.263 48.6486 264.968 48.6486H288.349C289.506 48.6486 290.511 48.188 291.363 47.2666C292.216 46.2838 292.824 45.1781 293.19 43.9496C293.616 42.6597 293.829 41.4005 293.829 40.172C293.829 38.8821 293.616 37.6228 293.19 36.3943C292.824 35.1044 292.216 33.9988 291.363 33.0774C290.511 32.0946 289.506 31.5725 288.349 31.5111H256.382C254.799 31.5725 254.007 32.371 254.007 33.9066V69.0111Z" fill="#333333"/>
<path d="M335.342 5.15971C337.047 5.15971 338.509 5.74324 339.726 6.91032C340.944 8.01597 341.583 9.42875 341.644 11.1486V19.1646H372.698C374.403 19.1646 375.864 19.7482 377.082 20.9152C378.239 22.1437 378.817 23.6179 378.817 25.3378C378.817 27.0577 378.208 28.5319 376.991 29.7604C375.834 30.9275 374.403 31.5111 372.698 31.5111H341.644V33.3538C341.583 35.8722 341.736 38.2064 342.101 40.3563C342.527 42.4447 343.501 44.3182 345.024 45.9767C346.546 47.6351 348.464 48.5258 350.778 48.6486H373.063C374.768 48.7101 376.169 49.355 377.265 50.5835C378.422 51.812 379 53.2862 379 55.0061C378.939 56.6646 378.33 58.0774 377.173 59.2445C376.077 60.3501 374.707 60.9337 373.063 60.9951H347.672C343.41 60.7494 339.879 59.3059 337.078 56.6646C334.338 53.9619 332.359 50.6757 331.141 46.8059C329.984 42.9361 329.375 38.8206 329.314 34.4595V31.5111H318.811C317.106 31.5111 315.675 30.8968 314.518 29.6683C313.3 28.5012 312.691 27.0577 312.691 25.3378C312.691 23.6179 313.27 22.1744 314.427 21.0074C315.645 19.7789 317.106 19.1646 318.811 19.1646H329.314V11.1486C329.375 9.49017 329.984 8.10811 331.141 7.00246C332.298 5.83538 333.698 5.22113 335.342 5.15971Z" fill="#333333"/>
</svg>
