<svg width="261" height="49" viewBox="0 0 261 49" fill="none" xmlns="http://www.w3.org/2000/svg">
<path fill-rule="evenodd" clip-rule="evenodd" d="M4.10179 43.2061L24.9851 23.4002L26.5327 24.2197C29.8357 25.9669 31.8991 29.3948 31.8991 33.1305C31.8991 38.6966 27.3855 43.2103 21.8194 43.2103H4.09762L4.10179 43.2061ZM16.9355 0H0V47.0999L0.166412 46.9418H21.8235C29.453 46.9418 35.639 40.7558 35.639 33.1263C35.639 28.0053 32.806 23.3086 28.2799 20.9125L27.6101 20.5589C29.1452 18.379 29.9897 15.7582 29.9897 13.05C29.9897 5.84069 24.149 0 16.9396 0H16.9355Z" fill="url(#paint0_linear_180_3381)"/>
<path d="M63.1861 13.5606V32.5246C63.1861 33.3542 63.6132 33.7855 64.4672 33.8187H81.713C82.3371 33.7855 82.8791 33.5201 83.339 33.0223C83.7989 32.4914 84.1274 31.8941 84.3245 31.2304C84.5544 30.5336 84.6694 29.8368 84.6694 29.1399C84.6694 28.4763 84.5544 27.8126 84.3245 27.149C84.1274 26.4521 83.7989 25.8548 83.339 25.3571C82.8791 24.8262 82.3371 24.5607 81.713 24.5607H69.0989C68.1792 24.5607 67.3908 24.2455 66.7338 23.615C66.1097 22.9513 65.7976 22.1549 65.7976 21.2258C65.7976 20.2967 66.1261 19.5169 66.7831 18.8864C67.4072 18.2228 68.1792 17.8909 69.0989 17.8909H81.5159C83.8153 17.9241 85.7041 18.5878 87.1824 19.8819C88.6934 21.1429 89.761 22.5863 90.3851 24.2123C91.0421 25.8051 91.3706 27.4642 91.3706 29.1897C91.3706 30.8488 91.0421 32.4914 90.3851 34.1174C89.7282 35.7101 88.6606 37.1536 87.1824 38.4477C85.7041 39.7087 83.5197 40.3889 80.629 40.4885H59.9341C59.0143 40.4885 58.2259 40.1898 57.5689 39.5925C56.9119 38.9621 56.567 38.1823 56.5342 37.2531V13.5606C56.5342 12.6315 56.8627 11.8683 57.5197 11.271C58.2095 10.6405 59.0143 10.3253 59.9341 10.3253C61.905 10.4912 62.989 11.5696 63.1861 13.5606Z" fill="white"/>
<path d="M99.0829 17.3932C99.9698 17.4264 100.725 17.7582 101.349 18.3887C101.974 18.986 102.302 19.7326 102.335 20.6285V37.8504C102.138 39.8414 101.054 40.9198 99.0829 41.0858C98.1631 41.0858 97.3583 40.7871 96.6685 40.1898C96.0115 39.5593 95.683 38.7795 95.683 37.8504V20.6285C95.7159 19.6994 96.0608 18.9362 96.7178 18.3389C97.3748 17.7084 98.1631 17.3932 99.0829 17.3932ZM94.9439 10.9226C94.9439 9.99343 95.3381 9.19704 96.1265 8.53339C96.9149 7.86973 97.8675 7.5379 98.9844 7.5379C100.101 7.5379 101.054 7.86973 101.842 8.53339C102.631 9.19704 103.025 9.99343 103.025 10.9226C103.025 11.8849 102.631 12.6978 101.842 13.3615C101.054 14.0251 100.101 14.357 98.9844 14.357C97.8675 14.357 96.9149 14.0251 96.1265 13.3615C95.3381 12.6978 94.9439 11.8849 94.9439 10.9226Z" fill="white"/>
<path d="M117.537 40.4885C114.646 40.3889 112.462 39.7087 110.983 38.4477C109.505 37.1536 108.438 35.7101 107.781 34.1174C107.124 32.4914 106.795 30.8488 106.795 29.1897C106.795 27.4642 107.107 25.8051 107.731 24.2123C108.388 22.5863 109.456 21.1429 110.934 19.8819C112.445 18.5878 114.35 17.9241 116.65 17.8909H132.615C134.914 17.9241 136.803 18.5878 138.281 19.8819C139.792 21.1429 140.86 22.5863 141.484 24.2123C142.141 25.8051 142.469 27.4642 142.469 29.1897C142.469 30.8488 142.141 32.4914 141.484 34.1174C140.827 35.7101 139.759 37.1536 138.281 38.4477C136.803 39.7087 134.618 40.3889 131.728 40.4885H117.537ZM116.453 24.5607C115.829 24.5607 115.287 24.8262 114.827 25.3571C114.367 25.8548 114.022 26.4521 113.792 27.149C113.595 27.8126 113.496 28.4763 113.496 29.1399C113.496 29.8368 113.595 30.5336 113.792 31.2304C114.022 31.8941 114.367 32.4914 114.827 33.0223C115.287 33.5201 115.829 33.7855 116.453 33.8187H132.812C133.436 33.7855 133.978 33.5201 134.438 33.0223C134.898 32.4914 135.226 31.8941 135.423 31.2304C135.653 30.5336 135.768 29.8368 135.768 29.1399C135.768 28.4763 135.653 27.8126 135.423 27.149C135.226 26.4521 134.898 25.8548 134.438 25.3571C133.978 24.8262 133.436 24.5607 132.812 24.5607H116.453Z" fill="white"/>
<path d="M157.326 40.4885C154.436 40.3889 152.251 39.7087 150.773 38.4477C149.295 37.1536 148.227 35.7101 147.57 34.1174C146.913 32.4914 146.585 30.8488 146.585 29.1897C146.585 27.4642 146.897 25.8051 147.521 24.2123C148.178 22.5863 149.245 21.1429 150.724 19.8819C152.235 18.5878 154.14 17.9241 156.439 17.8909H172.404C174.703 17.9241 176.592 18.5878 178.07 19.8819C179.582 21.1429 180.649 22.5863 181.273 24.2123C181.93 25.8051 182.259 27.4642 182.259 29.1897C182.259 30.8488 181.93 32.4914 181.273 34.1174C180.616 35.7101 179.549 37.1536 178.07 38.4477C176.592 39.7087 174.408 40.3889 171.517 40.4885H157.326ZM156.242 24.5607C155.618 24.5607 155.076 24.8262 154.616 25.3571C154.156 25.8548 153.811 26.4521 153.581 27.149C153.384 27.8126 153.286 28.4763 153.286 29.1399C153.286 29.8368 153.384 30.5336 153.581 31.2304C153.811 31.8941 154.156 32.4914 154.616 33.0223C155.076 33.5201 155.618 33.7855 156.242 33.8187H172.601C173.225 33.7855 173.767 33.5201 174.227 33.0223C174.687 32.4914 175.015 31.8941 175.213 31.2304C175.443 30.5336 175.557 29.8368 175.557 29.1399C175.557 28.4763 175.443 27.8126 175.213 27.149C175.015 26.4521 174.687 25.8548 174.227 25.3571C173.767 24.8262 173.225 24.5607 172.601 24.5607H156.242Z" fill="white"/>
<path d="M193.568 44.8188C193.371 46.8098 192.287 47.8882 190.316 48.0541C189.396 48.0541 188.591 47.7389 187.902 47.1084C187.245 46.5111 186.916 45.7479 186.916 44.8188V21.1263C186.949 20.1972 187.294 19.434 187.951 18.8367C188.608 18.2062 189.396 17.8909 190.316 17.8909H211.011C213.902 17.9905 216.086 18.6873 217.564 19.9815C219.042 21.2424 220.11 22.6859 220.767 24.3118C221.424 25.9046 221.752 27.5306 221.752 29.1897C221.752 30.9152 221.424 32.5909 220.767 34.2169C220.143 35.8097 219.075 37.2531 217.564 38.5473C216.086 39.8082 214.197 40.4553 211.898 40.4885H199.481C198.561 40.4885 197.789 40.1566 197.165 39.493C196.508 38.8625 196.179 38.0827 196.179 37.1536C196.179 36.2245 196.492 35.4447 197.116 34.8142C197.773 34.1505 198.561 33.8187 199.481 33.8187H212.095C212.719 33.8187 213.261 33.5698 213.721 33.0721C214.181 32.5412 214.509 31.9439 214.706 31.2802C214.936 30.5834 215.051 29.9031 215.051 29.2395C215.051 28.5426 214.936 27.8624 214.706 27.1987C214.509 26.5019 214.181 25.9046 213.721 25.4069C213.261 24.8759 212.719 24.5939 212.095 24.5607H194.849C193.995 24.5939 193.568 25.0253 193.568 25.8548V44.8188Z" fill="white"/>
<path d="M237.447 10.3253C238.367 10.3253 239.155 10.6405 239.812 11.271C240.469 11.8683 240.814 12.6315 240.847 13.5606V17.8909H257.6C258.52 17.8909 259.308 18.2062 259.965 18.8367C260.589 19.5003 260.901 20.2967 260.901 21.2258C260.901 22.1549 260.573 22.9513 259.916 23.615C259.292 24.2455 258.52 24.5607 257.6 24.5607H240.847V25.5562C240.814 26.9167 240.896 28.1776 241.093 29.339C241.323 30.4672 241.849 31.4793 242.67 32.3753C243.491 33.2712 244.526 33.7523 245.774 33.8187H257.797C258.717 33.8519 259.472 34.2003 260.064 34.864C260.688 35.5276 261 36.324 261 37.2531C260.967 38.1491 260.639 38.9123 260.014 39.5428C259.423 40.14 258.684 40.4553 257.797 40.4885H244.099C241.8 40.3557 239.894 39.5759 238.383 38.1491C236.905 36.689 235.837 34.9137 235.181 32.8232C234.556 30.7327 234.228 28.5095 234.195 26.1535V24.5607H228.529C227.609 24.5607 226.837 24.2289 226.213 23.5652C225.556 22.9347 225.227 22.1549 225.227 21.2258C225.227 20.2967 225.539 19.5169 226.163 18.8864C226.82 18.2228 227.609 17.8909 228.529 17.8909H234.195V13.5606C234.228 12.6647 234.556 11.918 235.181 11.3207C235.805 10.6903 236.56 10.3584 237.447 10.3253Z" fill="white"/>
<defs>
<linearGradient id="paint0_linear_180_3381" x1="17.8195" y1="0" x2="17.8195" y2="47.0999" gradientUnits="userSpaceOnUse">
<stop stop-color="#6BDDC7"/>
<stop offset="1" stop-color="#71E7AB"/>
</linearGradient>
</defs>
</svg>
