<svg width="67" height="67" viewBox="0 0 67 67" fill="none" xmlns="http://www.w3.org/2000/svg">
<g clip-path="url(#clip0_225_12637)">
<path d="M34.4858 35.1125C34.4851 35.1125 34.4846 35.1125 34.4841 35.1125C30.7332 35.1114 27.6807 31.8671 27.6797 27.8803C27.6787 24.1219 30.5959 20.6508 34.4813 20.6508C38.2322 20.6518 41.2847 23.8961 41.2857 27.8829C41.2867 31.6398 38.3708 35.1125 34.4858 35.1125ZM34.4796 22.9414C31.8484 22.9414 29.9696 25.377 29.9703 27.8797C29.971 30.6041 31.9962 32.8211 34.4846 32.8219C37.1165 32.8219 38.9958 30.3872 38.9951 27.8835C38.9944 25.1591 36.9692 22.9421 34.4808 22.9414C34.4803 22.9414 34.48 22.9414 34.4796 22.9414Z" fill="url(#paint0_linear_225_12637)"/>
<path d="M21.9802 31.0718C20.1645 31.0718 18.6875 29.5939 18.6875 27.7773C18.6875 25.9608 20.1646 24.483 21.9802 24.483C23.7958 24.483 25.273 25.9608 25.273 27.7773C25.273 29.5939 23.7958 31.0718 21.9802 31.0718ZM21.9802 26.7738C21.4276 26.7738 20.9781 27.224 20.9781 27.7775C20.9781 28.331 21.4278 28.7813 21.9802 28.7813C22.5327 28.7813 22.9824 28.331 22.9824 27.7775C22.9824 27.224 22.5328 26.7738 21.9802 26.7738Z" fill="url(#paint1_linear_225_12637)"/>
<path d="M47.1912 31.0434C45.3756 31.0434 43.8984 29.5656 43.8984 27.749C43.8984 25.9325 45.3756 24.4546 47.1912 24.4546C49.0069 24.4546 50.4839 25.9325 50.4839 27.749C50.4839 29.5656 49.0069 31.0434 47.1912 31.0434ZM47.1912 26.7452C46.6386 26.7452 46.189 27.1956 46.189 27.749C46.189 28.3025 46.6386 28.7528 47.1912 28.7528C47.7438 28.7528 48.1933 28.3025 48.1933 27.749C48.1933 27.1956 47.7438 26.7452 47.1912 26.7452Z" fill="url(#paint2_linear_225_12637)"/>
<path d="M20.4708 41.9203L19.118 41.9198C18.1775 37.1316 14.5349 33.2791 9.74153 32.2582L9.73982 27.3402C9.73967 26.7078 9.22687 26.1987 8.59452 26.1987C8.59437 26.1987 8.59423 26.1987 8.59409 26.1987C7.9616 26.1987 7.44893 26.7085 7.44922 27.341L7.4548 43.0633C7.45495 43.6955 7.96747 44.2202 8.59967 44.2204L20.47 44.2372H20.4704C21.1028 44.2372 21.6156 43.7115 21.6157 43.0792C21.6159 42.4467 21.1033 41.9205 20.4708 41.9203ZM9.74239 34.6065C13.3048 35.5143 15.9171 38.3741 16.7721 41.919L9.74497 41.9162L9.74239 34.6065Z" fill="url(#paint3_linear_225_12637)"/>
<path d="M61.8357 12.4296C61.8356 11.7974 61.3231 11.3025 60.6907 11.3024L28.0518 11.3098C28.0517 11.3098 28.0517 11.3098 28.0515 11.3098C27.4192 11.3098 26.9064 11.8047 26.9063 12.4371C26.9061 13.0697 27.4186 13.5738 28.0513 13.5739L50.0993 13.5764C51.1213 18.3485 54.9176 21.939 59.5487 23.2455L59.5524 34.7796C59.5526 35.4119 60.0654 35.9336 60.6977 35.9336H60.698C61.3305 35.9336 61.8432 35.4109 61.843 34.7783L61.8357 12.4296ZM52.4552 13.5728L59.5456 13.5751L59.548 20.851C56.1623 19.694 53.3755 17.0884 52.4552 13.5728Z" fill="url(#paint4_linear_225_12637)"/>
<path d="M66.9981 42.3761C66.9981 40.1622 65.2034 38.3676 62.9896 38.3676H27.9148C25.7009 38.3676 23.9062 40.1622 23.9062 42.3761V62.9915C23.9062 65.2053 25.7009 67 27.9148 67H62.9896C65.2034 67 66.9981 65.2053 66.9981 62.9915V42.3761ZM27.9148 40.6582H62.9896C63.9369 40.6582 64.7075 41.4095 64.7075 42.3568V45.3825H26.1968V42.3568C26.1968 41.4095 26.9675 40.6582 27.9148 40.6582ZM62.9896 64.7094H27.9148C26.9675 64.7094 26.1968 63.9388 26.1968 62.9915V47.6731H64.7075V62.9915C64.7075 63.9388 63.9369 64.7094 62.9896 64.7094Z" fill="url(#paint5_linear_225_12637)"/>
<path d="M59.4074 54.106H42.5203C41.8878 54.106 41.375 53.5932 41.375 52.9607C41.375 52.3282 41.8878 51.8154 42.5203 51.8154H59.4074C60.0399 51.8154 60.5527 52.3282 60.5527 52.9607C60.5527 53.5932 60.0401 54.106 59.4074 54.106Z" fill="url(#paint6_linear_225_12637)"/>
<path d="M59.4074 60.4097H42.5203C41.8878 60.4097 41.375 59.8969 41.375 59.2644C41.375 58.6319 41.8878 58.1191 42.5203 58.1191H59.4074C60.0399 58.1191 60.5527 58.6319 60.5527 59.2644C60.5527 59.8969 60.0401 60.4097 59.4074 60.4097Z" fill="url(#paint7_linear_225_12637)"/>
<path d="M12.1688 24.3536C5.45893 24.3536 0 18.8911 0 12.1768C0 5.4625 5.45893 0 12.1688 0C18.8787 0 24.3376 5.4625 24.3376 12.177C24.3376 18.8911 18.8787 24.3536 12.1688 24.3536ZM12.1688 2.2906C6.7219 2.2906 2.2906 6.72563 2.2906 12.177C2.2906 17.6282 6.7219 22.0632 12.1688 22.0632C17.6157 22.0632 22.047 17.6282 22.047 12.177C22.047 6.72563 17.6157 2.2906 12.1688 2.2906Z" fill="url(#paint8_linear_225_12637)"/>
<path d="M12.9245 10.9088C11.3896 10.272 10.9456 9.8991 10.9456 9.24628C10.9456 8.70627 11.3339 8.12918 12.4238 8.12918C13.3535 8.19403 14.1968 8.46876 14.9537 8.95351L15.7315 6.89426C14.9874 6.42354 14.163 6.13479 13.2584 6.0277V4.22815H11.2252V6.15597C9.52772 6.57573 8.47534 7.84042 8.47534 9.46532C8.47534 11.4749 10.0554 12.3731 11.7622 13.0442C13.0235 13.557 13.5378 14.0648 13.5378 14.7971C13.5378 15.5964 12.8487 16.1332 11.8229 16.1332C10.7433 16.0641 9.79229 15.7205 8.96996 15.1022L8.22266 17.1942C9.04197 17.8229 10.0003 18.177 11.0978 18.2571V20.1256H13.1492V18.1421C14.8986 17.7042 16.0264 16.3451 16.0264 14.6693C16.0264 12.9227 15.0986 11.798 12.9245 10.9088Z" fill="url(#paint9_linear_225_12637)"/>
<path d="M8.96171 54.3971C8.32921 54.3971 7.81641 53.8843 7.81641 53.2518V51.5271C7.81641 50.8946 8.32921 50.3818 8.96171 50.3818C9.5942 50.3818 10.107 50.8946 10.107 51.5271V53.2518C10.107 53.8843 9.5942 54.3971 8.96171 54.3971Z" fill="url(#paint10_linear_225_12637)"/>
<path d="M8.96171 61.8415C8.32921 61.8415 7.81641 61.3287 7.81641 60.6962V58.9713C7.81641 58.3389 8.32921 57.826 8.96171 57.826C9.5942 57.826 10.107 58.3389 10.107 58.9713V60.6962C10.107 61.3287 9.5942 61.8415 8.96171 61.8415Z" fill="url(#paint11_linear_225_12637)"/>
<path d="M13.5584 57.2568H11.8289C11.1964 57.2568 10.6836 56.744 10.6836 56.1115C10.6836 55.479 11.1964 54.9662 11.8289 54.9662H13.5584C14.1909 54.9662 14.7037 55.479 14.7037 56.1115C14.7037 56.744 14.1909 57.2568 13.5584 57.2568Z" fill="url(#paint12_linear_225_12637)"/>
<path d="M6.09345 57.2568H4.36405C3.73156 57.2568 3.21875 56.744 3.21875 56.1115C3.21875 55.479 3.73156 54.9662 4.36405 54.9662H6.09359C6.72609 54.9662 7.23889 55.479 7.23889 56.1115C7.23889 56.744 6.72609 57.2568 6.09345 57.2568Z" fill="url(#paint13_linear_225_12637)"/>
</g>
<defs>
<linearGradient id="paint0_linear_225_12637" x1="34.4827" y1="20.6508" x2="34.4827" y2="35.1125" gradientUnits="userSpaceOnUse">
<stop stop-color="#6BDDC7"/>
<stop offset="1" stop-color="#71E7AB"/>
</linearGradient>
<linearGradient id="paint1_linear_225_12637" x1="21.9802" y1="24.483" x2="21.9802" y2="31.0718" gradientUnits="userSpaceOnUse">
<stop stop-color="#6BDDC7"/>
<stop offset="1" stop-color="#71E7AB"/>
</linearGradient>
<linearGradient id="paint2_linear_225_12637" x1="47.1912" y1="24.4546" x2="47.1912" y2="31.0434" gradientUnits="userSpaceOnUse">
<stop stop-color="#6BDDC7"/>
<stop offset="1" stop-color="#71E7AB"/>
</linearGradient>
<linearGradient id="paint3_linear_225_12637" x1="14.5325" y1="26.1987" x2="14.5325" y2="44.2372" gradientUnits="userSpaceOnUse">
<stop stop-color="#6BDDC7"/>
<stop offset="1" stop-color="#71E7AB"/>
</linearGradient>
<linearGradient id="paint4_linear_225_12637" x1="44.3746" y1="11.3024" x2="44.3746" y2="35.9336" gradientUnits="userSpaceOnUse">
<stop stop-color="#6BDDC7"/>
<stop offset="1" stop-color="#71E7AB"/>
</linearGradient>
<linearGradient id="paint5_linear_225_12637" x1="45.4522" y1="38.3676" x2="45.4522" y2="67" gradientUnits="userSpaceOnUse">
<stop stop-color="#6BDDC7"/>
<stop offset="1" stop-color="#71E7AB"/>
</linearGradient>
<linearGradient id="paint6_linear_225_12637" x1="50.9639" y1="51.8154" x2="50.9639" y2="54.106" gradientUnits="userSpaceOnUse">
<stop stop-color="#6BDDC7"/>
<stop offset="1" stop-color="#71E7AB"/>
</linearGradient>
<linearGradient id="paint7_linear_225_12637" x1="50.9639" y1="58.1191" x2="50.9639" y2="60.4097" gradientUnits="userSpaceOnUse">
<stop stop-color="#6BDDC7"/>
<stop offset="1" stop-color="#71E7AB"/>
</linearGradient>
<linearGradient id="paint8_linear_225_12637" x1="12.1688" y1="0" x2="12.1688" y2="24.3536" gradientUnits="userSpaceOnUse">
<stop stop-color="#6BDDC7"/>
<stop offset="1" stop-color="#71E7AB"/>
</linearGradient>
<linearGradient id="paint9_linear_225_12637" x1="12.1245" y1="4.22815" x2="12.1245" y2="20.1256" gradientUnits="userSpaceOnUse">
<stop stop-color="#6BDDC7"/>
<stop offset="1" stop-color="#71E7AB"/>
</linearGradient>
<linearGradient id="paint10_linear_225_12637" x1="8.96171" y1="50.3818" x2="8.96171" y2="54.3971" gradientUnits="userSpaceOnUse">
<stop stop-color="#6BDDC7"/>
<stop offset="1" stop-color="#71E7AB"/>
</linearGradient>
<linearGradient id="paint11_linear_225_12637" x1="8.96171" y1="57.826" x2="8.96171" y2="61.8415" gradientUnits="userSpaceOnUse">
<stop stop-color="#6BDDC7"/>
<stop offset="1" stop-color="#71E7AB"/>
</linearGradient>
<linearGradient id="paint12_linear_225_12637" x1="12.6937" y1="54.9662" x2="12.6937" y2="57.2568" gradientUnits="userSpaceOnUse">
<stop stop-color="#6BDDC7"/>
<stop offset="1" stop-color="#71E7AB"/>
</linearGradient>
<linearGradient id="paint13_linear_225_12637" x1="5.22882" y1="54.9662" x2="5.22882" y2="57.2568" gradientUnits="userSpaceOnUse">
<stop stop-color="#6BDDC7"/>
<stop offset="1" stop-color="#71E7AB"/>
</linearGradient>
<clipPath id="clip0_225_12637">
<rect width="67" height="67" fill="white"/>
</clipPath>
</defs>
</svg>
