<svg width="56" height="68" viewBox="0 0 56 68" fill="none" xmlns="http://www.w3.org/2000/svg">
<g clip-path="url(#clip0_225_12623)">
<path d="M-0.414062 44.1492V63.4318C-0.414062 63.7009 -0.307154 63.9591 -0.116852 64.1494C0.0734508 64.3397 0.331561 64.4467 0.600706 64.4467H6.68435C7.40967 64.4447 8.11051 64.1841 8.66084 63.7116C9.21118 63.2392 9.57493 62.5859 9.68668 61.8692L19.3767 66.3371C21.7016 67.3745 24.2782 67.7128 26.7921 67.3107C29.306 66.9086 31.6485 65.7835 33.5338 64.0726L46.4462 52.3786C48.612 50.5454 46.9979 46.8174 44.2394 47.0545V36.0307C44.2386 35.2235 43.9175 34.4496 43.3468 33.8788C42.776 33.308 42.0021 32.987 41.1949 32.9861C37.5269 32.9916 29.5712 32.9822 25.9719 32.9861H16.8386C16.0314 32.987 15.2575 33.308 14.6867 33.8788C14.1159 34.4496 13.7948 35.2234 13.7939 36.0307V45.1976C13.7685 45.1359 9.73167 45.174 9.54624 45.1642C9.33684 44.572 8.94942 44.059 8.43707 43.6955C7.92473 43.3321 7.31252 43.136 6.68435 43.134H0.600576C0.467292 43.1341 0.335318 43.1603 0.21219 43.2114C0.0890622 43.2624 -0.0228074 43.3372 -0.117029 43.4315C-0.21125 43.5257 -0.285977 43.6376 -0.336943 43.7608C-0.387909 43.8839 -0.414114 44.0159 -0.414062 44.1492ZM31.0468 35.0154V39.1822L29.5895 38.1864C28.7446 37.5769 27.798 38.7288 26.9872 39.1822V35.0154H31.0468ZM16.8387 35.0154H24.9577V41.1046C24.9948 41.4031 25.0934 41.704 25.348 41.8849C25.5171 42.017 25.7229 42.0934 25.9372 42.1037C26.1515 42.114 26.3638 42.0578 26.5448 41.9426L29.0171 40.2533L31.4887 41.9426C31.6908 42.0777 31.9346 42.136 32.1759 42.1068C32.4173 42.0777 32.6403 41.9631 32.8045 41.7839C32.9839 41.6095 33.0371 41.3428 33.0759 41.1046V35.0154H41.1954C41.4644 35.0158 41.7224 35.1228 41.9126 35.313C42.1029 35.5033 42.2099 35.7612 42.2103 36.0303V47.7733L27.2765 55.0572C29.0795 52.178 26.7846 48.1124 23.376 48.2088H16.5789C16.3933 47.6717 16.1842 46.8408 15.8237 46.4007V36.0307C15.8239 35.7615 15.9309 35.5035 16.1212 35.3131C16.3115 35.1228 16.5695 35.0157 16.8386 35.0154H16.8387ZM14.3367 47.8896C14.717 48.7737 14.7498 50.247 15.8457 50.2385H23.378C24.0508 50.2385 24.6961 50.5058 25.1718 50.9815C25.6476 51.4573 25.9149 52.1026 25.9149 52.7754C25.9149 53.4482 25.6476 54.0935 25.1718 54.5693C24.6961 55.045 24.0508 55.3123 23.378 55.3123H18.8683C18.734 55.3108 18.6008 55.3359 18.4763 55.3862C18.3519 55.4366 18.2386 55.5111 18.1432 55.6055C18.0477 55.6998 17.9719 55.8122 17.9202 55.9361C17.8685 56.06 17.8418 56.1929 17.8418 56.3272C17.8418 56.4614 17.8685 56.5943 17.9202 56.7182C17.9719 56.8421 18.0477 56.9545 18.1432 57.0489C18.2386 57.1432 18.3519 57.2178 18.4763 57.2681C18.6008 57.3184 18.734 57.3435 18.8683 57.342H26.9872C27.1412 57.3419 27.2933 57.3068 27.4318 57.2395C27.6397 57.1385 44.043 49.1373 43.9349 49.1904C44.1537 49.0682 44.4114 49.0354 44.6539 49.0987C44.8964 49.1621 45.105 49.3167 45.2362 49.5304C45.3852 49.733 45.4519 49.9846 45.4229 50.2345C45.394 50.4844 45.2715 50.7141 45.08 50.8773L32.1706 62.5681C30.5793 64.0136 28.6017 64.9649 26.4791 65.3061C24.3564 65.6472 22.1804 65.3634 20.2162 64.4893L9.7335 59.6561V47.1946H13.3742C13.5875 47.1941 13.7954 47.2611 13.9682 47.3859C14.1411 47.5108 14.2701 47.6871 14.3367 47.8896ZM1.61548 45.1641H6.68435C6.95477 45.1645 7.21401 45.272 7.40522 45.4632C7.59643 45.6545 7.70401 45.9137 7.70435 46.1841V61.3961C7.7039 61.6665 7.59629 61.9257 7.4051 62.1169C7.21391 62.308 6.95474 62.4156 6.68435 62.4161H1.61548V45.1641Z" fill="url(#paint0_linear_225_12623)"/>
<path d="M33.073 48.2087H36.1176C37.4439 48.2031 37.4454 46.1848 36.1176 46.1791H33.073C31.7473 46.1848 31.7457 48.203 33.073 48.2087Z" fill="url(#paint1_linear_225_12623)"/>
<path d="M56.4133 22.837V7.61406C56.4133 7.34492 56.3064 7.08679 56.1161 6.89647C55.9258 6.70614 55.6677 6.5992 55.3986 6.59916C54.681 6.66062 48.8448 6.42916 48.3067 6.78224L39.5233 1.85224C37.6136 0.767775 35.4044 0.329989 33.2255 0.604227C31.0466 0.878465 29.0147 1.85002 27.4333 3.37387L22.7578 7.90345L15.242 3.2533L11.786 1.11496C11.6716 1.04502 11.5445 0.998323 11.412 0.977556C11.2795 0.956789 11.1442 0.962355 11.0138 0.993935C10.8835 1.02552 10.7607 1.08249 10.6524 1.1616C10.5441 1.24071 10.4524 1.3404 10.3827 1.45496C9.18408 3.44396 6.60963 7.71985 5.39517 9.73527L3.27854 13.2488C3.14149 13.4761 3.09897 13.7482 3.16008 14.0065C3.22119 14.2649 3.38107 14.489 3.60547 14.6309L24.5267 27.8454C29.7164 31.0231 28.2036 31.3118 31.5676 26.2812C31.5676 26.2812 31.5686 26.2805 31.569 26.2798C31.5694 26.2791 33.4836 23.3128 33.4837 23.312L35.4363 24.4958C36.5569 25.1809 37.8473 25.5377 39.1607 25.5257C40.4741 25.5136 41.7578 25.1332 42.8657 24.4277L46.5604 22.0939C46.8042 22.6179 47.1922 23.0616 47.6791 23.3731C48.166 23.6845 48.7315 23.8507 49.3094 23.8523H55.3987C55.532 23.8523 55.664 23.826 55.7871 23.775C55.9102 23.7239 56.0221 23.6491 56.1163 23.5548C56.2105 23.4606 56.2853 23.3486 56.3362 23.2255C56.3872 23.1023 56.4134 22.9703 56.4133 22.837ZM11.5913 3.38158L13.1651 4.35529C12.8193 4.65104 12.4095 4.86246 11.9681 4.97291C11.5267 5.08335 11.0657 5.0898 10.6214 4.99175L11.5913 3.38158ZM6.49677 11.8396C6.79136 12.1981 6.99999 12.6192 7.10671 13.0707C7.21342 13.5223 7.21538 13.9922 7.11244 14.4447L5.53013 13.4451L6.49677 11.8396ZM28.1969 27.7623L26.6135 26.7623C26.9707 26.4626 27.3941 26.2521 27.8487 26.1481C28.3033 26.0442 28.776 26.0499 29.228 26.1646L28.1969 27.7623ZM30.3618 24.4076C28.4867 23.6163 26.1874 24.1485 24.8326 25.6368L8.88828 15.5664C9.24551 14.618 9.31285 13.5848 9.08174 12.5981C8.85063 11.6113 8.3315 10.7155 7.59027 10.0244L9.54187 6.7842C11.4083 7.50134 13.6399 6.93563 14.9557 5.46343L25.8845 12.2255C23.4804 13.5435 23.469 17.3504 25.8664 18.6932L31.7475 22.2593L30.3618 24.4076ZM41.7812 22.7118C40.9921 23.2144 40.0778 23.4855 39.1423 23.4942C38.2068 23.5029 37.2876 23.2488 36.4893 22.7609L26.9194 16.958C26.7187 16.8366 26.5449 16.6757 26.4084 16.4849C26.2719 16.2942 26.1756 16.0777 26.1255 15.8486C25.7524 14.4193 27.4378 13.1408 28.6886 13.968L35.0457 17.8941C35.4816 18.1985 36.1155 18.5665 36.6287 18.224C37.2869 17.8792 37.2798 16.8804 36.6498 16.499L24.538 9.00492L28.8456 4.83155C30.1114 3.6116 31.7379 2.83409 33.4822 2.61526C35.2265 2.39642 36.9947 2.74802 38.5225 3.61749L46.6551 8.18134C46.403 8.62666 46.2688 9.12901 46.2654 9.64072V19.88L41.7812 22.7118ZM54.3838 21.8225H49.31C49.0409 21.8222 48.783 21.7152 48.5928 21.5249C48.4025 21.3347 48.2954 21.0768 48.2951 20.8078V9.64125C48.2953 9.37281 48.402 9.11544 48.5919 8.92563C48.7817 8.73582 49.039 8.62907 49.3075 8.62883H54.3838V21.8225Z" fill="url(#paint2_linear_225_12623)"/>
<path d="M19.8825 11.6735C14.5177 11.8435 14.519 19.6227 19.8825 19.7924C25.2473 19.6219 25.246 11.8432 19.8825 11.6735ZM19.8825 17.7626C17.2148 17.7153 17.2148 13.7502 19.8825 13.7031C22.5499 13.7506 22.5495 17.7157 19.8825 17.7626Z" fill="url(#paint3_linear_225_12623)"/>
<path d="M52.0618 19.4977C52.4999 18.9476 52.4 18.4138 52.0618 18.0567C51.5267 17.6306 50.9923 17.7003 50.6209 18.0567C50.4332 18.2495 50.3281 18.5081 50.3281 18.7772C50.3281 19.0464 50.4332 19.3049 50.6209 19.4977C50.9823 19.8401 51.5235 19.9268 52.0618 19.4977Z" fill="url(#paint4_linear_225_12623)"/>
<path d="M3.9369 58.6518C3.59232 59.0131 3.50431 59.5495 3.9369 60.0929C4.0794 60.2354 4.26096 60.3324 4.45862 60.3717C4.65627 60.411 4.86115 60.3909 5.04733 60.3137C5.23352 60.2366 5.39265 60.106 5.50461 59.9384C5.61657 59.7709 5.67633 59.5739 5.67633 59.3723C5.67633 59.1708 5.61657 58.9738 5.50461 58.8063C5.39265 58.6387 5.23352 58.5081 5.04733 58.431C4.86115 58.3538 4.65627 58.3337 4.45862 58.373C4.26096 58.4123 4.0794 58.5093 3.9369 58.6518Z" fill="url(#paint5_linear_225_12623)"/>
</g>
<defs>
<linearGradient id="paint0_linear_225_12623" x1="23.5183" y1="32.9851" x2="23.5183" y2="67.4753" gradientUnits="userSpaceOnUse">
<stop stop-color="#6BDDC7"/>
<stop offset="1" stop-color="#71E7AB"/>
</linearGradient>
<linearGradient id="paint1_linear_225_12623" x1="34.5955" y1="46.1791" x2="34.5955" y2="48.2087" gradientUnits="userSpaceOnUse">
<stop stop-color="#6BDDC7"/>
<stop offset="1" stop-color="#71E7AB"/>
</linearGradient>
<linearGradient id="paint2_linear_225_12623" x1="29.7731" y1="0.524536" x2="29.7731" y2="30.1601" gradientUnits="userSpaceOnUse">
<stop stop-color="#6BDDC7"/>
<stop offset="1" stop-color="#71E7AB"/>
</linearGradient>
<linearGradient id="paint3_linear_225_12623" x1="19.8825" y1="11.6735" x2="19.8825" y2="19.7924" gradientUnits="userSpaceOnUse">
<stop stop-color="#6BDDC7"/>
<stop offset="1" stop-color="#71E7AB"/>
</linearGradient>
<linearGradient id="paint4_linear_225_12623" x1="51.3411" y1="17.7627" x2="51.3411" y2="19.7879" gradientUnits="userSpaceOnUse">
<stop stop-color="#6BDDC7"/>
<stop offset="1" stop-color="#71E7AB"/>
</linearGradient>
<linearGradient id="paint5_linear_225_12623" x1="4.66043" y1="58.3534" x2="4.66043" y2="60.3913" gradientUnits="userSpaceOnUse">
<stop stop-color="#6BDDC7"/>
<stop offset="1" stop-color="#71E7AB"/>
</linearGradient>
<clipPath id="clip0_225_12623">
<rect width="56" height="68" fill="white"/>
</clipPath>
</defs>
</svg>
