<svg width="71" height="63" viewBox="0 0 71 63" fill="none" xmlns="http://www.w3.org/2000/svg">
<path d="M68.6333 13.75H20.1167C19.4631 13.75 18.9333 14.2798 18.9333 14.9333C18.9333 15.5869 19.4631 16.1167 20.1167 16.1167H27.2699C22.0184 19.4583 18.8658 25.2758 18.9333 31.5C18.8658 37.7242 22.0184 43.5417 27.2699 46.8833H2.36667V16.1167H14.2C14.8535 16.1167 15.3833 15.5869 15.3833 14.9333C15.3833 14.2798 14.8535 13.75 14.2 13.75H2.36667C1.05959 13.75 0 14.8096 0 16.1167V46.8833C0 48.1904 1.05959 49.25 2.36667 49.25H68.6333C69.9404 49.25 71 48.1904 71 46.8833V16.1167C71 14.8096 69.9404 13.75 68.6333 13.75ZM21.3 31.5C21.3 23.0179 27.6699 16.1167 35.5 16.1167C43.3301 16.1167 49.7 23.0179 49.7 31.5C49.7 39.9821 43.3301 46.8833 35.5 46.8833C27.6699 46.8833 21.3 39.9821 21.3 31.5ZM68.6333 46.8833H43.7301C48.9816 43.5417 52.1342 37.7242 52.0667 31.5C52.1342 25.2758 48.9816 19.4583 43.7301 16.1167H68.6333V46.8833Z" fill="url(#paint0_linear_225_12678)"/>
<path d="M62.4066 0.981802C61.8464 0.701445 61.1979 0.654637 60.6032 0.851635L35.1142 9.39412C34.4933 9.60194 34.1585 10.2737 34.3663 10.8946C34.5741 11.5154 35.2459 11.8503 35.8668 11.6425L61.3487 3.09997L63.9639 10.897C64.0981 11.2986 64.4364 11.5981 64.8513 11.6827C65.2662 11.7672 65.6948 11.624 65.9755 11.3069C66.2562 10.9899 66.3464 10.5472 66.2122 10.1455L63.5958 2.35329C63.4009 1.75428 62.9719 1.25961 62.4066 0.981802Z" fill="url(#paint1_linear_225_12678)"/>
<path d="M35.1373 51.3587L9.65541 59.9L7.04025 52.103C6.83275 51.4821 6.16123 51.147 5.54037 51.3545C4.91951 51.562 4.58441 52.2336 4.79191 52.8544L7.40353 60.6443C7.59709 61.2422 8.02375 61.7367 8.58686 62.0158C8.91448 62.1787 9.27531 62.2638 9.64121 62.2643C9.89558 62.2646 10.1484 62.2247 10.3903 62.1459L35.8793 53.6035C36.5001 53.3956 36.835 52.7239 36.6271 52.103C36.4193 51.4821 35.7475 51.1473 35.1267 51.3551L35.1373 51.3587Z" fill="url(#paint2_linear_225_12678)"/>
<path d="M39.0526 27.3583C39.0526 28.0118 39.5824 28.5416 40.2359 28.5416C40.8895 28.5416 41.4193 28.0118 41.4193 27.3583C41.305 24.7058 39.3149 22.5121 36.6859 22.141V22.0333C36.6859 21.3798 36.1561 20.85 35.5026 20.85C34.8491 20.85 34.3193 21.3798 34.3193 22.0333V22.141C31.6903 22.5121 29.7002 24.7058 29.5859 27.3583C29.7002 30.0109 31.6903 32.2045 34.3193 32.5756V38.4177C33.0024 38.119 32.0392 36.9892 31.9526 35.6416C31.9526 34.9881 31.4228 34.4583 30.7693 34.4583C30.1157 34.4583 29.5859 34.9881 29.5859 35.6416C29.7002 38.2942 31.6903 40.4878 34.3193 40.859V40.9666C34.3193 41.6202 34.8491 42.15 35.5026 42.15C36.1561 42.15 36.6859 41.6202 36.6859 40.9666V40.859C39.3149 40.4878 41.305 38.2942 41.4193 35.6416C41.305 32.9891 39.3149 30.7955 36.6859 30.4243V24.5822C38.0028 24.881 38.966 26.0108 39.0526 27.3583ZM31.9526 27.3583C32.0392 26.0108 33.0024 24.881 34.3193 24.5822V30.1344C33.0024 29.8357 32.0392 28.7059 31.9526 27.3583ZM39.0526 35.6416C38.966 36.9892 38.0028 38.119 36.6859 38.4177V32.8655C38.0028 33.1643 38.966 34.2941 39.0526 35.6416Z" fill="url(#paint3_linear_225_12678)"/>
<path d="M60.3474 44.5166H65.0807C65.7343 44.5166 66.2641 43.9868 66.2641 43.3333V38.6C66.2641 37.9464 65.7343 37.4166 65.0807 37.4166C64.4272 37.4166 63.8974 37.9464 63.8974 38.6V42.15H60.3474C59.6939 42.15 59.1641 42.6798 59.1641 43.3333C59.1641 43.9868 59.6939 44.5166 60.3474 44.5166Z" fill="url(#paint4_linear_225_12678)"/>
<path d="M5.91771 37.4166C5.26417 37.4166 4.73438 37.9464 4.73438 38.6V43.3333C4.73438 43.9868 5.26417 44.5166 5.91771 44.5166H10.651C11.3046 44.5166 11.8344 43.9868 11.8344 43.3333C11.8344 42.6798 11.3046 42.15 10.651 42.15H7.10104V38.6C7.10104 37.9464 6.57125 37.4166 5.91771 37.4166Z" fill="url(#paint5_linear_225_12678)"/>
<path d="M10.651 18.4833H5.91771C5.26417 18.4833 4.73438 19.0131 4.73438 19.6666V24.3999C4.73438 25.0535 5.26417 25.5833 5.91771 25.5833C6.57125 25.5833 7.10104 25.0535 7.10104 24.3999V20.8499H10.651C11.3046 20.8499 11.8344 20.3201 11.8344 19.6666C11.8344 19.0131 11.3046 18.4833 10.651 18.4833Z" fill="url(#paint6_linear_225_12678)"/>
<path d="M60.3474 20.8499H63.8974V24.3999C63.8974 25.0535 64.4272 25.5833 65.0807 25.5833C65.7343 25.5833 66.2641 25.0535 66.2641 24.3999V19.6666C66.2641 19.0131 65.7343 18.4833 65.0807 18.4833H60.3474C59.6939 18.4833 59.1641 19.0131 59.1641 19.6666C59.1641 20.3201 59.6939 20.8499 60.3474 20.8499Z" fill="url(#paint7_linear_225_12678)"/>
<defs>
<linearGradient id="paint0_linear_225_12678" x1="35.5" y1="13.75" x2="35.5" y2="49.25" gradientUnits="userSpaceOnUse">
<stop stop-color="#6BDDC7"/>
<stop offset="1" stop-color="#71E7AB"/>
</linearGradient>
<linearGradient id="paint1_linear_225_12678" x1="50.289" y1="0.731567" x2="50.289" y2="11.7066" gradientUnits="userSpaceOnUse">
<stop stop-color="#6BDDC7"/>
<stop offset="1" stop-color="#71E7AB"/>
</linearGradient>
<linearGradient id="paint2_linear_225_12678" x1="20.7096" y1="51.2931" x2="20.7096" y2="62.2643" gradientUnits="userSpaceOnUse">
<stop stop-color="#6BDDC7"/>
<stop offset="1" stop-color="#71E7AB"/>
</linearGradient>
<linearGradient id="paint3_linear_225_12678" x1="35.5026" y1="20.85" x2="35.5026" y2="42.15" gradientUnits="userSpaceOnUse">
<stop stop-color="#6BDDC7"/>
<stop offset="1" stop-color="#71E7AB"/>
</linearGradient>
<linearGradient id="paint4_linear_225_12678" x1="62.7141" y1="37.4166" x2="62.7141" y2="44.5166" gradientUnits="userSpaceOnUse">
<stop stop-color="#6BDDC7"/>
<stop offset="1" stop-color="#71E7AB"/>
</linearGradient>
<linearGradient id="paint5_linear_225_12678" x1="8.28438" y1="37.4166" x2="8.28438" y2="44.5166" gradientUnits="userSpaceOnUse">
<stop stop-color="#6BDDC7"/>
<stop offset="1" stop-color="#71E7AB"/>
</linearGradient>
<linearGradient id="paint6_linear_225_12678" x1="8.28438" y1="18.4833" x2="8.28438" y2="25.5833" gradientUnits="userSpaceOnUse">
<stop stop-color="#6BDDC7"/>
<stop offset="1" stop-color="#71E7AB"/>
</linearGradient>
<linearGradient id="paint7_linear_225_12678" x1="62.7141" y1="18.4833" x2="62.7141" y2="25.5833" gradientUnits="userSpaceOnUse">
<stop stop-color="#6BDDC7"/>
<stop offset="1" stop-color="#71E7AB"/>
</linearGradient>
</defs>
</svg>
