<svg width="24" height="24" viewBox="0 0 24 24" fill="none" xmlns="http://www.w3.org/2000/svg">
<g clip-path="url(#clip0_177_783)">
<path d="M24 20.2427C24 22.3178 22.3178 24 20.2427 24H3.75734C1.68221 24 0 22.3178 0 20.2427V4.88454L4.88454 0H20.2427C22.3178 0 24 1.68221 24 3.75734V20.2427Z" fill="#E24C3F"/>
<path opacity="0.2" d="M0 7.50213V4.88454H2.6051L0 7.50213Z" fill="#5D5D5D"/>
<path d="M0 4.88454H3.25639C4.15186 4.88454 4.88454 4.16435 4.88454 3.26888V0L0 4.88454Z" fill="#FF7063"/>
<path d="M4.02344 16.1433V8.28473H7.91313C8.28233 8.28473 8.6103 8.34513 8.89685 8.46565C9.18325 8.5863 9.42071 8.75402 9.60924 8.96885C9.79757 9.18367 9.94087 9.44002 10.0389 9.73774C10.1368 10.0356 10.1858 10.3653 10.1858 10.7271C10.1858 11.0889 10.1387 11.4282 10.0445 11.7447C9.95017 12.0613 9.81072 12.3347 9.62619 12.5645C9.44133 12.7945 9.20589 12.9755 8.91948 13.1073C8.63289 13.2393 8.29755 13.3051 7.91308 13.3051H5.30112V16.1433H4.02344V16.1433ZM5.30117 9.46068V12.1066H7.4722C7.96968 12.1066 8.33329 11.9954 8.56333 11.773C8.79314 11.5507 8.90817 11.202 8.90817 10.727C8.90817 10.2748 8.78563 9.95073 8.5407 9.7546C8.29567 9.5587 7.93948 9.46064 7.4722 9.46064H5.30117V9.46068Z" fill="#FF7063"/>
<path d="M14.7863 8.48826L16.0188 8.14902V14.8429C16.0188 14.9862 16.0262 15.1143 16.0414 15.2274C16.0564 15.3404 16.0753 15.4461 16.0979 15.544C16.128 15.6344 16.1619 15.7306 16.1997 15.8323C16.2373 15.9341 16.2862 16.0378 16.3467 16.1433H15.0464C15.0011 16.068 14.9559 15.9662 14.9107 15.838C14.8804 15.7022 14.8578 15.5818 14.8428 15.4761C14.6167 15.7022 14.3584 15.8927 14.0682 16.0472C13.778 16.2015 13.467 16.279 13.1354 16.279C12.7433 16.279 12.3986 16.2148 12.1008 16.0867C11.8029 15.9586 11.5524 15.7814 11.3488 15.5553C11.1454 15.3292 10.9927 15.0597 10.8909 14.7469C10.7892 14.4341 10.7383 14.0966 10.7383 13.7348V13.1921C10.7383 12.2348 10.9907 11.5149 11.4959 11.0324C12.0008 10.55 12.7358 10.3087 13.7008 10.3087C14.0701 10.3087 14.4318 10.3805 14.7863 10.5236L14.7863 8.48826ZM14.7863 11.6656C14.6204 11.5677 14.4301 11.4999 14.2153 11.462C14.0005 11.4244 13.7987 11.4055 13.6103 11.4055C13.3088 11.4055 13.0544 11.4471 12.8471 11.5299C12.6397 11.613 12.4701 11.7297 12.3383 11.8804C12.2063 12.0313 12.1122 12.2122 12.0556 12.4232C11.9991 12.6343 11.9708 12.8642 11.9708 13.1129V13.5313C11.9708 13.7424 11.9858 13.9479 12.016 14.1476C12.046 14.3474 12.1045 14.5226 12.1913 14.6733C12.2778 14.8242 12.3966 14.9466 12.5474 15.0408C12.6981 15.1351 12.8941 15.1821 13.1354 15.1821C13.2937 15.1821 13.45 15.1558 13.6047 15.103C13.7591 15.0503 13.9081 14.9806 14.0514 14.8938C14.1945 14.8072 14.3284 14.7111 14.4527 14.6054C14.5771 14.4999 14.6883 14.3906 14.7863 14.2776V11.6656Z" fill="#FF7063"/>
<path d="M17.5911 9.81117C17.5911 9.60024 17.6194 9.39476 17.676 9.19492C17.7325 8.99531 17.821 8.81811 17.9416 8.66349C18.0621 8.50911 18.2205 8.3847 18.4165 8.29039C18.6124 8.19622 18.8462 8.14902 19.1176 8.14902C19.2457 8.14902 19.3907 8.16226 19.5529 8.18861C19.715 8.2151 19.8563 8.24708 19.977 8.28475V9.25715H19.5246C19.2909 9.25715 19.1157 9.32126 18.9989 9.44939C18.882 9.57765 18.8237 9.75467 18.8237 9.98082V10.4444H19.9205L19.5926 11.4621H18.8237V16.1433H17.5912V11.4621H16.8789V10.4444H17.5912V9.81117H17.5911Z" fill="#FF7063"/>
<path d="M4.02344 15.8615V8.00294H7.91313C8.28233 8.00294 8.6103 8.06334 8.89685 8.18386C9.18325 8.30452 9.42071 8.47224 9.60924 8.68706C9.79757 8.90189 9.94087 9.15823 10.0389 9.45595C10.1368 9.75382 10.1858 10.0835 10.1858 10.4453C10.1858 10.8071 10.1387 11.1464 10.0445 11.4629C9.95017 11.7795 9.81072 12.0529 9.62619 12.2827C9.44133 12.5127 9.20589 12.6937 8.91948 12.8255C8.63289 12.9575 8.29755 13.0234 7.91308 13.0234H5.30112V15.8615H4.02344V15.8615ZM5.30117 9.1789V11.8248H7.4722C7.96968 11.8248 8.33329 11.7136 8.56333 11.4912C8.79314 11.269 8.90817 10.9202 8.90817 10.4453C8.90817 9.99297 8.78563 9.66895 8.5407 9.47282C8.29567 9.27692 7.93948 9.17885 7.4722 9.17885H5.30117V9.1789Z" fill="white"/>
<path d="M14.7863 8.20646L16.0188 7.86722V14.5611C16.0188 14.7044 16.0262 14.8325 16.0414 14.9456C16.0564 15.0586 16.0753 15.1643 16.0979 15.2622C16.128 15.3526 16.1619 15.4488 16.1997 15.5505C16.2373 15.6523 16.2862 15.756 16.3467 15.8615H15.0464C15.0011 15.7862 14.9559 15.6844 14.9107 15.5562C14.8804 15.4204 14.8578 15.3 14.8428 15.1943C14.6167 15.4204 14.3584 15.6109 14.0682 15.7654C13.778 15.9197 13.467 15.9972 13.1354 15.9972C12.7433 15.9972 12.3986 15.933 12.1008 15.8049C11.8029 15.6768 11.5524 15.4996 11.3488 15.2735C11.1454 15.0474 10.9927 14.7779 10.8909 14.4651C10.7892 14.1523 10.7383 13.8148 10.7383 13.453V12.9103C10.7383 11.953 10.9907 11.2331 11.4959 10.7506C12.0008 10.2682 12.7358 10.0269 13.7008 10.0269C14.0701 10.0269 14.4318 10.0987 14.7863 10.2418L14.7863 8.20646ZM14.7863 11.3838C14.6204 11.2859 14.4301 11.2181 14.2153 11.1802C14.0005 11.1426 13.7987 11.1237 13.6103 11.1237C13.3088 11.1237 13.0544 11.1653 12.8471 11.2481C12.6397 11.3312 12.4701 11.4479 12.3383 11.5986C12.2063 11.7495 12.1122 11.9304 12.0556 12.1414C11.9991 12.3525 11.9708 12.5824 11.9708 12.8311V13.2495C11.9708 13.4606 11.9858 13.6661 12.016 13.8658C12.046 14.0656 12.1045 14.2408 12.1913 14.3915C12.2778 14.5424 12.3966 14.6648 12.5474 14.759C12.6981 14.8533 12.8941 14.9003 13.1354 14.9003C13.2937 14.9003 13.45 14.874 13.6047 14.8212C13.7591 14.7685 13.9081 14.6988 14.0514 14.612C14.1945 14.5254 14.3284 14.4293 14.4527 14.3236C14.5771 14.2181 14.6883 14.1088 14.7863 13.9958V11.3838Z" fill="white"/>
<path d="M17.5911 9.52937C17.5911 9.31844 17.6194 9.11296 17.676 8.91312C17.7325 8.71351 17.821 8.53631 17.9416 8.38169C18.0621 8.22731 18.2205 8.1029 18.4165 8.00859C18.6124 7.91442 18.8462 7.86722 19.1176 7.86722C19.2457 7.86722 19.3907 7.88046 19.5529 7.90681C19.715 7.9333 19.8563 7.96528 19.977 8.00295V8.97535H19.5246C19.2909 8.97535 19.1157 9.03946 18.9989 9.16758C18.882 9.29585 18.8237 9.47287 18.8237 9.69901V10.1626H19.9205L19.5926 11.1802H18.8237V15.8615H17.5912V11.1802H16.8789V10.1626H17.5912V9.52937H17.5911Z" fill="white"/>
</g>
<defs>
<clipPath id="clip0_177_783">
<rect width="24" height="24" fill="white"/>
</clipPath>
</defs>
</svg>
